<svg width="123" height="100" viewBox="0 0 123 100" fill="none" xmlns="http://www.w3.org/2000/svg">
<g clip-path="url(#clip0_3090_5363)">
<path d="M46.0634 84.2936C47.2726 88.0153 48.5871 94.199 48.5871 100H76.9222C75.6793 94.4459 72.7965 84.6757 68.2675 78.5973C66.8893 83.5143 64.522 89.1151 61.2199 92.2181C56.5402 89.9029 51.5272 86.4896 48.724 83.6254C47.6076 83.9834 47.0372 84.1025 46.0634 84.2936V84.2936Z" fill="#DEE44C"/>
<path d="M39.0554 77.0855C39.0554 77.0855 39.2908 78.5501 39.5778 79.3771C40.2903 81.4299 42.3569 83.435 46.0634 84.2942C44.3531 82.3369 44.5192 79.9503 45.7782 77.1338C47.1087 74.9378 47.6065 70.8822 47.6311 68.3978C47.6546 66.0112 47.0371 64.7699 45.9918 63.2425C44.9465 61.7151 44.1623 60.3305 43.2121 57.6573C41.5647 58.0711 40.9868 57.3644 40.7096 56.0028C40.4243 54.6026 40.646 52.502 40.8362 50.5925C40.1712 50.9269 39.2684 51.3884 38.5874 51.5312C38.1126 53.7273 38.1469 56.3239 38.4608 59.1847C38.7936 62.2158 39.0548 64.0062 39.245 66.0112C39.4351 68.0163 39.1023 70.3551 38.0811 71.7875C37.0907 73.1756 35.3254 74.4607 32.7599 76.1313C34.7887 75.8039 36.5002 76.1423 37.8726 76.6176C38.01 75.2238 39.4712 71.62 40.3619 69.9373C39.9461 71.7754 38.8893 74.9136 39.0554 77.0861V77.0855Z" fill="#7E6E60"/>
<path d="M72.2586 57.4973C71.7838 60.075 70.8015 62.4299 69.3764 64.085C67.8717 65.8322 66.8739 66.8537 65.734 67.8724C65.4963 70.0685 65.4488 70.9277 65.7025 72.4712C66.0302 74.467 66.4311 75.622 67.0806 76.4968L68.9651 76.4651C69.9154 77.1333 70.4538 78.3907 70.6119 79.9342C71.388 77.9136 71.451 76.2268 70.6909 73.3626C69.9308 70.4984 69.5826 69.3048 70.0099 67.3797C70.865 70.1007 71.6412 71.7714 72.0215 73.3948C72.4018 75.0177 72.4648 75.782 72.4648 76.8478C73.8899 77.0389 74.8877 77.0389 76.0281 76.9433C76.9623 74.5723 77.1937 73.2441 76.9944 71.4537C76.7727 69.4648 76.3924 68.2079 75.4267 66.0596C74.3768 63.7248 72.5444 59.8217 72.2592 57.4985L72.2586 57.4973Z" fill="#7E6E60"/>
<path d="M43.4979 52.1186C42.5952 50.4238 41.6925 48.3716 41.2176 46.8436C40.7428 45.3163 40.6002 44.7195 41.075 42.81C41.5499 40.9005 41.8826 39.3253 42.928 36.4611C43.9733 33.5969 45.0421 31.7593 47.1093 29.3963C49.1496 27.0638 51.734 25.609 54.2044 24.6542C56.6748 23.6995 59.1819 23.715 60.4128 23.8589C61.5057 23.9861 62.4239 24.3204 62.9783 24.8136C64.2929 24.0816 65.734 24.527 67.1591 25.2907C68.5848 26.0544 70.5088 27.9881 72.1005 30.8759C73.6442 33.6774 75.5796 39.014 76.0442 41.2348C76.5431 43.6214 76.9469 45.4118 76.448 46.0322C75.7515 46.8983 74.8087 47.8939 73.8584 49.3977C73.8109 47.0111 73.4071 43.359 73.0508 41.3304C71.0552 39.5164 69.4634 37.798 68.6083 36.4853C67.4908 34.7703 66.399 32.5949 66.0187 29.4918C65.0684 32.6663 63.8026 33.9934 62.2973 35.1139C60.4289 36.5043 58.9637 37.1057 56.4623 37.4078C55.2681 37.5522 54.433 37.5235 53.3097 37.4636C55.0917 35.7688 56.1364 34.4561 56.4217 33.4058C54.6638 35.0051 52.383 36.4611 51.4327 37.0337C52.3589 35.3631 53.1906 33.5013 53.4758 32.3555C51.1956 34.0262 49.7464 35.9121 48.8672 37.535C47.8849 39.3489 45.993 41.4731 44.6624 42.4279C43.7832 45.8889 43.4034 48.7531 43.4985 52.1186H43.4979Z" fill="#7E6E60"/>
<path d="M57.4894 35.7015C57.1176 35.7775 56.8771 36.1423 56.9527 36.5158C57.0191 36.8433 57.3055 37.0689 57.6257 37.0689C57.6709 37.0689 57.7173 37.0643 57.7632 37.0551C60.2582 36.5452 62.9257 34.4406 64.4006 31.8186C65.5851 29.7123 65.8727 27.5191 65.2088 25.643C65.0816 25.2833 64.6881 25.0957 64.3313 25.2234C63.9733 25.3512 63.7866 25.746 63.9137 26.1051C64.4418 27.5985 64.1898 29.386 63.204 31.139C61.9136 33.4329 59.6173 35.2664 57.4894 35.7015V35.7015Z" fill="black"/>
<path d="M52.9036 37.3986C53.0239 37.6403 53.2668 37.7807 53.5188 37.7807C53.6225 37.7807 53.7273 37.7571 53.8258 37.7077C57.1869 36.0191 59.0319 32.9765 59.6384 30.6924C59.7364 30.324 59.5182 29.9454 59.1516 29.8469C58.7861 29.7491 58.4087 29.9678 58.3102 30.3361C57.8055 32.2381 56.1674 34.9867 53.2112 36.4721C52.8716 36.643 52.7341 37.0579 52.9036 37.3986V37.3986Z" fill="black"/>
<path d="M49.3323 37.9074C50.2539 36.2989 51.124 34.779 53.764 33.0393C54.0813 32.8304 54.1701 32.4022 53.9616 32.0828C53.7531 31.764 53.3275 31.6748 53.0096 31.8842C50.0958 33.8047 49.1021 35.5404 48.1409 37.2185C47.2966 38.6924 46.4999 40.0845 44.3623 41.6625C44.258 41.7396 44.1772 41.8444 44.1303 41.9658C43.3708 43.9 42.9698 46.9789 43.0574 50.2029C43.0678 50.5775 43.3731 50.8745 43.7442 50.8745H43.7631C44.1423 50.8641 44.4419 50.5464 44.4316 50.1649C44.3525 47.265 44.6996 44.4145 45.3411 42.6529C47.5899 40.9512 48.476 39.4043 49.3329 37.9074H49.3323Z" fill="black"/>
<path d="M46.005 84.8782C46.3836 84.8512 46.6689 84.5208 46.6414 84.1399C46.6145 83.7594 46.2868 83.4752 45.9065 83.4999C45.0823 83.5598 43.1268 82.7155 41.5837 80.9792C40.1998 79.4219 39.9094 76.8293 40.7652 73.6773C41.6742 70.3274 42.393 67.5189 42.6811 64.4326C42.7166 64.0527 42.4388 63.7161 42.0608 63.6804C41.6816 63.6435 41.3477 63.9238 41.3122 64.3036C41.0344 67.2801 40.3298 70.0293 39.4386 73.3136C38.4563 76.9318 38.8538 79.9807 40.5584 81.8989C42.3105 83.8711 44.5352 84.8834 45.84 84.8828C45.8962 84.8828 45.9517 84.8811 46.0044 84.8771L46.005 84.8782Z" fill="black"/>
<path d="M67.1305 77.9412C66.7673 77.8295 66.383 78.0338 66.2713 78.3981C65.6206 80.5234 63.928 86.0511 60.6763 90.1215C57.8101 88.6368 50.4006 84.431 46.8206 78.9805C46.6116 78.6623 46.186 78.5748 45.8681 78.7843C45.5513 78.9943 45.4637 79.4225 45.6728 79.7413C49.6674 85.8226 58.0684 90.3598 60.548 91.6057C60.646 91.6547 60.7508 91.6783 60.855 91.6783C61.0515 91.6783 61.2445 91.5937 61.3786 91.4354C65.0392 87.118 66.8888 81.0782 67.5847 78.8044C67.6964 78.4395 67.493 78.0534 67.1299 77.9412H67.1305Z" fill="black"/>
<path d="M118.632 49.5824C116.009 48.2732 107.141 46.008 104.752 45.6236C104.619 45.6023 104.484 45.6207 104.361 45.676C103.796 45.9315 103.29 46.2388 102.833 46.5795C102.775 46.557 102.714 46.5398 102.649 46.534C98.0197 46.1398 89.0435 44.4605 87.5635 44.1469C85.5387 43.7187 83.7785 42.4238 83.5843 42.2777C82.8483 41.7235 80.3842 39.4163 78.9533 36.8904C78.1268 35.431 76.5024 32.3337 76.0631 31.2736C75.4903 29.8935 74.1465 28.9647 73.1659 29.2634C73.0399 29.0205 72.9179 28.8001 72.8005 28.6119C70.2504 24.5121 67.5807 22.434 64.8634 22.434C64.8428 22.434 64.8221 22.434 64.8021 22.434C64.4223 22.4386 64.1182 22.7511 64.1228 23.1326C64.1273 23.5113 64.4338 23.8152 64.8101 23.8152C64.8273 23.8157 64.8439 23.8152 64.8617 23.8152C67.044 23.8152 69.3855 25.7258 71.636 29.3439C73.0078 31.5487 75.2239 38.4581 75.6203 40.1616C76.1192 42.3076 76.4216 44.9226 76.0333 45.7669C75.8591 46.1461 75.3769 46.6733 74.8659 47.2315C74.6924 47.4214 74.5142 47.616 74.339 47.8145C74.3063 46.4005 74.0491 44.1187 73.8263 42.4664C73.9266 42.5332 74.0257 42.5976 74.1242 42.6586C74.2364 42.7283 74.3613 42.7616 74.4845 42.7616C74.7147 42.7616 74.9398 42.6448 75.0698 42.4336C75.2692 42.109 75.1689 41.6837 74.8465 41.4829C71.8789 39.6407 67.8384 34.6448 67.3527 31.4405C67.296 31.0635 66.946 30.8051 66.5697 30.8621C66.1945 30.9197 65.9368 31.2719 65.9941 31.6488C66.454 34.6828 69.3975 38.7527 72.2598 41.2538C72.5731 43.1685 73.0771 47.4134 72.9523 48.5419C72.8761 49.232 72.8039 49.8564 72.7346 50.4313C72.7083 50.5401 72.6848 50.6488 72.6704 50.7599C72.6624 50.8209 72.6653 50.8802 72.6727 50.9383C72.3589 53.4814 72.124 54.8609 71.9711 55.5929C71.9144 55.8646 71.8577 56.1201 71.8015 56.3652C71.7706 56.4377 71.7494 56.516 71.7454 56.6V56.6064C71.2986 58.4871 70.8478 59.6444 70.2499 61.0866C69.5917 62.6744 68.3557 64.0614 67.04 65.4604C65.494 67.1046 63.3008 68.9916 60.0371 68.9916C56.8495 68.9916 53.367 67.3388 51.329 65.7009C51.0323 65.4621 50.5999 65.511 50.3627 65.8086C50.1256 66.1067 50.1737 66.5412 50.4698 66.7794C52.5319 68.4368 56.275 70.3728 60.0365 70.3728C61.9084 70.3728 63.4589 69.8549 64.7591 69.109C64.475 71.5693 64.951 74.9779 66.2696 76.9047C66.403 77.0998 66.6178 77.204 66.8366 77.204C66.9707 77.204 67.1064 77.1648 67.225 77.0825C67.5377 76.8667 67.6173 76.4368 67.402 76.1226C65.9362 73.9806 65.7833 69.6966 66.399 67.9626C67.0102 67.4579 67.5543 66.9233 68.0383 66.4088C69.4457 64.9125 70.7705 63.4208 71.518 61.6172C71.758 61.0388 71.9785 60.4944 72.187 59.9247C72.7489 61.9688 73.7238 63.9952 74.4587 65.5197C74.662 65.9415 74.8453 66.3213 74.9925 66.6465C76.0854 69.0618 76.9394 72.5309 76.0596 75.0217C75.9325 75.3814 76.1198 75.7762 76.4772 75.9033C76.5534 75.9304 76.6307 75.9436 76.7069 75.9436C76.9898 75.9436 77.2545 75.7669 77.3547 75.4838C78.6337 71.8616 76.8277 67.3664 76.2435 66.075C76.0923 65.7412 75.9044 65.351 75.6953 64.9177C74.6294 62.7078 73.0302 59.3849 73.1161 56.7796C73.1825 56.4941 73.249 56.1943 73.3154 55.8761C73.3967 55.487 73.4815 55.018 73.5691 54.4753C74.9856 55.1153 77.019 55.647 78.4882 55.7402C79.6132 55.8116 81.0228 55.6062 82.5155 55.3892C83.4297 55.2563 84.3753 55.1187 85.2357 55.052C87.3206 54.8902 89.2469 55.3345 91.4767 55.8484C91.7694 55.9158 92.0661 55.9843 92.3685 56.0522C94.993 56.6444 96.7463 57.1548 98.6222 57.873C98.6572 57.8863 98.6932 57.8955 98.7288 57.903C98.8983 58.8399 99.7615 59.1587 100.588 59.3446C101.512 59.5523 102.109 59.706 102.607 60.0806C102.839 60.255 102.954 60.4564 102.95 60.6786C102.944 60.9519 102.741 61.7196 100.976 62.9403C99.2855 64.1103 96.3597 67.2116 94.0004 69.7829C92.5616 71.3512 87.5486 74.944 84.4738 75.7382C84.1061 75.8331 83.885 76.2095 83.9795 76.579C84.074 76.9484 84.4486 77.17 84.8164 77.0756C88.3063 76.1738 93.4735 72.3945 95.0114 70.7187C96.4972 69.0998 99.9757 65.3096 101.757 64.0775C103.463 62.8971 104.303 61.7945 104.325 60.7062C104.339 60.0335 104.021 59.4188 103.432 58.9751C102.718 58.437 101.928 58.2298 100.889 57.9962C100.413 57.8891 100.095 57.7533 100.078 57.6503C99.5662 54.4954 100.705 48.9943 104.742 47.0215C107.29 47.4755 115.62 49.6193 118.022 50.8186C120.542 52.0761 121.905 54.7596 121.579 57.8218C121.273 60.6918 119.311 64.2421 115.58 68.6774C114.861 69.532 113.535 71.0657 112 72.8423C108.586 76.7925 103.911 82.2027 100.985 85.8209L100.158 86.8412C98.2333 89.2169 95.5962 92.4707 93.7123 94.9609C93.4826 95.2648 93.5416 95.6975 93.8435 95.9283C93.9678 96.0233 94.1138 96.0693 94.2587 96.0693C94.4661 96.0693 94.6712 95.9755 94.8063 95.7965C96.6759 93.3253 99.3044 90.0818 101.224 87.7131L102.051 86.6916C104.964 83.0913 109.631 77.6908 113.038 73.7475C114.64 71.8944 115.905 70.4304 116.629 69.5688C120.543 64.9165 122.609 61.1223 122.946 57.9691C123.335 54.3176 121.683 51.1035 118.634 49.5819L118.632 49.5824ZM99.4608 51.3072C98.8611 52.9284 98.5598 54.7389 98.5919 56.3888C96.838 55.7448 95.1208 55.2586 92.6681 54.7049C92.368 54.637 92.073 54.5691 91.7826 54.5024C89.4428 53.9631 87.422 53.4987 85.1291 53.6748C84.2224 53.745 83.2538 53.8854 82.3173 54.0218C80.8974 54.2284 79.5565 54.4229 78.5736 54.3614C77.0213 54.2635 74.8888 53.6138 73.7828 53.0463C73.8796 52.3546 73.9798 51.5783 74.0829 50.7242C74.3023 49.8949 75.1311 48.9816 75.8769 48.1661C76.4881 47.4986 77.0156 46.9213 77.2802 46.3458C78.0122 44.7523 77.2184 40.969 76.9577 39.8473C76.6261 38.4213 75.1529 33.7482 73.824 30.6687C74.1185 30.823 74.5412 31.1953 74.7943 31.8053C75.3007 33.026 77.0259 36.2798 77.7591 37.5741C79.2678 40.2381 81.8253 42.6788 82.7601 43.3832C83.747 44.1267 85.5226 45.1269 87.2805 45.4987C88.6718 45.7928 96.6261 47.2827 101.502 47.8093C100.5 48.9465 99.8606 50.2299 99.4619 51.3072H99.4608Z" fill="black"/>
<path d="M79.8503 76.0961C77.3341 76.4926 75.1334 76.5916 73.1224 76.3988C73.0989 76.3965 73.076 76.3988 73.0525 76.3994C73.0181 74.1659 72.313 72.1125 71.742 70.4614C71.3382 69.2932 70.9888 68.2837 71.0151 67.6225C71.03 67.2415 70.735 66.9204 70.3558 66.9048C69.9812 66.8916 69.6565 67.1863 69.6416 67.5672C69.6049 68.4898 69.9933 69.6137 70.4435 70.9149C71.2872 73.355 72.3377 76.3913 71.16 79.5151C71.0254 79.8719 71.2041 80.2702 71.5592 80.4054C71.6394 80.4359 71.7219 80.4503 71.8027 80.4503C72.0805 80.4503 72.3417 80.2805 72.4453 80.0043C72.7294 79.251 72.8961 78.5051 72.9832 77.772L72.9918 77.7737C75.1185 77.9768 77.4314 77.8744 80.0628 77.4606C81.4387 77.2442 81.8831 77.4819 82.0246 77.6436C82.1604 77.7978 82.3494 77.8767 82.5401 77.8767C82.7016 77.8767 82.8643 77.8197 82.9949 77.7035C83.2796 77.4508 83.3059 77.0146 83.0545 76.7286C82.1758 75.7301 80.4254 76.0052 79.8498 76.0955L79.8503 76.0961Z" fill="black"/>
<path d="M33.6345 75.5902C32.6551 75.6541 31.6418 75.7203 30.7901 75.4227C30.4304 75.2973 30.0397 75.4878 29.9149 75.848C29.79 76.2083 29.9796 76.6019 30.3382 76.7274C31.4528 77.1164 32.6591 77.0382 33.7233 76.9685C34.8529 76.8949 35.8283 76.8316 36.3352 77.3046C36.4675 77.4283 36.6354 77.4894 36.8026 77.4894C36.9871 77.4894 37.1709 77.4151 37.3067 77.2684C37.565 76.9887 37.549 76.5519 37.2706 76.2923C36.3295 75.4147 34.9594 75.5039 33.634 75.5902H33.6345Z" fill="black"/>
<path d="M66.1338 45.9614C66.1338 46.8523 66.8527 47.5745 67.7394 47.5745C68.626 47.5745 69.3449 46.8523 69.3449 45.9614C69.3449 45.0705 68.626 44.3483 67.7394 44.3483C66.8527 44.3483 66.1338 45.0705 66.1338 45.9614Z" fill="black"/>
<path d="M53.9908 43.3043C53.1041 43.3043 52.3853 44.0266 52.3853 44.9174C52.3853 45.8083 53.1041 46.5306 53.9908 46.5306C54.8774 46.5306 55.5963 45.8083 55.5963 44.9174C55.5963 44.0266 54.8774 43.3043 53.9908 43.3043Z" fill="black"/>
<path d="M59.092 55.8513C58.5433 56.4544 58.2013 57.2802 58.128 58.1768C57.9728 60.0777 59.0903 61.7271 60.6196 61.8531C60.6821 61.8583 60.7434 61.8606 60.8052 61.8606C62.2578 61.8606 63.5248 60.457 63.6737 58.6338C63.747 57.7372 63.5431 56.8659 63.0992 56.1816C62.629 55.4553 61.9479 55.0208 61.1821 54.9575C60.418 54.8948 59.674 55.2119 59.092 55.8513V55.8513ZM61.0979 55.9899C61.539 56.0262 61.9428 56.295 62.2355 56.7467C62.5551 57.2399 62.7006 57.8799 62.6462 58.5492C62.5373 59.8809 61.669 60.9001 60.7044 60.8207C59.7421 60.7412 59.0479 59.5931 59.1562 58.2614C59.2106 57.5921 59.4586 56.9844 59.8532 56.5499C60.1866 56.1833 60.5887 55.9853 60.9954 55.9853C61.0297 55.9853 61.0635 55.9865 61.0979 55.9894V55.9899Z" fill="black"/>
<path d="M57.144 39.4053C57.219 39.1291 57.0569 38.8448 56.782 38.7694C54.9141 38.2578 51.5559 38.9806 50.1273 40.2018C49.9102 40.3871 49.8845 40.714 50.0689 40.9321C50.1709 41.0524 50.3158 41.1146 50.4613 41.1146C50.5793 41.1146 50.6984 41.0737 50.7952 40.9908C51.9723 39.9849 54.9622 39.3455 56.5104 39.7691C56.7837 39.8445 57.0683 39.6816 57.1434 39.4053H57.144Z" fill="black"/>
<path d="M70.0981 42.6103C70.2 42.7375 70.349 42.8031 70.4996 42.8031C70.613 42.8031 70.7276 42.7657 70.8227 42.6886C71.0443 42.5091 71.0793 42.1833 70.9005 41.9606C69.6719 40.4281 67.6832 39.4762 65.71 39.4762C65.4253 39.4762 65.1945 39.7081 65.1945 39.9941C65.1945 40.2802 65.4253 40.5121 65.71 40.5121C67.3791 40.5121 69.0602 41.3161 70.0975 42.6103H70.0981Z" fill="black"/>
<path d="M62.0716 51.8643C62.1163 51.8643 62.1621 51.8586 62.2074 51.8459C62.4823 51.7705 62.6438 51.4862 62.5694 51.21C62.3649 50.4561 62.1312 48.3722 62.1312 47.2983C62.1312 47.0123 61.9004 46.7804 61.6157 46.7804C61.331 46.7804 61.1002 47.0123 61.1002 47.2983C61.1002 48.3728 61.3236 50.558 61.5745 51.4828C61.6369 51.7136 61.8448 51.8649 62.0716 51.8649V51.8643Z" fill="black"/>
<path d="M15.023 86.9662C14.5356 86.0822 14.047 85.1977 13.5664 84.316C11.1137 79.8191 7.63465 73.0869 5.14761 68.2314C2.2539 62.5829 1.04532 58.6011 1.452 56.058C1.86441 53.4809 3.31527 52.0962 6.21185 50.1401C8.2481 48.7653 11.0313 47.6902 14.716 46.8563C15.873 47.1263 18.013 48.7658 19.1889 50.6109C20.0521 51.9668 21.1782 53.9355 21.2005 55.6505C20.8104 56.0603 20.3024 56.4833 19.8092 56.8936C19.367 57.2613 18.9495 57.6084 18.639 57.9306C17.6515 58.9544 17.7781 60.3443 18.1865 61.2236C18.5124 61.9257 19.2576 62.8949 20.1208 64.0171C21.1472 65.3522 22.3106 66.8646 22.9675 68.1877C24.5358 71.3437 26.7027 75.3641 28.118 76.5969C28.405 76.8466 28.8392 76.8156 29.0878 76.5272C29.3364 76.2389 29.3054 75.8027 29.0185 75.5529C28.0619 74.7202 26.3046 71.8105 24.1973 67.5702C23.4802 66.1269 22.2733 64.5575 21.2085 63.1728C20.4295 62.16 19.6935 61.2029 19.4323 60.6395C19.2519 60.2516 19.0904 59.4471 19.6259 58.8917C19.8848 58.6235 20.2737 58.2995 20.6861 57.9571C21.2658 57.4748 21.9234 56.9281 22.4005 56.3779C22.5019 56.2611 22.5614 56.1132 22.5689 55.9584C22.5769 55.7967 22.5752 55.6344 22.5683 55.4715C23.5736 54.4909 25.139 53.577 26.2897 53.0418C28.1656 52.1699 29.8725 51.469 31.7547 51.7216C32.2598 51.7895 32.7461 51.8712 33.217 51.9506C34.6667 52.1947 36.042 52.4208 37.5822 52.1716C37.1308 54.7268 37.5209 58.7214 37.8222 61.0418C37.8754 61.4521 37.9367 61.8923 37.9997 62.3476C38.2695 64.2927 38.576 66.498 38.4797 67.8286C38.289 70.4615 37.1165 72.3405 34.7898 73.7436C34.4645 73.9398 34.3585 74.3639 34.5539 74.6908C34.6827 74.9066 34.9101 75.0263 35.1438 75.0263C35.2641 75.0263 35.3861 74.9947 35.4967 74.9279C38.2036 73.2958 39.6276 71.0065 39.8504 67.9287C39.9569 66.452 39.6408 64.1702 39.3612 62.1565C39.2988 61.7053 39.2381 61.2691 39.1854 60.8628C38.6464 56.7117 38.6069 53.4343 39.0697 51.8154C39.3956 51.7055 39.6883 51.58 39.969 51.4367C39.7885 52.9204 39.7066 54.8903 39.9575 56.0257C40.0961 56.653 40.3688 57.5347 41.1346 57.9565C41.4158 58.1113 41.7291 58.189 42.0797 58.189C42.3157 58.189 42.57 58.1505 42.8409 58.0808C43.1405 59.2474 43.6359 60.4162 44.3657 61.6794C44.6486 62.1692 44.9625 62.6543 45.2661 63.1233C45.8893 64.0867 46.4781 64.9966 46.658 65.72C47.0268 67.203 47.0503 69.4739 46.7204 71.7943C46.4271 73.8586 45.7335 75.9097 44.8646 77.2811C44.6607 77.6028 44.7552 78.0298 45.0754 78.2347C45.1899 78.3078 45.3176 78.3429 45.4437 78.3429C45.6711 78.3429 45.8933 78.2295 46.0245 78.0229C46.9925 76.4938 47.7612 74.2385 48.0813 71.9894C48.4347 69.501 48.4015 67.0321 47.992 65.385C47.756 64.4372 47.1065 63.433 46.4185 62.37C46.1241 61.9154 45.8206 61.4452 45.5548 60.9854C44.4218 59.0247 43.9166 57.4058 43.8656 55.5722C43.8548 55.1913 43.5512 54.8903 43.1594 54.9012C42.7796 54.9116 42.4806 55.2292 42.4915 55.6108C42.5018 55.9866 42.5362 56.3555 42.5826 56.7221C42.3008 56.8044 41.9892 56.8521 41.7962 56.7457C41.5917 56.6329 41.425 56.2899 41.3001 55.7259C41.0533 54.6089 41.1993 52.0445 41.4903 50.5838C41.4995 50.5372 41.504 50.4906 41.504 50.4446C41.6913 50.3059 41.8872 50.1585 42.098 49.9991L42.3168 49.834C42.3271 49.8259 42.3352 49.8161 42.3449 49.8081C42.3632 49.7925 42.3804 49.777 42.3964 49.7603C42.4119 49.7442 42.4262 49.7275 42.44 49.7102C42.4543 49.6924 42.4675 49.674 42.4795 49.655C42.4915 49.636 42.5024 49.617 42.5127 49.5969C42.5225 49.5773 42.5316 49.5577 42.5402 49.537C42.5482 49.5163 42.5557 49.4956 42.5614 49.4743C42.5677 49.453 42.5729 49.4317 42.5769 49.4104C42.5809 49.3891 42.5837 49.3672 42.586 49.3454C42.5883 49.3235 42.5895 49.3011 42.5889 49.2786C42.5889 49.2567 42.5878 49.2349 42.5855 49.2124C42.5832 49.1906 42.5803 49.1687 42.5757 49.1468C42.5711 49.1244 42.5654 49.1019 42.5585 49.0801C42.5522 49.0593 42.5454 49.0392 42.5368 49.0185C42.5276 48.996 42.5167 48.9742 42.5047 48.9523C42.499 48.9414 42.4955 48.9299 42.4887 48.9189C41.8019 47.7973 41.0109 45.0107 41.1627 43.7797C41.3551 43.1081 41.4817 42.4417 41.5974 41.8115C41.669 41.4208 41.7366 41.0513 41.8168 40.7095C42.1897 39.1159 43.483 34.3698 44.9648 31.5775C46.4357 28.8065 48.736 26.4366 51.8022 24.534C54.9754 22.5646 59.4643 22.3431 61.9702 23.2662C62.3259 23.3968 62.7217 23.2138 62.8523 22.8553C62.9829 22.4973 62.8002 22.1002 62.4434 21.969C59.1791 20.7668 54.2938 21.3636 51.0799 23.3583C49.6995 24.2146 48.4651 25.1636 47.378 26.1972C46.7078 25.5745 46.1763 25.7178 45.4099 25.9975C44.6859 26.2616 44.1159 26.6259 43.6256 27.1433C43.5214 27.0926 43.404 27.0644 43.278 27.0731C42.3529 27.1358 39.9426 27.8276 39.4747 28.8853C39.426 28.9947 39.3372 29.1921 39.2221 29.4482C38.313 31.4676 37.439 33.4358 37.1984 34.1603L37.0919 34.4866C36.7906 35.4143 36.5053 36.2908 35.7246 37.3848C34.6524 38.8869 34.2033 39.2143 32.7164 40.3009C31.7329 41.0197 29.6468 41.6585 27.8059 42.2219C26.9392 42.4872 26.1213 42.7375 25.4471 42.9861C24.1423 43.4667 21.6857 44.201 19.5188 44.8484C18.1991 45.2427 16.9533 45.615 16.0603 45.9016C15.6262 45.6841 15.2034 45.5293 14.8128 45.4671C14.728 45.4539 14.641 45.4562 14.5562 45.4752C10.6315 46.3511 7.65126 47.5015 5.44489 48.992C2.74191 50.8175 0.631771 52.4807 0.0950709 55.837C-0.366022 58.7208 0.851148 62.8592 3.92586 68.8616C6.41691 73.7246 9.90231 80.4682 12.3618 84.9784C12.8436 85.8612 13.3327 86.748 13.8213 87.6343C16.1749 91.901 18.5892 96.2932 19.9776 99.9983H21.4439C20.0521 96.0935 17.502 91.4585 15.0236 86.9644L15.023 86.9662ZM19.91 46.1744C22.0963 45.5212 24.5748 44.7805 25.9197 44.285C26.5578 44.0497 27.3585 43.8045 28.2062 43.5449C30.2454 42.9205 32.3544 42.2748 33.5246 41.4196C35.1662 40.2197 35.6908 39.8025 36.841 38.1917C37.746 36.9239 38.0925 35.858 38.3984 34.9171L38.5026 34.5994C38.7535 33.8432 39.9598 31.1637 40.4747 30.0196C40.5916 29.7595 40.6815 29.5598 40.7228 29.4648C40.8745 29.2329 41.7108 28.845 42.503 28.6217C41.4072 30.1485 39.5417 32.8275 38.8326 34.4607C38.7186 34.7226 38.8377 35.0282 39.0989 35.1427C39.1659 35.172 39.2358 35.1859 39.3045 35.1859C39.5033 35.1859 39.6929 35.0696 39.7771 34.8751C40.3155 33.6366 41.7034 31.4739 43.9029 28.4479L44.0203 28.2862C44.4865 27.6422 45.0072 27.2498 45.7627 26.9741C46.3217 26.7698 46.4432 26.7301 46.6517 26.9275C45.4872 28.1539 44.5169 29.4902 43.7522 30.9301C42.2005 33.8524 40.8631 38.7534 40.4788 40.3958C40.3911 40.7705 40.3207 41.1561 40.2456 41.5641C39.9953 42.9303 39.7364 44.3426 38.8108 45.5385C38.5777 45.8394 38.6315 46.2734 38.9311 46.5076C39.0565 46.6054 39.2049 46.6532 39.3527 46.6532C39.5577 46.6532 39.7605 46.5617 39.8957 46.3867C39.9495 46.3171 39.993 46.2446 40.0434 46.1738C40.2783 47.2189 40.638 48.2928 41.0183 49.087C39.6843 50.0912 39.0897 50.4895 37.5421 50.7835C36.1542 51.0477 34.8981 50.8359 33.4438 50.5902C32.9621 50.509 32.4638 50.425 31.9357 50.3542C29.688 50.0532 27.7096 50.8618 25.7118 51.7901C24.6922 52.2637 23.3691 53.0199 22.2997 53.8774C21.889 52.4289 21.0842 51.027 20.3453 49.8673C19.6958 48.8476 18.6654 47.7351 17.569 46.8788C18.2707 46.6641 19.0749 46.4242 19.9089 46.175L19.91 46.1744Z" fill="black"/>
<path d="M46.914 85.9234C46.7966 85.5608 46.4094 85.3628 46.0474 85.4802C45.6865 85.5982 45.4889 85.9878 45.6063 86.351C46.9346 90.4502 47.7113 95.8507 47.6288 100H49.0018C49.0791 95.6999 48.2795 90.14 46.9134 85.9234H46.914Z" fill="black"/>
<path d="M71.2127 81.728C71.0014 81.4115 70.5746 81.3263 70.259 81.5381C69.9434 81.7504 69.8592 82.1792 70.07 82.4963C72.1212 85.574 75.2835 94.7636 76.4285 100H77.8272C76.7212 94.8067 73.5394 85.2201 71.2121 81.728H71.2127Z" fill="black"/>
<path d="M87.2742 85.7157C87.0634 85.3986 86.6367 85.3122 86.3211 85.524C86.0055 85.7358 85.9201 86.1645 86.1303 86.4816C88.2244 89.6377 91.054 95.6211 92.7523 99.9995H94.2238C92.514 95.4956 89.492 89.0581 87.2736 85.7157H87.2742Z" fill="black"/>
<path d="M45.8005 17.5722C45.419 17.5722 45.0336 17.4508 44.7059 17.2177C44.2534 16.896 43.9854 16.4114 43.9705 15.89C43.9562 15.3882 44.1578 14.899 44.5381 14.5123C44.9471 14.0968 45.5061 13.8545 46.052 13.8735C47.0864 13.8919 47.9914 14.7603 47.988 15.7318C47.9857 16.5461 47.429 17.1377 46.3321 17.4905C46.1602 17.5457 45.9804 17.5728 45.7999 17.5728L45.8005 17.5722ZM46.0193 14.9088C45.7553 14.9088 45.4763 15.032 45.2713 15.2409C45.0908 15.4244 44.9946 15.6449 45.0003 15.8607C45.0061 16.054 45.116 16.2405 45.3016 16.3729C45.517 16.5259 45.7919 16.576 46.0182 16.5035C46.9553 16.2025 46.9564 15.8457 46.957 15.7289C46.9581 15.3157 46.5096 14.918 46.0336 14.9094H46.0193V14.9088Z" fill="black"/>
<path d="M44.1698 13.1892C44.0117 13.1892 43.8559 13.1236 43.7448 12.9998C42.7132 11.854 41.2188 10.1178 40.5034 9.19466C40.2182 8.82635 39.9409 8.48162 39.674 8.15014C38.352 6.50767 37.211 5.0885 36.8508 2.89643C36.6995 1.97391 36.9607 0.798745 37.8864 0.253174C38.4156 -0.0581693 39.505 -0.356276 40.8585 1.1521C41.6622 2.04872 42.1811 3.2636 42.6044 4.33172C43.5065 6.60953 44.3245 10.0844 44.7346 12.5176C44.777 12.7696 44.6492 13.0194 44.4201 13.1316C44.3405 13.1702 44.2546 13.1892 44.1704 13.1892H44.1698ZM41.4073 8.48738C41.822 9.02259 42.5082 9.84152 43.2098 10.6553C42.7785 8.63125 42.18 6.37531 41.5396 4.75759C41.153 3.78212 40.6844 2.67774 40.0074 1.92269C39.5835 1.44963 38.9718 0.948374 38.466 1.24648C38.0318 1.502 37.8938 2.17591 37.9814 2.70882C38.2925 4.60105 39.2954 5.84815 40.5653 7.42674C40.8362 7.7634 41.118 8.11388 41.4078 8.48795L41.4073 8.48738Z" fill="black"/>
</g>
<defs>
<clipPath id="clip0_3090_5363">
<rect width="123" height="100" fill="white"/>
</clipPath>
</defs>
</svg>