<svg width="100" height="105" viewBox="0 0 100 105" fill="none" xmlns="http://www.w3.org/2000/svg">
<g clip-path="url(#clip0_2769_4606)">
<path d="M19.4746 104.056H54.2217C54.2217 104.056 55.2919 101.876 55.426 100.427C55.5298 99.303 54.7568 96.9921 54.0431 95.386C53.3294 93.78 52.0259 91.4879 50.8997 88.2401C49.8079 85.0907 48.303 79.2846 47.4862 77.4218C46.5716 75.3366 45.5681 73.6975 44.2411 72.2808C44.4972 73.9758 43.9958 77.254 41.8546 77.7897C39.7135 78.3249 38.2348 76.7202 36.8202 75.2806C34.8967 73.3235 33.0683 70.8446 31.4508 68.5566C30.0793 66.6163 28.7563 64.7919 27.771 63.8065C26.2323 62.2679 24.7604 61.8325 22.4852 62.5018C19.6815 63.3267 15.594 65.3674 12.6501 68.0882C9.15165 71.3211 6.22736 77.9009 5.51364 80.5772C4.79992 83.2535 3.93389 87.0263 3.39877 89.3454C8.05984 88.3169 13.1711 90.5228 15.6695 91.9502C18.1678 93.3776 20.501 95.1185 21.3934 96.0101C21.3934 96.0101 20.1216 101.204 19.4753 104.055L19.4746 104.056Z" fill="#DEE44C"/>
<path d="M53.6245 16.1795C50.9415 13.3287 44.5868 12.5833 39.332 13.4217C34.1567 14.2473 30.6481 16.5151 27.1078 20.4658C23.9261 24.0162 21.3313 29.3358 20.2874 33.9571C19.3789 37.9792 19.0237 41.1785 19.943 42.9018C20.6136 44.1594 21.3408 44.9985 22.4865 45.6967C23.1295 48.3804 25.0024 52.5171 28.2448 53.8589C28.5804 52.573 28.4126 50.4487 28.3007 49.5544C26.7358 47.6538 25.3164 45.0591 24.7227 42.9018C24.108 40.6656 23.9402 38.5972 24.164 37.4791C24.4248 36.1764 25.2821 35.6905 26.2883 35.6905C27.2945 35.6905 28.5245 36.6967 29.0272 37.5351C29.5307 38.3735 30.1797 39.7052 30.5928 40.5537C32.3815 39.8831 34.8138 37.5068 35.4844 36.2768C38.2233 35.9971 43.6743 33.4536 45.7986 31.944C44.3449 34.1242 41.3545 36.1926 38.8103 37.6739C41.4934 37.1711 45.0154 35.6891 46.5251 34.571C48.0348 33.4529 50.1591 31.3286 50.6618 30.714C51.1646 32.2796 49.6556 34.9067 48.985 35.801C51.5285 35.6615 53.8004 35.0623 55.2461 34.571C56.7274 34.0683 57.9298 33.2851 58.8241 32.5027C59.7184 31.7202 60.7806 30.2665 61.0043 29.6518C61.8987 31.4405 61.654 33.3714 61.284 34.348C60.6694 35.9695 59.3835 37.1711 58.2094 38.0379C59.775 38.4011 61.5637 37.8141 62.2343 37.2554C62.9049 36.6967 63.6321 35.7181 63.9111 35.0475C64.4422 36.5848 63.6873 40.5537 62.9049 42.8182C64.6936 42.1193 65.7557 41.0012 66.706 39.5758C67.5673 38.2832 68.4387 35.7188 68.3269 33.4267C68.1577 29.9639 66.2585 25.4881 63.9387 22.665C61.7659 20.021 57.1466 15.6767 53.6245 16.1802V16.1795Z" fill="#595757"/>
<path d="M57.4492 15.7111C61.9472 18.0436 67.814 25.8891 68.2473 31.7209C68.5938 36.3799 66.4789 39.8232 64.5628 41.3557C64.2144 41.6347 64.1578 42.1436 64.4368 42.4927C64.5965 42.6922 64.8317 42.796 65.069 42.796C65.2462 42.796 65.4241 42.738 65.5738 42.6187C67.7971 40.8401 70.2537 36.8874 69.8608 31.6002C69.3776 25.1033 63.0835 16.8096 58.194 14.2742C57.7977 14.0687 57.3097 14.2237 57.1042 14.62C56.8986 15.0162 57.053 15.5042 57.4499 15.7097L57.4492 15.7111Z" fill="black"/>
<path d="M60.4557 38.7192C60.5413 38.7192 60.6283 38.7057 60.7138 38.6768C62.2505 38.1592 63.5094 36.9737 64.2589 35.3393C65.3635 32.9293 65.2718 29.761 64.0061 26.6467C63.8383 26.2329 63.3665 26.0347 62.9527 26.2019C62.5389 26.3704 62.3401 26.8414 62.5079 27.2559C63.6058 29.9585 63.7082 32.6597 62.789 34.6661C62.2276 35.8906 61.3076 36.7708 60.1983 37.1449C59.775 37.2871 59.5472 37.746 59.6901 38.1693C59.804 38.5069 60.1188 38.7199 60.4564 38.7199L60.4557 38.7192Z" fill="black"/>
<path d="M61.2456 28.1112C60.8359 27.9339 60.36 28.124 60.1828 28.5338C58.6024 32.2007 55.7792 34.0831 50.7441 34.8292C50.3019 34.8945 49.9973 35.3063 50.0627 35.7478C50.122 36.1494 50.4677 36.4379 50.862 36.4379C50.9018 36.4379 50.9415 36.4352 50.9813 36.4291C56.6412 35.5907 59.8377 33.4206 61.6682 29.1733C61.8454 28.7636 61.6561 28.2878 61.2456 28.1105V28.1112Z" fill="black"/>
<path d="M53.7775 21.6291C52.4303 29.5426 45.0343 35.6965 38.6614 37.0747C38.2247 37.1691 37.9477 37.5998 38.042 38.0358C38.1243 38.4146 38.4592 38.674 38.8319 38.674C38.8885 38.674 38.9458 38.668 39.0038 38.6558C45.8067 37.1846 53.8557 30.8124 55.3728 21.9007C55.4476 21.4606 55.1517 21.0427 54.7109 20.9679C54.2729 20.8924 53.853 21.189 53.7782 21.6297L53.7775 21.6291Z" fill="black"/>
<path d="M38.0589 33.3882C38.2294 32.9751 38.0326 32.5027 37.6201 32.3322C37.2063 32.1617 36.7345 32.3584 36.564 32.7709C34.8603 36.8996 31.9319 39.6621 30.9055 39.7908C30.4627 39.8461 30.148 40.2505 30.2033 40.6932C30.2545 41.1023 30.6029 41.4016 31.0046 41.4016C31.0376 41.4016 31.072 41.3995 31.1057 41.3955C32.9254 41.1684 36.2284 37.8242 38.0589 33.3882Z" fill="black"/>
<path d="M24.2347 35.8933C23.3168 37.1111 23.2575 39.0696 23.5089 40.4971C23.9058 42.7589 24.7388 45.1824 25.7376 46.9792C26.7182 48.7443 27.9165 50.0106 28.7118 50.6064C29.0724 50.8767 29.8157 51.434 30.7417 51.434C31.26 51.434 31.8349 51.2595 32.4327 50.7621C32.7757 50.4763 32.8222 49.9661 32.5365 49.6231C32.2507 49.2801 31.7406 49.2329 31.3975 49.5193C30.8624 49.9648 30.4937 49.9203 29.683 49.3124C29.0521 48.8393 28.0102 47.738 27.1523 46.1933C26.2498 44.5698 25.4647 42.2797 25.1028 40.2174C24.8655 38.8654 25.0361 37.5189 25.5274 36.8672C25.7066 36.6293 25.9115 36.5059 26.1723 36.4783C27.13 36.3792 27.9496 37.2837 29.005 39.6048C29.1896 40.0112 29.6688 40.1911 30.0759 40.0064C30.4823 39.8218 30.6622 39.3419 30.4776 38.9355C29.7895 37.4225 28.5062 34.606 26.0025 34.8696C25.2955 34.9437 24.6842 35.2982 24.2354 35.8933H24.2347Z" fill="black"/>
<path d="M21.6488 46.5385C22.1677 48.6978 23.5749 51.1328 25.1062 52.4726C25.2598 52.6067 25.4492 52.6728 25.6379 52.6728C25.863 52.6728 26.0868 52.5798 26.2472 52.3965C26.541 52.0602 26.5073 51.5493 26.171 51.2555C24.8042 50.0599 23.5042 47.7192 23.1463 45.8119C23.0951 45.5383 22.9064 45.3105 22.6476 45.2081C19.6161 44.0152 18.6874 40.7182 19.7267 34.8312C20.5731 30.0326 22.7547 24.9935 26.0349 20.2583C29.1088 15.8203 33.2071 13.3071 38.9317 12.3494C43.9068 11.5171 49.3213 12.1189 53.4149 13.9615C53.8227 14.1455 54.3005 13.9635 54.4845 13.5558C54.6678 13.1487 54.4865 12.6696 54.0788 12.4862C49.7055 10.5183 43.9425 9.87062 38.6648 10.7542C32.4806 11.7894 28.0453 14.5169 24.7052 19.3377C21.2929 24.2629 19.0204 29.5238 18.1334 34.5502C17.7109 36.9461 16.4459 44.1156 21.6481 46.5391L21.6488 46.5385Z" fill="black"/>
<path d="M46.7704 43.7294C46.7704 44.623 47.437 45.3475 48.2592 45.3475C49.0814 45.3475 49.7479 44.623 49.7479 43.7294C49.7479 42.8357 49.0814 42.1112 48.2592 42.1112C47.437 42.1112 46.7704 42.8357 46.7704 43.7294Z" fill="black"/>
<path d="M59.304 47.8607C60.019 48.0313 60.7691 47.4543 60.9794 46.5715C61.1897 45.6893 60.7806 44.8354 60.0655 44.6648C59.3505 44.4943 58.6004 45.0719 58.3901 45.9541C58.1798 46.8363 58.5889 47.6902 59.3046 47.8607H59.304Z" fill="black"/>
<path d="M26.4878 33.4631C26.514 33.4631 26.541 33.4618 26.568 33.4577C31.5545 32.8013 36.649 29.5171 39.2733 26.7438C40.2998 25.6587 41.335 24.3755 42.3371 23.1348C43.9978 21.0772 45.715 18.9502 47.476 17.5948C47.7416 17.3906 47.7915 17.0099 47.5872 16.7443C47.383 16.4781 47.0023 16.4289 46.7367 16.6331C44.8618 18.0754 43.0987 20.2603 41.3936 22.3725C40.3611 23.6517 39.3859 24.8601 38.3925 25.9101C35.9117 28.5331 31.1037 31.6374 26.4103 32.2547C26.078 32.2985 25.8441 32.6031 25.8879 32.9354C25.9284 33.2407 26.1885 33.4624 26.4884 33.4624L26.4878 33.4631Z" fill="black"/>
<path d="M51.2866 39.8197C51.6162 39.8871 51.9349 39.6728 52.0003 39.3439C52.0657 39.0157 51.8527 38.6956 51.5245 38.6302C49.5282 38.2299 46.7266 38.6491 44.5511 39.6708C44.2478 39.813 44.1177 40.1742 44.2599 40.4775C44.3631 40.6972 44.5814 40.8266 44.8092 40.8266C44.8955 40.8266 44.9831 40.8078 45.0667 40.7687C47.3291 39.7058 49.8207 39.5259 51.2859 39.8191L51.2866 39.8197Z" fill="black"/>
<path d="M56.195 47.3297C55.8654 47.2744 55.552 47.4975 55.4968 47.8284C55.3539 48.6864 55.3856 50.7972 55.6956 51.7785C55.7771 52.0373 56.0164 52.2024 56.2738 52.2024C56.3345 52.2024 56.3958 52.1936 56.4565 52.1741C56.7759 52.0737 56.9532 51.7326 56.8521 51.4132C56.6284 50.7035 56.5663 48.7902 56.6931 48.0279C56.7483 47.6977 56.5252 47.385 56.1943 47.3297H56.195Z" fill="black"/>
<path d="M4.60177 98.9081C5.14834 95.5976 5.71312 92.1827 6.2105 90.0038C7.17897 90.0085 8.11037 90.0961 8.8497 90.2363C12.4324 90.9143 16.9088 93.5104 20.1795 96.1839C20.1216 96.2709 20.0798 96.3706 20.0589 96.4805C19.8412 97.6249 19.1807 100.472 18.5985 102.983C18.5135 103.351 18.43 103.71 18.3504 104.056H20.0111C20.065 103.824 20.1189 103.589 20.1748 103.349C20.6803 101.167 21.2444 98.7362 21.5328 97.3553C21.979 97.7677 22.3908 98.1762 22.7554 98.5724C22.9172 98.7477 23.1375 98.8366 23.3586 98.8366C23.5567 98.8366 23.7555 98.7652 23.9133 98.6203C24.0844 98.4626 24.1721 98.2489 24.1761 98.0333C24.9464 93.5373 25.7916 86.9204 24.4302 80.8825C22.8572 73.905 19.6815 70.0621 15.4875 70.0621C15.0406 70.0621 14.6787 70.4241 14.6787 70.8709C14.6787 71.3177 15.0406 71.6796 15.4875 71.6796C20.0205 71.6796 22.0471 77.6684 22.8518 81.2383C24.0919 86.7385 23.3633 92.8849 22.8214 96.3187C19.3189 93.011 13.686 89.4835 9.15433 88.6262C7.83068 88.3755 4.46563 88.0803 1.94369 88.9854C2.95597 84.0622 4.09698 80.2726 5.86071 75.9154C8.06994 70.4571 12.1177 66.8197 13.7561 65.5096C15.9902 63.7223 18.8364 62.1688 21.3698 61.3547C24.1208 60.4698 26.0665 60.5398 27.3174 61.5676C29.0515 62.9924 30.764 66.0413 32.1402 68.4912C32.6524 69.403 33.1363 70.2643 33.5838 70.9814C36.7393 76.0388 39.4573 78.3808 41.6585 77.938C43.1236 77.6448 44.0759 76.2201 44.4891 73.7042C44.5073 73.591 44.5019 73.475 44.4722 73.3645C44.4109 73.1354 44.3644 72.8537 44.33 72.5409C46.7603 75.693 48.2423 78.6652 49.8012 83.3424C51.0588 87.1139 52.6945 90.8159 54.1785 93.2462C56.5711 97.1652 57.2005 100.016 56.1606 102.218C55.8755 102.822 55.6538 103.438 55.4739 104.057H57.1736C57.303 103.668 57.4465 103.283 57.6231 102.909C58.4062 101.25 58.4696 99.3704 57.803 97.1646C57.8367 97.1686 57.8698 97.1753 57.9028 97.1753C58.2088 97.1753 58.5013 97.0014 58.6374 96.7049C61.2847 90.9682 64.2184 76.7498 64.7697 73.4434C65.2927 70.3041 65.3459 67.4924 64.9052 66.2799C64.7165 65.7603 64.273 65.2016 63.7595 64.5553C63.4184 64.126 63.0343 63.638 62.7344 63.1602C63.2897 63.2889 63.8902 63.2087 64.3343 63.024C65.0508 62.7255 65.6357 61.8662 66.1062 61.1761C66.1769 61.0723 66.2457 60.9712 66.307 60.8842C66.9237 60.8505 67.3759 60.8148 67.7668 60.6996C67.973 61.2765 68.3039 61.7658 68.7555 62.1607C69.0069 62.3811 69.3904 62.3555 69.6114 62.1034C69.8318 61.8514 69.8062 61.4686 69.5541 61.2475C69.1262 60.8728 68.8694 60.3774 68.7703 59.7338C68.738 59.5228 68.5971 59.3449 68.4003 59.2647C68.2028 59.1838 67.9777 59.2135 67.8072 59.3409C67.4622 59.5997 67.14 59.6266 65.9633 59.6886C65.7975 59.6974 65.6425 59.7736 65.5347 59.8996C65.4086 60.0465 65.2678 60.2541 65.104 60.494C64.7852 60.9617 64.2521 61.7455 63.8686 61.9053C63.5505 62.038 63.0572 62.0758 62.7674 61.8857C62.7061 61.8453 62.5295 61.7247 62.5005 61.3203C62.6865 60.7441 63.0525 59.9589 63.3349 59.4501C63.5761 59.0154 64.3977 58.148 65.2051 57.4747C65.7153 57.0494 67.382 55.7453 68.9476 55.4077C69.0406 55.467 69.1437 55.5101 69.2562 55.5276C70.5819 55.7305 71.2868 56.3317 71.5409 57.4754C71.5922 57.7065 71.6515 57.9943 71.7182 58.3158C71.9891 59.6246 72.3605 61.418 72.7925 62.4438C73.2083 63.4318 73.3276 66.2974 72.6415 68.2324C72.1279 69.6793 72.1974 72.5443 72.2782 75.8608C72.2964 76.6002 72.3146 77.3543 72.3268 78.1085C72.3921 82.2418 71.3266 97.2663 69.7199 103.694C69.6903 103.812 69.6539 103.935 69.6161 104.058H71.2963C72.9589 97.3775 74.0123 82.3915 73.9443 78.0829C73.9321 77.324 73.9139 76.5651 73.8957 75.8218C73.8256 72.9291 73.7529 69.9388 74.166 68.7735C74.9633 66.5259 74.8858 63.2471 74.2833 61.8163C73.9119 60.9361 73.5453 59.1623 73.302 57.9883C73.2339 57.658 73.1726 57.3622 73.1193 57.1249C72.874 56.019 72.1751 54.6623 70.2854 54.1029C70.255 53.6123 70.0704 53.0765 69.7381 52.5427C69.3533 51.924 68.7359 51.2737 68.0027 50.9859C67.8483 50.2546 67.3469 49.5295 66.586 48.9788C65.4356 48.1465 64.0365 47.9625 62.9157 48.4882C62.9062 48.4922 62.8961 48.4936 62.886 48.4976C62.8773 48.5017 62.8671 48.5071 62.8584 48.5111H62.8564L62.855 48.5131C62.7229 48.5731 62.578 48.6473 62.4237 48.7322C62.6447 47.9794 62.8247 47.2407 62.9655 46.4879C63.5007 43.633 63.8579 41.8073 64.306 40.5281C64.4536 40.1069 64.2312 39.6452 63.81 39.4976C63.3888 39.3501 62.9271 39.5725 62.7795 39.9937C62.5612 40.6171 62.3691 41.3281 62.1757 42.178C61.5118 41.5411 60.6923 41.0113 60.0183 40.7094C59.7117 40.5726 59.3538 40.7094 59.2163 41.0147C59.0795 41.3207 59.2163 41.6792 59.5216 41.816C60.3095 42.1692 61.3352 42.9058 61.8623 43.6546C61.7127 44.402 61.5543 45.2384 61.3757 46.1893C61.2173 47.0345 61.009 47.8614 60.7395 48.7173C60.6323 49.0584 60.7651 49.4142 61.0394 49.613C59.9462 50.3827 58.7992 51.3383 58.2378 51.9988C57.4506 52.9248 55.9861 54.6481 57.148 56.1982C57.1682 56.2252 57.1904 56.2461 57.2113 56.2717C56.8986 56.8789 56.565 57.4686 56.222 58.0287C56.1869 57.8393 56.0622 57.6695 55.8728 57.5852C54.6496 57.04 50.7474 56.2387 48.4061 56.5312C48.0738 56.573 47.838 56.8756 47.8797 57.2085C47.9209 57.5407 48.2241 57.7753 48.5571 57.7348C50.6268 57.4761 54.3207 58.2214 55.3795 58.6932C55.4597 58.7289 55.5433 58.7458 55.6262 58.7458C55.6801 58.7458 55.7327 58.737 55.7839 58.7229C54.6833 60.4158 53.5666 61.7712 52.9027 62.4343C51.4564 63.8806 49.9885 64.8235 47.5259 64.7345C45.5263 64.6604 41.9024 62.8246 40.3833 61.6431C40.0309 61.3688 39.5227 61.4322 39.2484 61.7846C38.9741 62.1371 39.0375 62.6453 39.3899 62.9196C40.3988 63.7041 42.1134 64.6826 43.8428 65.3943C42.6344 67.4883 42.416 71.6223 42.8655 73.6038C42.5737 75.2401 42.0352 76.2147 41.341 76.3535C40.2668 76.5672 38.0259 75.046 34.956 70.1268C34.528 69.4414 34.0536 68.5963 33.5508 67.7006C32.0337 64.9987 30.3138 61.937 28.3445 60.3195C28.1012 60.12 27.8417 59.9481 27.5681 59.7978C28.6565 57.4349 29.2813 54.6542 29.2813 52.075C29.2813 51.6281 28.9194 51.2662 28.4726 51.2662C28.0257 51.2662 27.6638 51.6281 27.6638 52.075C27.6638 54.4763 27.0714 57.069 26.0403 59.2512C24.6276 58.9722 22.9178 59.1609 20.8757 59.8167C18.1651 60.6881 15.1262 62.3447 12.7465 64.2486C11.0091 65.6383 6.71529 69.498 4.36251 75.3102C2.37435 80.2213 1.16123 84.418 0.0471847 90.2383C-0.0417772 90.4951 -0.00268788 90.7903 0.17928 91.0181C0.461667 91.3712 0.977242 91.4292 1.33039 91.1461C2.07309 90.5517 3.26127 90.2289 4.53572 90.0887C4.33758 91.0019 4.13135 92.0816 3.92175 93.2516C3.36169 92.8964 2.8906 92.4812 2.45859 91.963C2.24428 91.7055 1.86214 91.6705 1.60469 91.8855C1.34724 92.0998 1.3122 92.4826 1.52719 92.7394C2.1506 93.4881 2.83736 94.0536 3.698 94.528C3.46818 95.8564 3.23634 97.2596 3.00719 98.6459C2.67898 100.633 2.36424 102.534 2.08253 104.057H3.72698C3.99791 102.57 4.29445 100.778 4.60379 98.9094L4.60177 98.9081ZM66.7107 52.2536C66.8556 52.3769 67.0389 52.449 67.2317 52.449C67.4938 52.449 68.0013 52.8103 68.3646 53.3939C68.5937 53.7626 68.6638 54.0537 68.6699 54.2242C66.8927 54.6185 65.1498 55.9394 64.428 56.5406C63.651 57.1883 62.6447 58.1904 62.2734 58.859C61.9708 59.4036 61.5637 60.2689 61.344 60.9496L61.2672 61.0473C60.7543 61.7051 60.3728 62.1257 59.7474 62.0023C59.3828 61.9295 58.9387 61.695 58.8922 60.9914C58.8369 60.1638 58.9946 59.719 59.3417 58.9662C60.1821 57.1458 60.5845 56.5669 60.7496 56.3842C61.9977 55.0026 64.9456 52.4861 66.71 52.2529L66.7107 52.2536ZM59.4704 53.0435C60.2266 52.1538 62.5099 50.4319 63.5431 49.9729C63.5485 49.9702 63.5526 49.9669 63.5579 49.9642L63.5728 49.9588C64.2784 49.6097 65.102 49.8995 65.6371 50.2863C65.9592 50.5195 66.2106 50.8133 66.3394 51.087C63.9381 51.5668 60.8601 54.452 59.8492 55.5715L59.8384 55.5849C59.7649 55.5735 59.6888 55.5688 59.6113 55.5789C59.0047 55.6597 58.6987 55.5667 58.442 55.2244C58.1636 54.853 58.4521 54.2417 59.4704 53.0435ZM45.3295 66.0487C45.3511 66.0164 45.3666 65.982 45.3834 65.9477C46.1369 66.1768 46.8526 66.3251 47.4653 66.348C47.5906 66.3527 47.7133 66.3547 47.8353 66.3547C50.8478 66.3547 52.6635 64.9576 54.0458 63.5747C55.2616 62.3589 57.1587 59.8652 58.5788 57.1451C58.6718 57.1674 58.7621 57.1842 58.8504 57.1957C58.663 57.5623 58.4615 57.9775 58.2398 58.4573C57.8057 59.3975 57.6116 60.0283 57.6811 61.0709C57.7538 62.1674 58.4548 62.9796 59.5088 63.1905C59.6692 63.2229 59.8215 63.237 59.9671 63.237C60.3014 63.237 60.5952 63.1568 60.8574 63.0335C61.2085 63.9332 61.8811 64.7878 62.4924 65.5581C62.8644 66.0265 63.2857 66.5569 63.3847 66.8299C63.6732 67.6231 63.6934 70.0574 63.1738 73.1751C62.6393 76.3838 59.8391 89.9876 57.2922 95.7459C56.8595 94.7026 56.2853 93.5926 55.5581 92.401C54.1347 90.0692 52.5556 86.4911 51.3351 82.8289C49.4521 77.1798 47.6722 73.9124 44.3172 69.9543C44.4365 68.4453 44.7627 66.8979 45.3288 66.0481L45.3295 66.0487Z" fill="black"/>
<path d="M77.1604 23.581C76.5423 23.2426 75.644 22.7857 75.4788 21.5207C75.3144 20.255 76.8665 19.3681 78.141 19.426C79.4161 19.4847 80.458 20.8595 80.1662 22.1016C79.8737 23.3437 78.2798 24.1943 77.1604 23.581Z" stroke="black" stroke-width="1.5" stroke-miterlimit="10"/>
<path d="M83.2987 18.2089C82.889 17.5781 82.1901 17.1198 81.7534 16.1587C81.3166 15.1977 81.6799 13.9529 82.4583 13.2398C83.1026 12.6494 84.1129 12.58 84.9209 12.9143C85.7283 13.2493 86.3524 13.9259 86.808 14.672C87.3337 15.5326 87.6734 16.5577 87.4988 17.5511C87.3243 18.5445 86.7372 19.6916 85.7283 19.6916C84.6561 19.6916 83.6478 18.7447 83.2994 18.2089H83.2987Z" stroke="black" stroke-width="1.8" stroke-miterlimit="10"/>
<path d="M87.3337 10.3256C85.4621 8.69869 84.5482 5.69959 85.9892 3.6811C86.4185 3.07926 87.0163 2.61355 87.6565 2.24423C90.1818 0.787811 93.5085 0.846445 95.9812 2.3898C97.4558 3.31042 98.6366 4.75268 99.0679 6.4369C101.035 14.1099 91.2258 13.7102 87.3337 10.3256Z" stroke="black" stroke-width="2" stroke-miterlimit="10"/>
</g>
<defs>
<clipPath id="clip0_2769_4606">
<rect width="100" height="103.539" fill="white" transform="translate(0 0.516846)"/>
</clipPath>
</defs>
</svg>