<svg width="100" height="97" viewBox="0 0 100 97" fill="none" xmlns="http://www.w3.org/2000/svg">
<g clip-path="url(#clip0_2769_4563)">
<path d="M98.5945 95.3342H24.9181C24.5751 95.3342 24.2979 95.0572 24.2979 94.7159C24.2979 94.3747 24.5751 94.0977 24.9181 94.0977H98.5939C98.9369 94.0977 99.2141 94.3747 99.2141 94.7159C99.2141 95.0572 98.9369 95.3342 98.5939 95.3342H98.5945Z" fill="#DEE44C"/>
<path d="M98.3371 91.9491H25.5874C25.2444 91.9491 24.9671 91.6721 24.9671 91.3308C24.9671 90.9895 25.2444 90.7125 25.5874 90.7125H98.3371C98.6801 90.7125 98.9573 90.9895 98.9573 91.3308C98.9573 91.6721 98.6801 91.9491 98.3371 91.9491Z" fill="#DEE44C"/>
<path d="M97.857 88.5646H60.5555C60.2125 88.5646 59.9352 88.2876 59.9352 87.9463C59.9352 87.605 60.2125 87.328 60.5555 87.328H97.857C98.2 87.328 98.4773 87.605 98.4773 87.9463C98.4773 88.2876 98.2 88.5646 97.857 88.5646Z" fill="#DEE44C"/>
<path d="M48.6708 88.5646H26.3931C26.0501 88.5646 25.7728 88.2876 25.7728 87.9463C25.7728 87.605 26.0501 87.328 26.3931 87.328H48.6708C49.0138 87.328 49.291 87.605 49.291 87.9463C49.291 88.2876 49.0138 88.5646 48.6708 88.5646Z" fill="#DEE44C"/>
<path d="M97.1883 85.1795H64.4147C64.0717 85.1795 63.7944 84.9025 63.7944 84.5612C63.7944 84.2199 64.0717 83.9429 64.4147 83.9429H97.1883C97.5313 83.9429 97.8086 84.2199 97.8086 84.5612C97.8086 84.9025 97.5313 85.1795 97.1883 85.1795Z" fill="#DEE44C"/>
<path d="M47.4879 85.1795H27.7824C27.4394 85.1795 27.1622 84.9025 27.1622 84.5612C27.1622 84.2199 27.4394 83.9429 27.7824 83.9429H47.4879C47.8309 83.9429 48.1082 84.2199 48.1082 84.5612C48.1082 84.9025 47.8309 85.1795 47.4879 85.1795Z" fill="#DEE44C"/>
<path d="M96.2623 81.7943H67.2449C66.9019 81.7943 66.6247 81.5173 66.6247 81.176C66.6247 80.8347 66.9019 80.5577 67.2449 80.5577H96.2623C96.6053 80.5577 96.8826 80.8347 96.8826 81.176C96.8826 81.5173 96.6053 81.7943 96.2623 81.7943Z" fill="#DEE44C"/>
<path d="M47.385 81.7943H31.0754C30.7324 81.7943 30.4551 81.5173 30.4551 81.176C30.4551 80.8347 30.7324 80.5577 31.0754 80.5577H47.385C47.728 80.5577 48.0053 80.8347 48.0053 81.176C48.0053 81.5173 47.728 81.7943 47.385 81.7943Z" fill="#DEE44C"/>
<path d="M94.8729 78.4092H69.7663C69.4233 78.4092 69.146 78.1322 69.146 77.7909C69.146 77.4496 69.4233 77.1726 69.7663 77.1726H94.8729C95.2159 77.1726 95.4932 77.4496 95.4932 77.7909C95.4932 78.1322 95.2159 78.4092 94.8729 78.4092Z" fill="#DEE44C"/>
<path d="M48.3625 78.4092H37.8151C37.4721 78.4092 37.1948 78.1322 37.1948 77.7909C37.1948 77.4496 37.4721 77.1726 37.8151 77.1726H48.3625C48.7055 77.1726 48.9828 77.4496 48.9828 77.7909C48.9828 78.1322 48.7055 78.4092 48.3625 78.4092Z" fill="#DEE44C"/>
<path d="M90.3972 75.0247H72.0296C71.6866 75.0247 71.4093 74.7477 71.4093 74.4064C71.4093 74.0651 71.6866 73.7881 72.0296 73.7881H90.3972C90.7402 73.7881 91.0174 74.0651 91.0174 74.4064C91.0174 74.7477 90.7402 75.0247 90.3972 75.0247Z" fill="#DEE44C"/>
<path d="M51.5525 75.0247H45.8418C45.4988 75.0247 45.2216 74.7477 45.2216 74.4064C45.2216 74.0651 45.4988 73.7881 45.8418 73.7881H51.5525C51.8955 73.7881 52.1728 74.0651 52.1728 74.4064C52.1728 74.7477 51.8955 75.0247 51.5525 75.0247Z" fill="#DEE44C"/>
<path d="M83.0906 71.6394H73.984C73.641 71.6394 73.3638 71.3624 73.3638 71.0211C73.3638 70.6798 73.641 70.4028 73.984 70.4028H83.0906C83.4336 70.4028 83.7109 70.6798 83.7109 71.0211C83.7109 71.3624 83.4336 71.6394 83.0906 71.6394Z" fill="#DEE44C"/>
<path d="M37.1464 22.4017C35.6547 21.8378 33.2363 22.8376 32.2588 24.7611C31.5927 26.0712 31.1783 27.727 31.1783 30.1977C31.1783 33.121 31.2745 37.3322 31.0754 39.7881C30.8694 42.3268 30.8955 45.0708 31.3582 46.9423C33.3132 44.5829 34.2653 42.3008 34.6592 41.5143C34.9489 40.9375 35.9369 40.1213 37.0689 40.6339C36.5032 38.1211 36.2303 34.0843 36.3742 32.5052C36.5541 30.531 37.2748 28.7355 38.1581 27.633C38.8 26.8317 40.2161 25.6502 41.0391 25.3763C41.9993 24.2139 43.166 23.3934 44.2632 23.0515C45.3611 22.7096 47.839 22.5389 50.0341 23.2221C52.2292 23.906 55.6933 26.1454 57.8803 28.2996C60.0208 30.4079 61.0188 31.8381 62.459 33.9922C63.8205 36.0276 65.0312 39.7361 66.0087 41.7196C67.0781 43.8886 67.9979 45.4807 68.8216 46.5064C68.9587 49.2418 68.8129 50.8147 68.5475 52.387C68.3843 53.3522 68.2044 53.7547 68.0674 54.3019C68.5561 56.1481 69.5765 59.5672 70.0565 60.7296C72.7317 59.2253 74.0869 58.1736 75.3473 56.8919C76.5401 55.6788 78.0485 53.584 78.3568 51.6352C79.8659 50.7461 80.4148 50.1222 80.7752 49.2244C81.1399 48.3156 81.0363 46.9553 80.6722 45.686C80.2603 44.2497 78.3748 42.1339 77.5337 40.3519C76.7106 38.6084 75.4416 35.1379 73.9325 32.6078C72.4234 30.0778 68.9339 25.6737 66.678 23.7353C63.694 21.1713 57.969 18.1188 54.9477 16.9143C51.3465 15.478 47.968 15.1874 45.6352 15.7346C43.3031 16.2818 41.005 17.3929 39.976 18.35C38.947 19.3071 37.4547 20.2475 37.1464 22.4017Z" fill="#595757"/>
<path d="M34.4198 48.8826C35.3799 50.6602 36.1521 51.7205 37.5241 52.7463C38.8961 53.772 40.577 54.3019 42.1376 53.8914C43.3725 55.8742 44.007 56.866 44.9672 57.8231C45.9274 58.7802 47.0252 59.55 47.7801 60.0285C48.7402 61.6695 49.8207 64.3535 50.3008 66.0631C47.5568 65.9264 45.0013 65.5159 43.1492 64.8153C41.3629 64.1396 38.6387 62.7812 37.3356 61.2082C37.8845 59.2254 38.1072 57.0712 38.039 56.2508C37.9707 55.4303 37.7679 54.7236 36.9244 54.3705C36.0672 54.0113 33.1513 53.6181 32.4995 53.5161C32.025 53.4412 31.9679 53.0375 32.1738 52.4903C32.3797 51.9431 33.8032 49.8236 34.4204 48.8832L34.4198 48.8826Z" fill="#595757"/>
<path d="M68.8799 47.6361C70.8648 50.3164 73.1913 52.2294 75.103 52.7531C75.1687 52.771 75.2351 52.7797 75.3002 52.7797C75.6271 52.7797 75.9267 52.5633 76.0178 52.2343C76.1264 51.8392 75.8938 51.4312 75.4974 51.3224C73.9449 50.897 71.8175 49.1045 70.0777 46.755C68.7205 44.9224 67.0434 42.5098 66.1037 40.083C64.669 36.3764 63.7213 33.9273 61.061 30.7085C58.348 27.426 54.9912 24.6826 51.8527 23.1814C48.8525 21.7463 44.4171 21.4137 42.1048 23.6222C41.8083 23.9054 41.7977 24.3753 42.0824 24.6715C42.3665 24.967 42.8379 24.9775 43.135 24.6937C44.8972 23.0101 48.6243 23.2828 51.2089 24.5194C54.09 25.8975 57.1807 28.4097 59.7275 31.4337C58.3809 31.4585 56.8092 31.7287 55.6207 32.1646C55.3317 32.2709 55.1835 32.5906 55.2901 32.8793C55.3733 33.1044 55.5866 33.2435 55.8143 33.2435C55.8782 33.2435 55.9439 33.2324 56.0072 33.2089C57.3233 32.7254 59.2399 32.4545 60.5629 32.564C60.5865 32.5658 60.6088 32.564 60.6318 32.5634C62.6085 35.18 63.4763 37.4126 64.7242 40.6383C65.7191 43.2091 67.4682 45.728 68.8812 47.6361H68.8799Z" fill="black"/>
<path d="M36.3004 19.8878C36.6478 20.1054 37.1074 20.0015 37.3263 19.654C38.6084 17.6199 41.8684 15.2617 45.6173 14.6904C50.0205 14.0202 54.0484 15.0459 59.5209 18.2332C65.5523 21.7463 69.9226 25.4419 72.1586 28.9204C74.3295 32.2969 75.4857 34.5326 76.5779 37.464C77.6689 40.3916 78.5851 41.8742 79.4714 43.3081C79.6029 43.5208 79.7338 43.7322 79.8647 43.948C80.8459 45.5654 81.2503 48.3125 80.1915 49.9294C79.967 50.2725 80.0644 50.7325 80.408 50.9563C80.5333 51.0379 80.6747 51.0769 80.8136 51.0769C81.0568 51.0769 81.295 50.9582 81.4376 50.7406C82.8295 48.613 82.3779 45.226 81.1374 43.1801C81.0047 42.9612 80.8713 42.7454 80.738 42.5296C79.8895 41.157 79.0118 39.7374 77.9723 36.9471C76.8391 33.9057 75.6451 31.5957 73.4109 28.1197C71.0142 24.392 66.5937 20.6346 60.2708 16.9521C53.0814 12.765 48.7148 12.718 45.3915 13.2238C41.0057 13.8922 37.4826 16.6164 36.0653 18.8651C35.8464 19.212 35.9512 19.6701 36.2998 19.8878H36.3004Z" fill="black"/>
<path d="M77.1039 55.7543C78.8052 53.0406 79.3188 51.0367 79.0664 48.0974C79.0316 47.6893 78.6688 47.3882 78.2613 47.4216C77.8519 47.4562 77.548 47.8154 77.5833 48.2241C77.8103 50.8649 77.3867 52.504 75.8417 54.9685C75.031 56.2613 73.7272 57.4639 71.6146 58.868C71.2729 59.0956 71.1804 59.5562 71.4081 59.8969C71.5514 60.1114 71.7877 60.2271 72.0283 60.2271C72.1704 60.2271 72.3136 60.1869 72.4402 60.1022C74.7376 58.5756 76.1754 57.2351 77.1039 55.7549V55.7543Z" fill="black"/>
<path d="M29.3318 40.2234C29.2859 41.4093 29.191 43.8775 29.8665 45.8183C29.9732 46.125 30.2616 46.3173 30.5698 46.3173C30.6505 46.3173 30.733 46.3043 30.8136 46.2765C31.2019 46.1423 31.4078 45.7194 31.2732 45.3323C30.6896 43.6549 30.7776 41.3759 30.8198 40.2803C30.9389 37.1894 30.8645 33.6936 30.5928 29.5924C30.4092 26.8287 31.0735 24.3809 32.4151 22.8766C33.1563 22.0456 34.0365 21.5818 34.9606 21.5349C35.3712 21.5138 35.687 21.1651 35.6659 20.7558C35.6448 20.3471 35.3043 20.0355 34.8843 20.0528C33.5725 20.1196 32.3004 20.7725 31.303 21.891C29.6984 23.6902 28.8983 26.5331 29.1073 29.6908C29.3759 33.74 29.4497 37.1851 29.3324 40.224L29.3318 40.2234Z" fill="black"/>
<path d="M68.6405 55.8297C68.2411 55.9249 67.9942 56.3256 68.0903 56.7237C68.852 59.8937 70.2662 64.4165 73.734 67.0876C73.8693 67.1921 74.0293 67.2421 74.1887 67.2421C74.4114 67.2421 74.6316 67.1432 74.7779 66.954C75.0291 66.63 74.969 66.1638 74.644 65.9134C71.5489 63.5293 70.2476 59.3292 69.538 56.3781C69.4425 55.9793 69.04 55.7339 68.6411 55.8297H68.6405Z" fill="black"/>
<path d="M47.9252 44.0759C48.6906 43.5869 48.9133 42.5722 48.4227 41.8093C47.932 41.0463 46.9142 40.8243 46.1488 41.3134C45.3834 41.8025 45.1607 42.8171 45.6514 43.58C46.142 44.343 47.1598 44.565 47.9252 44.0759Z" fill="black"/>
<path d="M60.731 38.656C61.4964 38.1669 61.7191 37.1523 61.2285 36.3893C60.7378 35.6264 59.72 35.4044 58.9546 35.8935C58.1892 36.3825 57.9665 37.3972 58.4572 38.1601C58.9478 38.9231 59.9656 39.1451 60.731 38.656Z" fill="black"/>
<path d="M56.6646 53.6644C56.7819 53.6644 56.8997 53.6279 57.0008 53.5519C58.4249 52.4804 60.6522 51.5752 62.0255 51.2673C62.3263 51.1999 62.5155 50.9025 62.4479 50.6026C62.3803 50.3027 62.0819 50.1148 61.7811 50.1816C60.2571 50.5229 57.8946 51.4849 56.3291 52.6634C56.0828 52.8489 56.0344 53.1976 56.2199 53.4431C56.3297 53.5877 56.4965 53.6644 56.6659 53.6644H56.6646Z" fill="black"/>
<path d="M74.6111 69.5861C74.2557 69.3808 73.8004 69.5008 73.5939 69.855C70.3257 75.4642 65.0387 82.9981 61.1534 86.2855C58.5992 88.4471 55.7249 89.607 53.2681 89.4685C51.1822 89.351 49.4945 88.0712 48.8624 86.1285C48.468 84.9154 47.3949 80.6374 50.1538 76.5128C50.3821 76.1721 50.289 75.7115 49.9473 75.484C49.6061 75.2564 49.1434 75.3492 48.9152 75.6899C46.8032 78.8475 46.2543 82.9208 47.447 86.586C48.2726 89.1247 50.4714 90.7972 53.1844 90.9499C53.3419 90.9592 53.5007 90.9635 53.6607 90.9635C56.3793 90.9635 59.4328 89.6886 62.1173 87.417C66.1365 84.0164 71.5514 76.3156 74.8815 70.6001C75.0881 70.2458 74.9671 69.792 74.6117 69.5861H74.6111Z" fill="black"/>
<path d="M10.8005 86.455C11.4809 83.5706 12.0993 80.9466 12.4442 79.5245C12.9466 77.4495 13.3051 75.2404 13.6208 73.2915C13.9843 71.0508 14.2981 69.1156 14.7168 68.002C15.5262 65.851 16.1198 64.7442 17.1606 63.4477C18.1058 62.2704 19.1745 61.1495 19.9548 60.3309L20.2749 59.9945C20.7531 59.49 21.2648 58.9737 21.7852 58.4482C22.7199 57.5046 23.6869 56.5284 24.5435 55.5397C25.8727 54.0057 26.8397 53.0777 27.878 52.1076C29.1681 50.9019 31.0326 49.0279 32.0411 47.7146C32.8952 46.6023 34.4347 43.8367 35.2615 42.3509C35.4079 42.0875 35.5325 41.8643 35.6262 41.698C35.7775 41.4297 35.9549 41.2646 36.1001 41.2559C36.1931 41.2504 36.306 41.3165 36.3891 41.429C36.6608 41.8006 36.5609 42.2143 36.2049 43.3031C36.1602 43.4403 36.1137 43.5826 36.0666 43.7309C35.736 44.7759 35.1194 46.0829 34.3764 47.3183C33.7933 48.2871 32.6006 50.0493 32.092 50.8017L32.0188 50.9099C31.5604 51.587 31.0927 52.6486 30.9315 53.3794C30.8428 53.7788 31.0958 54.1745 31.4965 54.2636C32.4579 54.4762 33.3195 54.6166 34.0793 54.7396C34.7957 54.8559 35.4141 54.956 35.8929 55.0834L35.9568 55.1001C36.9293 55.3579 37.0311 55.3851 37.0701 56.1289C37.1173 57.0292 36.9889 58.0531 36.8121 58.923C36.5423 58.6064 36.2948 58.3597 36.1584 58.2392C35.9233 58.0308 35.6386 57.7631 35.3266 57.4694C34.8099 56.9834 34.2244 56.4325 33.6575 55.954C32.6657 55.1174 31.878 54.825 30.8446 54.9103C30.4967 54.9394 30.2374 55.2442 30.2666 55.591C30.2957 55.9385 30.6046 56.1982 30.9495 56.1673C31.5536 56.1166 32.0132 56.2192 32.84 56.9166C33.3809 57.3729 33.9534 57.9115 34.4583 58.3863C34.7808 58.6893 35.0754 58.9663 35.3179 59.1815C36.0455 59.8263 36.7402 60.9053 36.7085 61.2064C36.6614 61.4426 36.6347 61.5693 36.5863 61.6781C36.3537 61.1377 36.0256 60.6227 35.6485 60.2474C35.0283 59.6291 34.4043 59.0745 33.8231 58.5669C33.0893 57.9269 32.2613 57.721 31.4277 57.9702C31.1324 58.0586 30.965 58.3684 31.0537 58.6633C31.1417 58.957 31.4519 59.1252 31.749 59.0362C32.2135 58.897 32.6403 59.0139 33.0881 59.4047C33.655 59.8993 34.2623 60.4384 34.8596 61.0345C35.3942 61.5674 35.8296 62.5431 35.8296 63.2096C35.8296 63.8941 35.6119 64.7733 35.2478 65.5616C34.9346 66.2399 34.5742 66.698 34.1146 67.0041C33.9682 67.1018 33.7791 67.1166 33.6339 67.04C33.441 66.9385 33.3976 66.7129 33.3958 66.5416C33.3889 66.0117 33.66 64.837 34.2219 64.3825C34.3919 64.2459 34.4657 64.0227 34.4111 63.8118C34.3565 63.601 34.1841 63.4415 33.9689 63.4032C33.704 63.3562 33.4727 63.1614 33.3164 62.8733C33.4373 62.5561 33.3281 62.187 33.0329 61.9916C32.6905 61.7653 32.2284 61.8587 32.0014 62.2006C30.2529 64.832 29.072 65.9641 28.3897 66.4501C27.0816 67.3813 25.124 67.9649 24.3872 68.1844L24.3202 68.2048C23.3278 68.5016 22.9035 68.8633 22.5028 70.3027C22.1121 71.705 21.2028 81.6471 21.1513 85.078L21.1501 85.1683C21.1159 87.4751 21.0341 92.9773 21.0986 96.0441H22.5872C22.5221 93.0392 22.6039 87.5011 22.6387 85.1905L22.6399 85.1003C22.6914 81.6675 23.6143 71.8589 23.9375 70.6996C24.1899 69.7932 24.2538 69.774 24.7482 69.6256L24.8145 69.6059C25.6165 69.3672 27.7458 68.7316 29.2556 67.657C30.2486 66.9503 31.393 65.6766 32.6639 63.8681C32.7588 63.9726 32.8605 64.0672 32.9709 64.1488C32.4486 64.9681 32.275 66.0464 32.2812 66.5552C32.2892 67.2143 32.5931 67.7498 33.1148 68.0243C33.3418 68.1436 33.5905 68.2023 33.8399 68.2023C34.1512 68.2023 34.4632 68.1108 34.7355 67.9297C35.3657 67.5105 35.8656 66.8885 36.2632 66.0272C36.698 65.0861 36.9473 64.0592 36.9473 63.2096C36.9473 63.1923 36.9442 63.1725 36.9436 63.1546C37.0354 63.1181 37.1204 63.0619 37.1886 62.9815L37.2147 62.9512C37.33 62.817 37.4237 62.7057 37.5031 62.6012C38.364 63.2943 39.8185 64.3164 40.9746 64.8388C43.7348 66.0865 46.2648 66.494 48.5877 66.7487C48.6156 66.7518 48.6429 66.7531 48.6702 66.7531C49.0448 66.7531 49.3673 66.4717 49.4089 66.0921C49.4542 65.6847 49.1589 65.3186 48.7508 65.2735C46.5501 65.0324 44.1603 64.649 41.5899 63.4872C40.36 62.9308 38.565 61.6064 37.9974 61.0703C37.9863 61.0598 37.9732 61.0524 37.9608 61.0425C37.9459 60.9133 37.9143 60.7816 37.8709 60.6474C37.9149 60.5837 37.9528 60.5145 37.9757 60.4366C38.2939 59.357 38.6375 57.5609 38.5581 56.0517C38.462 54.2289 37.384 53.9433 36.3407 53.6669L36.2775 53.6502C35.7267 53.5037 35.0748 53.3979 34.3193 53.2755C33.7989 53.1914 33.2295 53.0987 32.618 52.9806C32.7935 52.5398 33.0298 52.0705 33.2537 51.7403L33.3269 51.6321C33.5806 51.2574 33.9589 50.6972 34.3522 50.1055C34.774 50.7628 35.2509 51.365 35.9047 52.0723C37.2879 53.568 39.4159 54.5449 41.0044 54.5449C41.358 54.5449 41.683 54.4942 41.9683 54.3928C42.5048 55.2646 43.0054 56.0442 43.3502 56.5809C44.1045 57.7538 45.8709 59.2031 47.5636 60.2993C49.0448 63.248 50.0719 66.3128 50.6072 69.2905C50.5948 69.3091 50.5799 69.3258 50.5688 69.3462C48.6305 72.8698 41.2103 75.5365 38.0421 76.6748L37.9211 76.7181C35.8786 77.4526 31.0382 79.6704 29.1042 81.469C27.053 83.3777 26.0904 85.6067 25.276 88.3667C24.6526 90.4807 24.0826 93.6642 23.6602 96.0434H25.1718C25.583 93.7298 26.1251 90.7484 26.7044 88.7853C27.6094 85.7173 28.5354 84.0282 30.1202 82.5535C31.816 80.9763 36.3587 78.8568 38.426 78.1136L38.547 78.0703C41.7382 76.9234 47.9779 74.679 50.9068 71.3977C51.1276 73.558 51.0767 75.6447 50.735 77.5738C50.6637 77.9775 50.9341 78.3621 51.3385 78.4332C51.3825 78.4406 51.4259 78.4444 51.4687 78.4444C51.8229 78.4444 52.1368 78.1909 52.2006 77.831C53.3221 71.496 51.4756 65.4176 49.7612 61.4803C51.5084 62.1622 54.2729 62.7651 57.0182 62.7651C58.8938 62.7651 60.7608 62.4838 62.2854 61.7542C66.5385 59.7194 68.9457 55.8847 69.44 50.3578C69.4766 49.9497 69.1739 49.5893 68.7646 49.5528C68.3546 49.5169 67.9936 49.818 67.957 50.2261C67.5123 55.1953 65.3879 58.6238 61.6409 60.4168C57.7594 62.2742 51.3546 60.7705 49.4759 59.7206C49.1899 59.5611 48.9046 59.3904 48.6218 59.2136C48.569 59.1679 48.5101 59.132 48.4475 59.1029C46.7393 58.0116 45.1837 56.6829 44.6007 55.7759C43.7925 54.5189 42.111 51.9023 41.1787 49.9565C41.0019 49.5868 40.5578 49.4304 40.1863 49.6066C39.8154 49.7834 39.6585 50.2261 39.8352 50.5958C40.2018 51.3619 40.6751 52.2182 41.1657 53.0579C40.1981 53.1333 38.2406 52.4099 36.9976 51.0657C36.2192 50.223 35.7199 49.5515 35.254 48.7199C35.3998 48.4906 35.5375 48.2711 35.6516 48.0819C36.0852 47.3622 36.8487 45.9927 37.3567 44.5502C37.4851 44.9799 37.6178 45.4034 37.7555 45.8121C37.8603 46.1219 38.15 46.3173 38.4608 46.3173C38.5395 46.3173 38.6195 46.3049 38.6983 46.2783C39.0878 46.1472 39.2975 45.7268 39.166 45.3385C37.8703 41.5051 36.9864 36.5884 37.0633 33.6478C37.1409 30.6763 38.369 27.9762 40.1187 26.9295C40.471 26.7186 40.5858 26.2629 40.3742 25.9117C40.1627 25.5606 39.7056 25.4462 39.3533 25.657C37.1502 26.9746 35.6671 30.0957 35.5753 33.6089C35.5325 35.2498 35.7726 37.4658 36.2061 39.7776C36.1416 39.7739 36.0765 39.7714 36.0107 39.7751C35.6212 39.798 34.885 39.9841 34.328 40.9715C34.2325 41.1403 34.1072 41.366 33.9589 41.6325C33.1508 43.0848 31.646 45.7886 30.8583 46.8137C29.8386 48.1418 27.8643 50.0864 26.8589 51.0262C25.7896 52.0253 24.7922 52.9818 23.4158 54.5708C22.5922 55.5218 21.6432 56.4795 20.7252 57.4063C20.1967 57.9393 19.677 58.4642 19.1919 58.9762L18.875 59.3094C18.0761 60.1472 16.9819 61.2948 15.997 62.5215C14.8445 63.9578 14.1945 65.1628 13.3224 67.482C12.851 68.7347 12.5267 70.7367 12.1502 73.0559C11.8382 74.9788 11.4846 77.1577 10.9952 79.1777C10.6504 80.6016 10.0307 83.2287 9.34971 86.1168C8.52539 89.6107 7.61733 93.4627 6.99274 96.0434H8.52415C9.14564 93.4664 10.0109 89.7968 10.7986 86.4568L10.8005 86.455Z" fill="black"/>
<path d="M83.0453 81.2749C83.2289 80.9083 83.08 80.4625 82.7128 80.2794C82.3456 80.0958 81.8978 80.2442 81.7142 80.6109C80.4011 83.2287 78.8282 90.5357 78.1062 96.0416H79.6085C80.3255 90.6971 81.842 83.6733 83.0453 81.2749Z" fill="black"/>
<path d="M41.7531 41.907C41.8213 41.9342 41.8914 41.9472 41.9603 41.9472C42.1817 41.9472 42.3913 41.8149 42.4788 41.5973C42.8919 40.5684 44.7278 38.4613 46.5551 37.6297C46.8355 37.5023 46.9589 37.1721 46.8311 36.892C46.7027 36.6126 46.3715 36.4895 46.0911 36.6169C44.1187 37.5147 42.0099 39.7683 41.4417 41.1836C41.327 41.4686 41.4665 41.7926 41.7525 41.907H41.7531Z" fill="black"/>
<path d="M42.2623 20.1492C43.6139 18.5677 46.0713 17.7707 49.1807 17.903C53.5075 18.0885 57.8456 21.1564 60.0444 23.9289C62.5689 27.1112 64.1152 30.1013 65.3811 34.2494L65.6577 35.1639C66.4672 37.8479 67.5749 41.5242 69.1324 44.2892C69.2347 44.471 69.4245 44.5737 69.6199 44.5737C69.7123 44.5737 69.8066 44.5508 69.8928 44.5019C70.1614 44.3517 70.2569 44.0122 70.1062 43.7445C68.6089 41.0871 67.521 37.4788 66.727 34.8436L66.4492 33.926C65.1566 29.6914 63.503 26.4954 60.9202 23.2395C58.5682 20.2748 53.9064 16.9922 49.2284 16.7919C45.7705 16.6448 42.9917 17.5796 41.412 19.4283C41.2122 19.662 41.2401 20.0132 41.4752 20.2129C41.7097 20.4114 42.062 20.3842 42.2623 20.1499V20.1492Z" fill="black"/>
<path d="M35.2057 25.0214C35.4563 24.8428 35.5146 24.4953 35.3353 24.2449C35.1561 23.9951 34.8081 23.937 34.5563 24.1157C33.1799 25.0956 31.9382 28.8629 31.7726 30.9249C31.6088 32.9659 31.8402 36.385 32.2775 38.3908C32.3345 38.6511 32.5653 38.8292 32.8227 38.8292C32.8617 38.8292 32.9021 38.8248 32.9418 38.8162C33.2426 38.7506 33.4342 38.4545 33.3685 38.154C32.9573 36.2688 32.7315 32.9319 32.8853 31.0133C33.0546 28.9056 34.3119 25.6571 35.2051 25.0214H35.2057Z" fill="black"/>
<path d="M57.546 45.8882C57.6713 45.8882 57.7972 45.8462 57.9014 45.7608C58.139 45.5648 58.1724 45.2143 57.9758 44.9775C57.0994 43.9202 55.5643 41.3301 55.3205 40.7224C55.2064 40.4373 54.8808 40.2982 54.5948 40.4126C54.3089 40.527 54.1693 40.8504 54.2841 41.136C54.5905 41.9008 56.1988 44.5811 57.1149 45.6866C57.2253 45.8196 57.3847 45.8888 57.5454 45.8888L57.546 45.8882Z" fill="black"/>
<path d="M99.907 95.351C99.7978 94.5429 99.6744 93.6346 99.5416 92.5087C99.0126 88.0267 98.1796 83.904 97.0656 80.2554C95.6557 75.638 91.304 73.4437 86.9678 71.5925C86.0703 71.2092 84.9669 70.7615 83.7996 70.2879C81.2547 69.2554 78.3698 68.0849 76.6753 67.1983C76.3112 67.0079 75.8615 67.1476 75.6705 67.5105C75.4795 67.8735 75.6196 68.3217 75.9837 68.5122C77.7421 69.4316 80.6623 70.6168 83.2382 71.6624C84.3993 72.1335 85.4966 72.5787 86.3817 72.9571C90.5622 74.7421 94.4165 76.6767 95.6409 80.6882C96.7294 84.2533 97.5444 88.2889 98.0629 92.6831C98.1969 93.8201 98.3216 94.7395 98.4314 95.5507C98.4543 95.7201 98.476 95.8821 98.4977 96.0429H99.9994C99.9696 95.8178 99.9386 95.5897 99.9063 95.3523L99.907 95.351Z" fill="black"/>
<path d="M23.597 22.1976C22.0761 22.4963 20.4263 21.9491 19.339 20.8578C19.5647 20.7564 19.7843 20.6432 19.9958 20.5165C20.915 19.9687 21.6196 19.0623 21.833 18.1521C21.985 17.5042 21.8863 16.884 21.5464 16.3585C21.1408 15.7309 20.4368 15.3717 19.6144 15.3717H19.6119C18.6641 15.3723 17.7406 15.8558 17.2599 16.6033C16.665 17.5271 16.603 18.7797 17.0546 19.9718C15.5852 20.1208 13.962 19.7597 12.5614 18.9058C11.8208 18.4539 11.1801 17.8918 10.6728 17.2661C12.5075 16.7474 14.1778 15.6468 15.2819 14.0887C16.5125 12.3532 16.7748 9.72729 15.0536 8.51111C13.8193 7.64056 12.2209 7.95836 11.1348 8.54697C9.06133 9.66979 7.77989 12.0008 7.94487 14.3466C7.98767 14.9618 8.12723 15.5702 8.35238 16.1582C8.33377 16.1582 8.31455 16.1582 8.29532 16.1582C7.52744 16.1582 6.75957 16.0326 6.03325 15.7692C3.18566 14.7373 1.22627 11.6891 1.47437 8.67991C1.7231 5.67006 4.15636 2.98296 7.13482 2.42959C7.52992 2.35601 7.78981 1.97762 7.71662 1.58438C7.64281 1.19053 7.26011 0.931464 6.86873 1.00504C3.26753 1.67403 0.32566 4.92254 0.0260772 8.56119C-0.274747 12.1998 2.09463 15.8843 5.53704 17.132C6.67149 17.5431 7.88471 17.6761 9.0818 17.5642C9.74423 18.5633 10.6715 19.4524 11.8041 20.1424C13.6977 21.2986 15.8817 21.7018 17.8249 21.3308C18.9836 22.8345 20.8425 23.731 22.7373 23.731C23.1188 23.731 23.5021 23.6945 23.8817 23.6191C24.2762 23.5412 24.5317 23.1591 24.453 22.7671C24.3742 22.3751 23.9946 22.1166 23.5982 22.1983L23.597 22.1976ZM9.86394 15.9857C9.59847 15.4199 9.43659 14.8307 9.39503 14.2452C9.2716 12.483 10.2721 10.664 11.8289 9.82004C12.2321 9.60116 12.7655 9.42371 13.2766 9.42371C13.6128 9.42371 13.939 9.501 14.2132 9.69391C15.1572 10.361 14.9091 12.1046 14.0953 13.2522C13.0992 14.6582 11.5448 15.6141 9.86456 15.9857H9.86394ZM18.4898 19.6385C18.1847 18.9473 18.0463 18.0656 18.4836 17.3867C18.7013 17.0491 19.1547 16.8216 19.6131 16.8216H19.6144C19.8023 16.8216 20.1428 16.8636 20.3239 17.1443C20.4486 17.3366 20.479 17.5586 20.417 17.8226C20.2942 18.3475 19.8246 18.9306 19.249 19.2731C19.009 19.4166 18.7547 19.5377 18.4886 19.6391L18.4898 19.6385Z" fill="black"/>
</g>
<defs>
<clipPath id="clip0_2769_4563">
<rect width="100" height="95.0495" fill="white" transform="translate(0 0.992065)"/>
</clipPath>
</defs>
</svg>