<svg width="100" height="114" viewBox="0 0 100 114" fill="none" xmlns="http://www.w3.org/2000/svg">
<g clip-path="url(#clip0_2769_4661)">
<path d="M97.5443 100.837H1.67503C1.4847 100.837 1.33023 100.683 1.33023 100.493C1.33023 100.303 1.4847 100.148 1.67503 100.148H97.5443C97.7346 100.148 97.8891 100.303 97.8891 100.493C97.8891 100.683 97.7346 100.837 97.5443 100.837Z" fill="#DEE44C"/>
<path d="M96.2471 95.3924H3.6576C3.46727 95.3924 3.31281 95.2382 3.31281 95.0482C3.31281 94.8581 3.46727 94.7039 3.6576 94.7039H96.2471C96.4375 94.7039 96.5919 94.8581 96.5919 95.0482C96.5919 95.2382 96.4375 95.3924 96.2471 95.3924Z" fill="#DEE44C"/>
<path d="M94.3404 89.9479H52.8504C52.6601 89.9479 52.5056 89.7937 52.5056 89.6037C52.5056 89.4137 52.6601 89.2595 52.8504 89.2595H94.3404C94.5307 89.2595 94.6852 89.4137 94.6852 89.6037C94.6852 89.7937 94.5307 89.9479 94.3404 89.9479Z" fill="#DEE44C"/>
<path d="M51.3257 89.9479H24.1737C23.9834 89.9479 23.8289 89.7937 23.8289 89.6037C23.8289 89.4137 23.9834 89.2595 24.1737 89.2595H51.325C51.5153 89.2595 51.6698 89.4137 51.6698 89.6037C51.6698 89.7937 51.5153 89.9479 51.325 89.9479H51.3257Z" fill="#DEE44C"/>
<path d="M13.6491 89.9479H5.94569C5.75536 89.9479 5.60089 89.7937 5.60089 89.6037C5.60089 89.4137 5.75536 89.2595 5.94569 89.2595H13.6484C13.8388 89.2595 13.9932 89.4137 13.9932 89.6037C13.9932 89.7937 13.8388 89.9479 13.6484 89.9479H13.6491Z" fill="#DEE44C"/>
<path d="M92.5861 84.5042H84.2731C84.0828 84.5042 83.9283 84.35 83.9283 84.16C83.9283 83.97 84.0828 83.8157 84.2731 83.8157H92.5861C92.7764 83.8157 92.9309 83.97 92.9309 84.16C92.9309 84.35 92.7764 84.5042 92.5861 84.5042Z" fill="#DEE44C"/>
<path d="M72.0604 84.5042H58.2658C58.0754 84.5042 57.921 84.35 57.921 84.16C57.921 83.97 58.0754 83.8157 58.2658 83.8157H72.0604C72.2507 83.8157 72.4052 83.97 72.4052 84.16C72.4052 84.35 72.2507 84.5042 72.0604 84.5042Z" fill="#DEE44C"/>
<path d="M46.8413 84.5042H24.5557C24.3654 84.5042 24.2109 84.35 24.2109 84.16C24.2109 83.97 24.3654 83.8157 24.5557 83.8157H46.8413C47.0316 83.8157 47.1861 83.97 47.1861 84.16C47.1861 84.35 47.0316 84.5042 46.8413 84.5042Z" fill="#DEE44C"/>
<path d="M13.1912 84.5042H7.8524C7.66207 84.5042 7.5076 84.35 7.5076 84.16C7.5076 83.97 7.66207 83.8157 7.8524 83.8157H13.1912C13.3815 83.8157 13.536 83.97 13.536 84.16C13.536 84.35 13.3815 84.5042 13.1912 84.5042Z" fill="#DEE44C"/>
<path d="M91.2138 79.0598H82.2905C82.1001 79.0598 81.9457 78.9056 81.9457 78.7156C81.9457 78.5256 82.1001 78.3713 82.2905 78.3713H91.2138C91.4041 78.3713 91.5586 78.5256 91.5586 78.7156C91.5586 78.9056 91.4041 79.0598 91.2138 79.0598Z" fill="#DEE44C"/>
<path d="M71.1549 79.0598H61.5448C61.3545 79.0598 61.2 78.9056 61.2 78.7156C61.2 78.5256 61.3545 78.3713 61.5448 78.3713H71.1549C71.3453 78.3713 71.4997 78.5256 71.4997 78.7156C71.4997 78.9056 71.3453 79.0598 71.1549 79.0598Z" fill="#DEE44C"/>
<path d="M42.9575 79.0598H25.3177C25.1274 79.0598 24.9729 78.9056 24.9729 78.7156C24.9729 78.5256 25.1274 78.3713 25.3177 78.3713H42.9575C43.1478 78.3713 43.3023 78.5256 43.3023 78.7156C43.3023 78.9056 43.1478 79.0598 42.9575 79.0598Z" fill="#DEE44C"/>
<path d="M14.4118 79.0598H9.45503C9.2647 79.0598 9.11023 78.9056 9.11023 78.7156C9.11023 78.5256 9.2647 78.3713 9.45503 78.3713H14.4118C14.6021 78.3713 14.7566 78.5256 14.7566 78.7156C14.7566 78.9056 14.6021 79.0598 14.4118 79.0598Z" fill="#DEE44C"/>
<path d="M89.8408 73.616H80.5361C80.3458 73.616 80.1913 73.4618 80.1913 73.2718C80.1913 73.0818 80.3458 72.9276 80.5361 72.9276H89.8408C90.0311 72.9276 90.1856 73.0818 90.1856 73.2718C90.1856 73.4618 90.0311 73.616 89.8408 73.616Z" fill="#DEE44C"/>
<path d="M70.2399 73.616H62.8419C62.6516 73.616 62.4971 73.4618 62.4971 73.2718C62.4971 73.0818 62.6516 72.9276 62.8419 72.9276H70.2399C70.4302 72.9276 70.5846 73.0818 70.5846 73.2718C70.5846 73.4618 70.4302 73.616 70.2399 73.616Z" fill="#DEE44C"/>
<path d="M34.5465 73.616H25.8522C25.6618 73.616 25.5074 73.4618 25.5074 73.2718C25.5074 73.0818 25.6618 72.9276 25.8522 72.9276H34.5465C34.7369 72.9276 34.8913 73.0818 34.8913 73.2718C34.8913 73.4618 34.7369 73.616 34.5465 73.616V73.616Z" fill="#DEE44C"/>
<path d="M15.7083 73.616H11.59C11.3997 73.616 11.2452 73.4618 11.2452 73.2718C11.2452 73.0818 11.3997 72.9276 11.59 72.9276H15.7083C15.8986 72.9276 16.053 73.0818 16.053 73.2718C16.053 73.4618 15.8986 73.616 15.7083 73.616Z" fill="#DEE44C"/>
<path d="M86.3329 68.1716H78.5536C78.3633 68.1716 78.2088 68.0174 78.2088 67.8274C78.2088 67.6374 78.3633 67.4832 78.5536 67.4832H86.3329C86.5232 67.4832 86.6777 67.6374 86.6777 67.8274C86.6777 68.0174 86.5232 68.1716 86.3329 68.1716Z" fill="#DEE44C"/>
<path d="M18.0729 68.1716H14.8697C14.6794 68.1716 14.5249 68.0174 14.5249 67.8274C14.5249 67.6374 14.6794 67.4832 14.8697 67.4832H18.0729C18.2632 67.4832 18.4177 67.6374 18.4177 67.8274C18.4177 68.0174 18.2632 68.1716 18.0729 68.1716Z" fill="#DEE44C"/>
<path d="M53.4041 12.7745C50.8871 11.8609 46.7116 12.546 43.8519 13.9167C40.9921 15.2875 37.56 18.4283 36.0726 21.5119C34.5851 24.5956 33.8135 30.1068 33.9273 33.419C34.7851 34.0758 35.643 35.9891 35.7002 37.5023C37.1015 34.7037 40.2481 31.649 42.4217 30.3925C44.5953 29.136 47.6267 27.8796 49.1424 25.1099C51.316 28.0792 54.2523 30.8448 57.0934 32.4765C60.3256 34.3326 63.9287 35.6173 65.5306 36.303C67.1325 36.9887 67.9332 37.5306 68.791 38.8159C68.9055 36.8745 69.3627 34.1619 70.5357 33.6194C70.9646 28.6507 70.0495 25.0245 68.3621 21.5126C66.9898 18.6568 64.4438 15.8589 61.3551 14.2603C58.2664 12.6609 55.9411 11.9016 53.4041 12.7752V12.7745Z" fill="#7E6E60"/>
<path d="M45.3049 45.2345C46.1531 45.2345 46.8413 44.5481 46.8413 43.7006C46.8413 42.8531 46.1538 42.1667 45.3049 42.1667C44.456 42.1667 43.7685 42.8531 43.7685 43.7006C43.7685 44.5481 44.456 45.2345 45.3049 45.2345Z" fill="black"/>
<path d="M57.4286 43.7006C57.4286 44.5474 58.1161 45.2345 58.965 45.2345C59.8139 45.2345 60.5014 44.5481 60.5014 43.7006C60.5014 42.8531 59.8139 42.1667 58.965 42.1667C58.1161 42.1667 57.4286 42.8531 57.4286 43.7006Z" fill="black"/>
<path d="M46.4496 55.2531C46.2875 55.5547 46.4013 55.9299 46.7034 56.0917C48.1625 56.8731 50.0996 57.2972 52.1904 57.2972C52.307 57.2972 52.4249 57.2958 52.5421 57.2931C55.1191 57.2352 56.9742 56.7506 58.3802 55.7681C58.6609 55.5719 58.7292 55.1857 58.5326 54.9048C58.3361 54.6246 57.9499 54.5564 57.6679 54.7526C56.4563 55.5994 54.8661 56.0008 52.5139 56.0538C50.5044 56.1 48.6446 55.7247 47.2895 54.9991C46.9875 54.8366 46.611 54.9509 46.4496 55.2524V55.2531Z" fill="black"/>
<path d="M10.2232 89.4213C10.397 88.9992 10.1949 88.5166 9.77222 88.3431C9.3495 88.1703 8.86609 88.3714 8.69232 88.7934C7.51863 91.6485 5.1285 99.0248 4.34857 102.999H6.03945C6.83938 99.1618 9.10056 92.1524 10.2239 89.4206L10.2232 89.4213Z" fill="black"/>
<path d="M63.046 74.8016C62.613 74.6529 62.1427 74.8835 61.9951 75.3152C60.9124 78.467 59.9842 80.2357 58.0203 82.8828C56.3377 85.1514 54.3806 86.9593 52.136 88.9717C49.4748 86.1634 46.3372 82.4264 44.8897 79.9004C44.6629 79.5045 44.1574 79.3668 43.7609 79.5933C43.3644 79.8198 43.2264 80.3245 43.4533 80.7204C45.1842 83.7407 48.868 87.9817 51.4967 90.6949C51.6588 90.8622 51.8746 90.9469 52.0918 90.9469C52.2891 90.9469 52.4863 90.8774 52.6435 90.7362L52.6904 90.6942C55.2343 88.4188 57.4314 86.4533 59.3505 83.866C61.4055 81.0956 62.4281 79.1479 63.5605 75.8508C63.7087 75.4191 63.4784 74.9496 63.046 74.8016V74.8016Z" fill="black"/>
<path d="M62.775 39.9608C63.1094 40.038 63.4425 39.83 63.5191 39.4968C63.5963 39.1636 63.388 38.8304 63.0543 38.754C61.1069 38.3058 58.0368 38.5061 56.3914 38.9756C56.0618 39.0693 55.8708 39.4128 55.9653 39.7419C56.0432 40.0139 56.2914 40.1915 56.5618 40.1915C56.6183 40.1915 56.6755 40.1839 56.7328 40.1674C58.1954 39.7502 61.0903 39.5739 62.7757 39.9615L62.775 39.9608Z" fill="black"/>
<path d="M47.7467 40.1908C48.0163 40.1908 48.2653 40.0132 48.3432 39.7412C48.437 39.4121 48.2467 39.0693 47.917 38.975C46.2717 38.5054 43.2016 38.3044 41.2542 38.7533C40.9204 38.8304 40.7122 39.1629 40.7894 39.4961C40.8666 39.83 41.199 40.038 41.5335 39.9602C43.2182 39.5719 46.1131 39.7481 47.5764 40.166C47.6336 40.1819 47.6908 40.1901 47.7474 40.1901L47.7467 40.1908Z" fill="black"/>
<path d="M53.0324 45.1643C52.6952 45.1258 52.3849 45.3715 52.347 45.7117C52.2615 46.4807 52.4608 49.1402 52.598 50.1729C52.6394 50.4841 52.9062 50.7106 53.2124 50.7106C53.2393 50.7106 53.2676 50.7086 53.2952 50.7051C53.6345 50.6597 53.8737 50.3485 53.8282 50.0091C53.6786 48.8883 53.5165 46.418 53.58 45.848C53.6179 45.5079 53.3724 45.2015 53.0317 45.1636L53.0324 45.1643Z" fill="black"/>
<path d="M66.2754 27.9443C66.3478 28.2231 66.6002 28.4083 66.876 28.4083C66.9277 28.4083 66.9801 28.4021 67.0319 28.3883C67.3636 28.3023 67.5628 27.9642 67.4766 27.6331C66.4823 23.8031 63.2901 18.4124 57.5672 15.8224C57.2548 15.6805 56.8873 15.8189 56.7459 16.1308C56.6045 16.4427 56.7425 16.8096 57.0548 16.9508C62.0378 19.2062 65.2762 24.0971 66.2747 27.9443H66.2754Z" fill="black"/>
<path d="M42.7899 17.1359C40.6198 18.4199 36.3043 23.8685 35.714 27.1814C35.654 27.5188 35.8788 27.8403 36.2167 27.9002C36.2533 27.9064 36.2898 27.9098 36.3264 27.9098C36.6215 27.9098 36.8829 27.6985 36.9367 27.3983C37.4876 24.3043 41.73 19.2041 43.423 18.2024C43.7181 18.0282 43.8153 17.6475 43.6402 17.3535C43.4657 17.0595 43.0851 16.9618 42.7899 17.1366V17.1359Z" fill="black"/>
<path d="M87.581 83.6189C87.3803 83.0213 86.8349 82.5958 86.0756 82.465C85.6253 82.3872 85.1971 82.6887 85.1199 83.1383C85.0419 83.5879 85.3447 84.0154 85.795 84.0925C85.9081 84.1118 85.9763 84.1407 86.0108 84.16C85.9846 84.3225 85.7053 84.8822 84.5606 85.5542C81.9112 87.1087 77.3171 87.8013 73.6106 88.2302C71.6507 88.4574 71.0784 88.1662 70.9225 88.0306C70.8805 87.9941 70.8025 87.9259 70.7977 87.6802C70.7887 87.2237 70.4081 86.8547 69.9537 86.8712C69.4971 86.8802 69.1337 87.2581 69.1434 87.7139C69.1599 88.5208 69.5282 89.0089 69.835 89.2753C70.3715 89.7421 71.1618 89.9679 72.3196 89.9679C72.7589 89.9679 73.2506 89.9356 73.8016 89.8716C77.6695 89.4234 82.4829 88.6895 85.3991 86.9779C85.9674 86.6447 86.4349 86.2867 86.7963 85.917C88.0748 89.2609 90.649 97.0702 92.322 102.999H94.0335C92.0116 95.7718 88.5664 85.519 87.6989 83.7875C87.6672 83.7242 87.6265 83.6691 87.5817 83.6175L87.581 83.6189Z" fill="black"/>
<path d="M70.2922 90.0147C69.8523 90.138 69.5957 90.5944 69.7199 91.0337C70.3977 93.4399 71.7935 98.9187 72.7341 103.001H74.4319C73.4464 98.6736 71.9273 92.7645 71.3135 90.5868C71.1901 90.1476 70.7329 89.8922 70.2929 90.0154L70.2922 90.0147Z" fill="black"/>
<path d="M1.86861 102.382C2.84301 98.6536 4.16772 95.6967 5.56966 92.5662L6.02617 91.5452C7.38398 88.4973 8.82109 84.3293 9.87134 80.3968C10.8202 76.8415 12.7007 72.1854 13.9696 69.7372C14.5557 68.6074 15.9101 67.8707 17.1976 67.404C16.3039 69.2139 15.7708 70.8071 15.2446 72.7148C14.1627 76.635 12.4166 83.5989 11.776 87.1156C11.5533 86.8305 11.4284 86.5765 11.4284 86.3727C11.4284 85.9162 11.0581 85.5465 10.6009 85.5465C10.1437 85.5465 9.77342 85.9162 9.77342 86.3727C9.77342 89.4688 16.53 92.0595 17.3003 92.3445C20.0828 93.3744 22.4061 94.0684 24.3466 94.0684C24.8134 94.0684 25.2589 94.0285 25.6823 93.9424C25.4899 95.1321 25.272 96.3328 25.0444 97.5817C24.7286 99.3098 24.4059 101.087 24.1218 103H25.7947C26.0664 101.202 26.3733 99.5184 26.6726 97.8784C27.0043 96.0615 27.318 94.3459 27.5601 92.602C27.5642 92.571 27.5628 92.5407 27.5635 92.5097C27.5877 92.4416 27.6125 92.3734 27.629 92.3018C27.8345 91.3944 27.3635 90.383 26.4002 89.6615C26.0347 89.3882 25.5161 89.4626 25.2417 89.8268C24.9672 90.1916 25.0417 90.7101 25.4072 90.9834C25.8692 91.3297 26.063 91.7256 26.0147 91.9376C25.9782 92.1001 25.7251 92.2481 25.3548 92.3225C23.5556 92.6867 21.0634 91.9748 17.8754 90.7947C15.8991 90.0629 14.2385 89.1569 13.0959 88.3197C13.2097 88.2033 13.2924 88.0539 13.3214 87.8818C13.8661 84.6185 15.7149 77.2312 16.8404 73.1534C17.5086 70.7313 18.1409 68.9516 19.567 66.4835C20.911 64.1571 22.3219 63.4122 24.79 62.7086C27.8635 61.8322 30.7094 62.2191 32.1328 62.5282C32.3314 62.5709 32.5265 62.5358 32.6934 62.4477C33.0396 62.7279 33.4492 62.9736 33.9126 63.1637C35.5366 63.8308 40.7368 64.6053 43.249 64.8098C42.3132 64.9399 41.1954 65.0342 40.1803 65.1189C38.9025 65.2263 37.7985 65.3186 37.1171 65.4645C36.1738 65.6663 35.5014 66.1358 35.2242 66.7864C35.0098 67.2897 35.0594 67.8377 35.3642 68.3299C36.1483 69.5947 37.5564 69.6828 39.1866 69.784L39.237 69.7874C40.7196 69.8797 42.025 69.7275 43.4621 69.2931C45.1026 69.1664 46.5356 68.9186 47.6907 68.7189C48.5989 68.562 49.3216 68.4367 49.7953 68.4305C51.9482 68.7141 53.8239 69.437 55.3327 70.0188C55.8541 70.2198 56.3044 70.3933 56.7078 70.5255C57.3139 70.7245 57.9532 70.9475 58.5897 71.1692C59.5082 71.4893 60.4585 71.8205 61.2715 72.0656C61.7784 72.2184 62.0894 72.4649 62.1356 72.6294C62.1687 72.7465 62.039 72.9138 61.959 73.0026C61.4067 73.6174 60.2964 73.7152 59.4862 73.4949C58.8621 73.3248 56.9616 72.8078 56.0844 72.2239C56.0016 72.1689 55.9072 72.1344 55.8086 72.1234C54.2115 71.9465 52.4199 71.501 51.3496 71.015C51.34 71.0109 51.3297 71.0095 51.32 71.0053C51.2931 70.9943 51.2655 70.9861 51.2372 70.9792C51.2207 70.9751 51.2048 70.9716 51.1883 70.9689C51.1586 70.964 51.1283 70.9627 51.0986 70.962C51.0883 70.962 51.0773 70.9592 51.0669 70.9599C50.6725 70.9764 50.2856 70.9957 49.9098 71.0143C48.1224 71.1031 46.5784 71.1795 45.5509 70.8869C44.491 70.5847 43.669 70.772 43.4083 71.3764C43.3242 71.572 43.1318 72.2577 44.1931 72.8856C44.5854 73.1176 44.9371 73.3069 45.2723 73.4721C45.0371 73.5492 44.8144 73.6339 44.6192 73.7317L44.3682 73.8542C43.871 74.0952 43.44 74.3086 43.2787 74.7506C42.6849 74.4339 42.2932 74.0298 41.8581 73.574C41.7429 73.4536 41.6292 73.3344 41.5126 73.2181C41.3333 73.0391 41.0823 72.9523 40.8292 72.9819C38.5418 73.256 37.484 73.2683 34.5981 72.3396C31.5721 71.3647 30.0647 70.9771 28.3938 70.743C26.8532 70.5269 25.6982 71.3448 25.3099 72.9303C24.9245 74.5055 24.6769 76.0339 24.4231 77.8453C24.1473 79.8143 23.7887 83.4233 23.4722 86.6075C23.2846 88.4925 23.1232 90.1207 23.006 91.1355C22.9536 91.5892 23.2791 91.9989 23.7328 92.0512C23.7653 92.0546 23.797 92.0567 23.8287 92.0567C24.2431 92.0567 24.601 91.7462 24.65 91.3256C24.7686 90.2977 24.9314 88.6632 25.1196 86.7706C25.4348 83.6023 25.7913 80.0112 26.063 78.0739C26.3167 76.2625 26.5484 74.8353 26.9188 73.3227C27.1043 72.5654 27.4773 72.2838 28.1642 72.3795C29.7275 72.5985 31.1673 72.9716 34.0905 73.9128C34.2802 73.974 34.4622 74.0312 34.6394 74.0849C34.6925 74.1592 34.7553 74.2281 34.8346 74.2845C35.8917 75.0322 37.0454 75.9713 38.0633 76.8002C39.3232 77.8267 40.4113 78.7128 41.1961 79.1603C41.6271 79.4061 42.0857 79.5293 42.5346 79.5293C42.9801 79.5293 43.4145 79.4081 43.7979 79.1651C44.5082 78.7162 44.933 77.9382 44.9516 77.0921C45.1895 77.1913 45.4495 77.2691 45.7253 77.3269C45.7364 77.3331 45.746 77.3413 45.7577 77.3475C46.9659 77.9506 50.0656 79.0508 51.2324 79.1568C51.3338 79.1665 51.6372 79.1899 52.0461 79.1899C53.2378 79.1899 55.3189 78.9861 55.8672 77.6174C56.0934 77.0536 55.9727 76.6205 55.832 76.3568C55.6348 75.9871 55.281 75.7221 54.8459 75.519C55.4851 75.2677 56.0085 75.1128 56.4754 74.9771C56.8967 74.8553 57.2946 74.7403 57.7153 74.5716C57.8318 74.5248 57.9256 74.447 57.9925 74.3513C58.4042 74.4794 58.8062 74.5943 59.1614 74.6907C59.5199 74.7878 59.9171 74.8429 60.324 74.8429C61.2563 74.8429 62.2342 74.5544 62.8852 73.8295C63.0293 73.669 63.1341 73.5128 63.2106 73.3627C63.2589 73.3585 63.3072 73.3523 63.3555 73.3393C64.7553 72.9668 66.5545 72.551 67.7164 72.3038C68.4936 72.1399 68.9743 72.4043 69.1439 73.0942C69.4411 74.3038 69.9852 77.1623 70.5121 79.9259C71.0382 82.6908 71.583 85.55 71.903 86.8808C71.994 87.2594 72.3333 87.5142 72.707 87.5142C72.7712 87.5142 72.836 87.5066 72.9008 87.4915C73.3456 87.3848 73.6194 86.9393 73.5125 86.4952C73.2015 85.2023 72.6608 82.363 72.1374 79.6174C71.583 76.7045 71.0589 73.9527 70.7507 72.7004C70.3686 71.1479 69.0122 70.3396 67.3716 70.6873C66.2131 70.9331 64.4319 71.3448 63.0176 71.7193C62.7148 71.3572 62.2404 71.0625 61.6329 70.8787C60.8453 70.6405 59.9075 70.3141 59.0014 69.9981C58.358 69.7737 57.7111 69.5485 57.0988 69.3468C56.725 69.2243 56.2885 69.0556 55.783 68.8608C54.2859 68.2838 52.2358 67.4928 49.9167 67.1947C49.8905 67.1912 49.8636 67.1898 49.8374 67.1898C49.2581 67.1898 48.4747 67.3255 47.4824 67.4969C46.3377 67.6945 44.913 67.941 43.3035 68.0614C43.2573 68.0649 43.2118 68.0732 43.1676 68.0869C41.8526 68.4904 40.6651 68.6322 39.3176 68.5489L39.2673 68.5454C37.7357 68.4497 36.8482 68.363 36.4227 67.6759C36.2883 67.459 36.3489 67.3172 36.3689 67.2704C36.4807 67.0088 36.8585 66.7864 37.3806 66.6749C37.9853 66.5454 39.1039 66.4518 40.2879 66.3527C41.625 66.2404 43.1407 66.1138 44.2413 65.9045C44.6041 65.8356 44.933 65.7695 45.2385 65.7083C46.6363 65.428 47.4783 65.2594 48.8347 65.3344C50.3704 65.4198 51.9634 66.1757 53.3191 66.9048C53.3357 66.9138 53.3529 66.9186 53.3702 66.9262C53.3805 66.931 53.3908 66.9351 53.4012 66.9392C53.466 66.9626 53.5315 66.975 53.5977 66.9764C53.6026 66.9764 53.6067 66.9792 53.6122 66.9792C53.6315 66.9792 53.6508 66.9785 53.6701 66.9764C54.0729 66.9392 54.6418 66.9399 55.2486 66.9392C56.3788 66.9413 57.7815 66.9392 58.9552 66.699C60.3054 66.9021 62.3562 66.8463 63.8782 66.036C64.905 65.4893 65.3629 64.5626 65.3594 63.7826C65.6242 63.6883 65.8821 63.596 66.1249 63.5086C68.375 62.6983 69.6156 62.2528 71.0823 62.3506C73.5373 62.5151 74.7317 63.1898 75.5764 63.828C76.6398 64.6322 77.3004 66.8015 77.8314 68.5454C77.9762 69.0226 78.1148 69.4769 78.2541 69.8852C78.6265 70.9785 79.0906 72.3658 79.5864 73.8515C81.0166 78.1324 82.6379 82.984 83.2778 84.4209C83.415 84.7286 83.7171 84.9118 84.0343 84.9118C84.1467 84.9118 84.2605 84.889 84.3701 84.8402C84.788 84.655 84.9763 84.1668 84.7901 83.7496C84.1825 82.3851 82.5048 77.3634 81.1566 73.3282C80.6587 71.8391 80.1946 70.4484 79.8209 69.3523C79.6871 68.9599 79.554 68.5227 79.4147 68.0642C79.0968 67.0205 78.7575 65.9065 78.3093 64.9138C80.6946 65.5306 82.6834 66.1516 84.4487 67.3172C86.9747 68.984 88.6732 71.4329 89.3614 74.3988C89.4731 74.8821 89.5896 75.3916 89.711 75.9231C90.4206 79.0267 91.3033 82.8897 92.4459 86.414L92.8018 87.5087C94.272 92.0354 96.1028 97.6691 96.9765 101.45C97.111 102.033 97.2214 102.542 97.3145 102.998H99.0019C98.8943 102.448 98.7605 101.821 98.5888 101.078C97.6992 97.2271 95.9332 91.793 94.3761 86.9985L94.021 85.9045C92.9004 82.4498 92.0267 78.6267 91.3246 75.5548C91.2026 75.0212 91.086 74.5097 90.9736 74.025C90.1882 70.6391 88.2477 67.8425 85.3611 65.9382C82.9799 64.3664 80.2657 63.691 77.1225 62.9082L76.986 62.8745C76.8549 62.7437 76.7198 62.6191 76.575 62.5096C75.1013 61.3957 73.4918 60.8552 71.1934 60.701C69.4487 60.5853 67.973 61.0872 65.8214 61.8604C65.5635 60.2583 65.2505 57.9678 65.2574 55.6387C66.1283 54.0779 66.9096 52.332 67.6096 50.3657C67.833 49.7385 68.0619 48.9949 68.2619 48.2307C68.3709 48.3223 68.5088 48.3788 68.6591 48.3788C68.6819 48.3788 68.7053 48.3774 68.7281 48.3746C70.8727 48.1371 72.134 41.1987 72.1995 40.0613C72.2284 39.5546 72.4222 39.1725 72.667 38.6885C72.9863 38.0572 73.3842 37.2717 73.4387 36.0345C73.4883 34.9068 73.2111 34.0992 72.6139 33.6345C72.3243 33.4093 71.9788 33.2806 71.583 33.2455C72.6567 28.9811 71.4678 23.5353 69.7783 20.0365C67.9061 16.159 62.4011 10.5583 56.0251 10.2478C55.5651 10.2313 55.1803 10.5769 55.1583 11.0327C55.1362 11.4884 55.4879 11.876 55.9444 11.8981C61.5804 12.1728 66.6421 17.3453 68.2881 20.7539C70.2948 24.9109 70.9037 30.084 69.8059 33.463C68.797 34.2245 68.4605 35.6875 68.2557 37.1526C67.1268 36.1536 65.4918 35.4913 63.7968 34.8042C62.8817 34.4338 61.9349 34.0496 61.0405 33.6035C56.4437 31.3088 53.0426 28.4771 50.9283 25.1849C50.509 22.9322 50.8063 19.1656 52.0386 16.8406C52.2523 16.4372 52.0985 15.9373 51.6944 15.7239C51.2903 15.5105 50.7897 15.664 50.5759 16.0675C49.125 18.8034 48.8064 23.0947 49.3354 25.6627C49.3553 25.7597 49.3926 25.852 49.445 25.936C51.7165 29.5429 55.3686 32.6197 60.2999 35.0816C61.2522 35.5574 62.2294 35.9525 63.1741 36.3353C65.5215 37.2861 67.5489 38.1075 67.9999 39.64C68.104 39.9932 68.4288 40.2328 68.7936 40.2328C68.8101 40.2328 68.8274 40.2328 68.8439 40.2314C69.2287 40.208 69.5466 39.9223 69.6101 39.5429C69.677 39.1443 69.7273 38.7216 69.7811 38.2741C69.95 36.873 70.1597 35.1291 70.8982 34.7195C71.0024 34.6617 71.0892 34.5811 71.1589 34.4875C71.4189 34.4572 71.6768 34.4765 71.8506 34.6121C72.105 34.8097 72.2284 35.2957 72.1981 35.9801C72.1554 36.9508 71.8657 37.5236 71.5589 38.1302C71.2865 38.6693 71.0044 39.2262 70.9603 39.9911C70.8134 42.5447 69.2529 46.9295 68.5915 47.1443C68.5646 47.1471 68.5398 47.1547 68.515 47.1609C68.7129 46.2411 68.8474 45.3529 68.8474 44.6638C68.8474 44.2073 68.4771 43.8376 68.0199 43.8376C67.5627 43.8376 67.1924 44.2073 67.1924 44.6638C67.1924 45.923 66.6041 48.2569 66.0504 49.8135C65.3656 51.7385 64.6022 53.4342 63.752 54.9399C63.7292 54.9716 63.7113 55.0067 63.6934 55.0418C62.9989 56.259 62.2494 57.3537 61.4287 58.3258C60.5268 59.3943 59.0986 60.8084 57.7973 61.5733C57.5925 61.6938 57.4608 61.8886 57.4119 62.1027C55.6003 62.0222 53.697 61.963 52.5868 62.0697C51.822 62.1427 50.8104 62.2659 49.7491 62.427C49.696 62.3761 49.6333 62.332 49.5608 62.3017C48.6327 61.9127 47.1383 61.4349 45.7998 61.0177C45.7722 60.8222 45.6771 60.6349 45.5136 60.4986C44.9792 60.0538 44.5116 59.5926 44.1248 59.1285L43.9655 58.9371C42.5111 57.1932 40.8623 55.2166 39.7576 52.6817C38.6639 50.1695 38.1033 48.2479 37.5371 45.0672C37.4571 44.6183 37.0289 44.3202 36.5772 44.3987C36.1276 44.4786 35.8276 44.9075 35.9076 45.3571C36.0021 45.8872 36.0965 46.3815 36.1931 46.8531C35.0525 45.9553 34.6415 43.4376 34.4064 41.9884L34.347 41.6262C34.1402 40.3877 33.6664 39.083 33.2085 37.8211C32.9527 37.1161 32.6879 36.387 32.4707 35.6737C32.3086 35.1429 32.3914 34.6465 32.6962 34.3112C32.8617 34.1295 33.081 34.0241 33.3223 33.9856C34.305 34.9804 34.4539 36.1322 34.6091 37.3515C34.6567 37.726 34.7056 38.1137 34.7808 38.4889C34.8518 38.8421 35.1435 39.1092 35.5021 39.1484C35.5325 39.1519 35.5628 39.1532 35.5925 39.1532C35.9173 39.1532 36.2158 38.9625 36.3489 38.6603C37.8895 35.1725 39.2845 33.6985 41.8298 31.7136C42.7422 31.0018 43.8028 30.4076 44.8289 29.8327C46.4239 28.9391 47.8017 28.1673 48.4589 27.0733C48.694 26.6823 48.5671 26.1749 48.1748 25.9401C47.7831 25.7054 47.2748 25.832 47.0397 26.2238C46.608 26.9418 45.3502 27.6462 44.0186 28.3925C42.989 28.9694 41.8222 29.6228 40.8106 30.4117C38.7287 32.0358 37.3102 33.3997 36.0069 35.6558C35.8 34.7615 35.4276 33.821 34.6305 32.9598C33.9119 30.2183 33.8809 23.4465 37.0316 19.189C40.874 13.9979 46.1053 11.3948 52.1489 11.6723C52.6082 11.695 52.9923 11.3404 53.0129 10.8846C53.0336 10.4289 52.6799 10.0426 52.2241 10.022C45.5991 9.72319 39.8859 12.5521 35.7007 18.2072C32.381 22.6919 32.2252 29.441 32.9003 32.8062C32.472 32.9178 32.0817 33.1443 31.7769 33.4789C31.1798 34.1357 30.9949 35.0913 31.2825 36.0352C31.5094 36.7794 31.7797 37.5236 32.0411 38.2438C32.5003 39.5085 32.9341 40.7037 33.1223 41.83L33.1803 42.1866C33.5223 44.2975 34.0953 47.8252 36.5303 48.3622C36.9627 50.1192 37.4778 51.5932 38.2391 53.3413C38.517 53.9795 38.826 54.5777 39.1514 55.1485C39.1473 55.1829 39.1411 55.2173 39.1411 55.2524C39.1494 57.3358 39.008 58.4869 38.8011 59.7709C38.6687 59.7557 38.537 59.7399 38.406 59.7248C36.9585 59.5554 35.5911 59.3957 34.9429 59.2752C33.4209 58.9922 32.4148 58.807 31.7962 59.7337C31.6073 60.0174 31.5452 60.3705 31.6025 60.7478C29.8833 60.4711 27.2077 60.3017 24.3397 61.1203C21.6682 61.8824 19.8918 62.8015 18.3278 65.3454C16.1963 65.8577 13.5841 66.8952 12.5042 68.9785C11.194 71.5045 9.25415 76.3079 8.27631 79.972C7.24744 83.8254 5.84274 87.9011 4.51803 90.8746L4.0629 91.8929C2.6313 95.088 1.2797 98.1056 0.270827 101.967C0.177732 102.323 0.0894645 102.665 0.00326538 103.001H1.70863C1.76104 102.798 1.81345 102.595 1.86861 102.384V102.382ZM43.2966 76.9606C43.3221 77.2876 43.1704 77.6057 42.9104 77.7696C42.656 77.9307 42.3463 77.9155 42.0146 77.7269C41.3485 77.3469 40.2596 76.4601 39.1073 75.521C38.8149 75.2828 38.5094 75.035 38.1998 74.785C38.9756 74.8215 39.7259 74.7706 40.6168 74.6715L40.6596 74.7162C41.2519 75.3358 41.9229 76.0381 43.1469 76.5083C43.2207 76.5365 43.2966 76.5496 43.3718 76.5565C43.3159 76.6797 43.2856 76.816 43.2966 76.9606V76.9606ZM49.2574 72.288C49.0016 72.4181 48.7582 72.5103 48.5258 72.5978C48.3879 72.6494 48.2582 72.699 48.1368 72.7506C47.9624 72.8257 47.6334 72.9048 47.2748 72.9833C47.2583 72.9758 47.2438 72.9661 47.2266 72.9592C46.5839 72.7189 46.0184 72.4807 45.3454 72.1158C46.3942 72.3823 47.7293 72.3582 49.2574 72.2873V72.288ZM54.7121 77.1582C54.4645 77.7765 52.7681 78.0525 51.3421 77.9238C50.8283 77.877 49.6822 77.5382 48.5678 77.1479C48.843 77.0625 49.1209 76.9634 49.4022 76.8353C51.0138 76.7651 52.1172 76.6054 53.0978 76.2715C54.2859 76.5358 54.6473 76.7809 54.7328 76.9413C54.7431 76.9606 54.77 77.0116 54.7107 77.1589L54.7121 77.1582ZM56.1271 73.7881C55.5065 73.9678 54.8024 74.1716 53.8446 74.5902C53.8287 74.5971 53.8136 74.604 53.7991 74.6122C52.724 75.1906 51.7213 75.5024 49.2278 75.6023C49.1436 75.6057 49.0609 75.6264 48.985 75.6629C46.9349 76.6412 45.2468 76.1269 44.7027 75.448C44.6041 75.3255 44.5441 75.2374 44.5075 75.1768C44.6137 75.1155 44.773 75.0384 44.9095 74.9723L45.1737 74.8429C45.6647 74.5978 46.4763 74.4243 47.1928 74.2708C47.7789 74.1455 48.2858 74.0374 48.6258 73.8914C48.7313 73.846 48.8444 73.804 48.9643 73.7585C49.5726 73.5293 50.3828 73.2188 51.2566 72.3196C52.4068 72.7685 54.0384 73.163 55.5265 73.3413C55.7541 73.4804 56.0175 73.6126 56.3002 73.7379C56.2416 73.7551 56.1885 73.7716 56.1271 73.7895V73.7881ZM44.4206 64.6088C44.4468 64.5743 44.4703 64.5379 44.4889 64.4979C44.5103 64.5275 44.5337 64.5564 44.5592 64.5812C44.5144 64.5902 44.4668 64.5991 44.4206 64.6081V64.6088ZM62.69 59.3929C63.0369 58.9826 63.3679 58.5468 63.692 58.0979C63.8154 59.7275 64.0347 61.2187 64.2181 62.3382C64.2202 62.3499 64.2243 62.3602 64.2264 62.3719C64.174 62.3657 64.1209 62.3588 64.0664 62.3588C63.6492 62.3588 63.3293 62.3403 62.9583 62.3189C62.4997 62.2921 61.979 62.2625 61.1619 62.2625C60.8536 62.2625 60.364 62.2439 59.7765 62.217C61.1612 61.1485 62.3107 59.8432 62.69 59.3936V59.3929ZM52.6999 63.3048C54.0204 63.1795 56.7636 63.3124 58.7669 63.4088C59.7868 63.4583 60.6681 63.501 61.1612 63.501C61.9425 63.501 62.4438 63.5299 62.8858 63.5554C63.2596 63.5767 63.6147 63.5988 64.0775 63.5926C64.0913 63.6077 64.1416 63.7117 64.1092 63.9155C64.0851 64.0676 63.9533 64.5909 63.2899 64.9441C61.908 65.6793 59.9661 65.6139 59.0365 65.4597C58.9586 65.4473 58.8772 65.4487 58.8 65.4659C57.736 65.7021 56.4057 65.7 55.2452 65.7014C54.67 65.7014 54.168 65.7027 53.7432 65.731C52.3013 64.9647 50.6159 64.1943 48.8995 64.0993C48.332 64.0676 47.8424 64.0745 47.3769 64.1117C49.1009 63.7434 51.2469 63.4432 52.6999 63.3048V63.3048ZM40.7285 57.5451C41.3823 58.4235 42.0519 59.2332 42.6877 59.9953L42.847 60.186C42.8814 60.228 42.9208 60.2693 42.9566 60.3106C42.2215 60.1943 41.3492 60.0793 40.4417 59.9671C40.5658 59.1898 40.6672 58.4525 40.7285 57.5444V57.5451ZM32.8244 60.4215C32.9741 60.1964 33.4871 60.2673 34.7118 60.4938C35.4007 60.6211 36.7248 60.776 38.257 60.9557C40.5161 61.2201 43.3283 61.5492 44.2255 61.8287L44.8096 62.0105C45.6322 62.2659 46.5659 62.5564 47.4086 62.838C46.3536 63.0535 45.3978 63.3 44.7551 63.5644C44.6047 63.6263 44.4937 63.7406 44.4303 63.8769C44.3234 63.7268 44.1531 63.6243 43.9545 63.6153C41.7333 63.5148 35.8793 62.6329 34.3836 62.0181C33.4361 61.6291 32.9617 61.0459 32.843 60.6652C32.7955 60.5131 32.8162 60.4332 32.8237 60.4215H32.8244Z" fill="black"/>
</g>
<defs>
<clipPath id="clip0_2769_4661">
<rect width="99" height="93" fill="white" transform="translate(0 10)"/>
</clipPath>
</defs>
</svg>