<svg width="124" height="116" viewBox="0 0 124 116" fill="none" xmlns="http://www.w3.org/2000/svg">
<g clip-path="url(#clip0_2769_4639)">
<g clip-path="url(#clip1_2769_4639)">
<path d="M72.8601 77.2389C72.4607 80.2304 71.814 86.8706 71.8511 91.7991C71.8863 96.4324 72.5614 111.025 72.823 117.231H85.9775C85.9775 117.231 87.9583 106.134 90.9102 95.1853C92.4673 89.4097 95.1388 81.8088 96.3478 78.5934C97.8332 74.6433 98.2711 71.2613 98.3097 69.0841C97.7494 68.1813 97.1885 67.3063 96.8519 66.6294C96.0389 69.0841 95.5064 70.2128 93.9372 71.9062C92.3673 73.599 89.5924 75.8285 88.1354 76.9572C86.6783 78.0859 84.9402 79.1296 84.015 80.146C82.8364 81.44 81.6328 85.3378 81.2962 87.2571C80.4832 85.4793 79.8581 84.205 79.2499 83.3634C78.5774 82.432 77.9327 82.2912 77.1197 81.9245C75.7472 81.3053 74.9146 80.7958 74.401 79.7235C74.0083 78.9037 73.9265 77.4021 73.9434 76.8266C73.9624 76.187 73.0277 75.9802 72.8594 77.2402L72.8601 77.2389Z" fill="#D5DC51"/>
<path d="M55.871 22.3342C54.2139 22.6628 52.4163 22.0607 51.2316 20.8598C51.4776 20.7482 51.7168 20.6237 51.9472 20.4843C52.9488 19.8815 53.7165 18.8841 53.949 17.8826C54.1146 17.1696 54.0071 16.4872 53.6368 15.9089C53.1948 15.2183 52.4277 14.823 51.5316 14.823H51.5289C50.4963 14.8237 49.49 15.3558 48.9663 16.1783C48.3182 17.1948 48.2506 18.5732 48.7426 19.8849C47.1416 20.0488 45.373 19.6515 43.847 18.7119C43.0401 18.2146 42.342 17.5962 41.7892 16.9076C43.7882 16.3368 45.6082 15.1258 46.8111 13.4113C48.1519 11.5015 48.4378 8.61207 46.5624 7.27381C45.2176 6.31587 43.476 6.66557 42.2927 7.31327C40.0334 8.5488 38.6372 11.1137 38.817 13.695C38.8636 14.372 39.0157 15.0414 39.261 15.6884C39.2407 15.6884 39.2198 15.6884 39.1988 15.6884C38.3622 15.6884 37.5255 15.5503 36.7342 15.2605C33.6315 14.125 31.4967 10.7708 31.767 7.45955C32.0373 4.14758 34.6885 1.19076 37.9344 0.581157C38.3649 0.500195 38.648 0.0838177 38.5676 -0.348888C38.4872 -0.782274 38.0702 -1.06734 37.6438 -0.986381C33.7201 -0.249556 30.5147 3.32503 30.1883 7.32892C29.8605 11.3328 32.4421 15.387 36.1928 16.76C37.4289 17.2124 38.7508 17.3587 40.0551 17.2356C40.7768 18.335 41.7872 19.3134 43.0212 20.0727C45.0844 21.3449 47.4639 21.7885 49.5812 21.3803C50.8437 23.0349 52.8691 24.0214 54.9336 24.0214C55.3493 24.0214 55.7669 23.9813 56.1805 23.8983C56.6103 23.8126 56.8887 23.3921 56.8029 22.9608C56.7171 22.5294 56.3035 22.245 55.8717 22.3348L55.871 22.3342ZM40.9073 15.4986C40.618 14.8761 40.4416 14.2277 40.3964 13.5834C40.2619 11.6444 41.3519 9.64213 43.0482 8.71412C43.4875 8.47328 44.0687 8.27802 44.6256 8.27802C44.9918 8.27802 45.3473 8.36306 45.646 8.57533C46.6746 9.30943 46.4043 11.228 45.5176 12.4908C44.4323 14.0379 42.7387 15.0897 40.9079 15.4986H40.9073ZM50.3057 19.5182C49.9732 18.7575 49.8225 17.7873 50.299 17.0403C50.5362 16.6688 51.0302 16.4185 51.5296 16.4185H51.531C51.7357 16.4185 52.1067 16.4647 52.3041 16.7736C52.4399 16.9859 52.473 17.2294 52.4054 17.52C52.2716 18.0976 51.7601 18.7392 51.1329 19.1161C50.8714 19.2732 50.5943 19.4073 50.3044 19.5188L50.3057 19.5182Z" fill="#040000"/>
<path d="M72.1776 27.283C72.6344 27.3436 73.0507 27.0204 73.1102 26.5625C73.3427 24.7834 73.6535 23.2581 75.1153 22.6117C76.6852 21.9171 78.3855 22.3545 79.4459 23.7268C79.9399 24.3664 80.4488 25.7298 80.9414 27.0476C80.9955 27.1912 81.0496 27.3354 81.1036 27.4797C79.7284 26.6496 78.1091 26.4088 76.7535 26.9313C76.4318 27.0551 76.2709 27.4177 76.3939 27.7416C76.5176 28.0654 76.8771 28.2274 77.1995 28.1035C78.5998 27.5647 80.4136 28.143 81.6139 29.5071C81.7186 29.6255 81.8592 29.684 82.0045 29.7024C82.3485 30.4589 82.7229 31.1529 83.1527 31.7074C84.8483 33.894 88.4233 36.7345 90.8413 37.3142C90.9062 37.3298 90.9711 37.3373 91.0346 37.3373C91.4104 37.3373 91.7516 37.0781 91.8422 36.6937C91.9483 36.244 91.6726 35.7929 91.2259 35.6854C89.2343 35.2085 85.9552 32.6014 84.4624 30.6773C83.7136 29.7105 83.0959 28.0573 82.4978 26.4578C81.9369 24.9562 81.4077 23.5384 80.759 22.6981C79.2391 20.7312 76.7028 20.0801 74.4462 21.0782C72.0079 22.1566 71.6653 24.778 71.4612 26.3435C71.4017 26.802 71.7221 27.2225 72.1776 27.2824V27.283Z" fill="black"/>
<path d="M85.8607 46.5664C86.0654 46.5664 86.2661 46.465 86.3851 46.2786C86.5716 45.9874 86.4885 45.5989 86.1986 45.4105C85.3187 44.8397 84.1177 44.492 83.2655 44.3015C82.4377 44.1164 80.3089 43.7409 78.4166 44.2545C78.0841 44.3444 77.8875 44.6893 77.9767 45.024C78.0666 45.3588 78.4072 45.5561 78.741 45.4669C80.3657 45.0261 82.2572 45.3628 82.9946 45.5275C84.0738 45.769 84.9483 46.0935 85.5221 46.4664C85.6261 46.5344 85.7431 46.5664 85.8593 46.5664H85.8607Z" fill="black"/>
<path d="M73.5697 50.46C73.2257 50.4818 72.9649 50.7797 72.9865 51.126C73.0419 52.018 72.8534 55.647 72.3425 56.8172C72.2039 57.1343 72.3472 57.5051 72.6621 57.6445C72.7439 57.6806 72.829 57.6976 72.9128 57.6976C73.1528 57.6976 73.3812 57.5574 73.4839 57.3227C74.1597 55.7763 74.2807 51.8384 74.2313 51.0478C74.2097 50.7015 73.9198 50.4396 73.5697 50.4607V50.46Z" fill="black"/>
<path d="M80.6136 50.2504C80.6136 51.0539 81.2611 51.7057 82.0592 51.7057C82.8573 51.7057 83.5047 51.0539 83.5047 50.2504C83.5047 49.4469 82.8573 48.7952 82.0592 48.7952C81.2611 48.7952 80.6136 49.4469 80.6136 50.2504Z" fill="black"/>
<path d="M69.9738 48.3577C69.2709 48.4203 68.758 49.1204 68.8283 49.9212C68.8986 50.7219 69.5257 51.32 70.2286 51.2574C70.9314 51.1948 71.4443 50.4947 71.374 49.6946C71.3038 48.8938 70.6766 48.2958 69.9738 48.3584V48.3577Z" fill="black"/>
<path d="M137.06 105.782C137.187 105.782 137.317 105.756 137.44 105.7C137.912 105.488 138.125 104.932 137.915 104.457C137.517 103.556 137.208 102.696 136.85 101.701C136.412 100.48 135.915 99.0965 135.113 97.2405C134.576 95.9955 133.392 93.0693 132.139 89.9716C130.629 86.244 129.07 82.3891 128.544 81.2386C127.222 78.3471 124.83 76.1087 121.982 75.097C120.344 74.5153 118.563 74.0697 116.22 73.539C114.449 73.1376 108.486 71.7585 105.356 70.6917C104.063 69.81 100.759 67.841 98.6746 66.7606C98.6678 66.7572 98.6604 66.7579 98.6543 66.7545C98.5725 66.7144 98.486 66.6837 98.3948 66.6694C98.3779 66.6429 98.3671 66.6239 98.3489 66.5967C97.8663 65.8455 97.5744 64.9992 97.1926 63.2418C96.9553 62.1499 97.1209 61.1327 97.2959 60.0557C97.3622 59.6475 97.4304 59.2257 97.4764 58.7998C97.5311 58.2827 97.1594 57.8187 96.6458 57.7629C96.6276 57.7609 96.61 57.7629 96.5918 57.7629C96.9229 57.6602 97.2223 57.503 97.4723 57.3411C98.3049 56.8023 99.3112 55.4245 99.8566 54.0972C99.9113 54.3387 99.9661 54.5809 100.012 54.8245C100.358 56.6573 99.2288 58.197 98.2198 59.1658C97.888 59.4849 97.8758 60.0149 98.1921 60.3496C98.3556 60.5218 98.5746 60.6088 98.7935 60.6088C98.9997 60.6088 99.2065 60.532 99.3673 60.3775C101.169 58.6467 101.955 56.705 101.672 54.7489C101.749 54.8149 101.83 54.8782 101.929 54.9177C102.043 54.9639 102.16 54.985 102.276 54.985C102.648 54.985 102.998 54.7612 103.145 54.3924C103.753 52.8623 103.918 49.7375 103.448 48.6278C102.652 46.7459 102.748 45.4533 102.861 43.9558C102.884 43.6496 102.907 43.3414 102.923 43.0264C103.104 39.4307 102.039 34.2573 100.499 31.2495C98.8821 28.094 95.8119 25.2236 92.2855 23.5717C87.5582 21.3571 83.8454 22.1395 82.8208 22.4321C82.3234 22.5736 82.0349 23.0941 82.1754 23.5948C82.316 24.0949 82.8337 24.3854 83.3304 24.2439C84.1988 23.9969 87.3528 23.3383 91.4955 25.2787C94.6583 26.7605 97.402 29.3152 98.8348 32.1122C100.072 34.5274 101.241 39.2341 101.054 42.9305C101.039 43.2299 101.017 43.5224 100.995 43.8129C100.98 44.0231 100.964 44.2347 100.951 44.4484C100.862 44.3266 100.768 44.2123 100.661 44.1136C99.816 43.3333 98.5989 43.4612 97.5615 44.4416C97.0973 44.8804 96.2437 46.0452 95.5578 47.1201C95.5294 47.0983 95.5084 47.0698 95.4753 47.0521C94.98 46.7881 92.9296 45.6444 91.5847 44.1864C92.9093 44.5613 94.2812 44.8266 95.8207 45.0124C95.8545 45.0165 95.8876 45.0185 95.9207 45.0185C96.3356 45.0185 96.6945 44.7062 96.7452 44.281C96.7999 43.8218 96.4748 43.4054 96.0187 43.3503C93.7013 43.0706 91.7929 42.6012 89.831 41.8283C87.5278 40.9207 85.6403 39.9696 83.3493 38.0319C82.0173 36.9053 80.8826 35.5255 79.5682 33.928L78.9931 33.2307C77.6746 31.6373 75.2856 30.329 73.4562 31.042C73.0277 31.2087 72.8148 31.6937 72.9811 32.1251C73.1467 32.5564 73.6292 32.7707 74.0563 32.6034C74.9801 32.2428 76.6548 33.0218 77.7158 34.3029L78.2875 34.9969C79.5966 36.5882 80.8326 38.0911 82.2802 39.3151C84.7368 41.3929 86.8331 42.4461 89.2255 43.3884C89.3471 43.436 89.4681 43.4795 89.5897 43.5251C90.7494 45.8186 93.9284 47.6494 94.8921 48.1631C94.9036 48.1692 94.9171 48.1672 94.9286 48.1726C94.8482 48.3203 94.7718 48.4631 94.713 48.587C94.5643 48.8999 94.6961 49.2748 95.0063 49.4245C95.3172 49.5748 95.6896 49.4415 95.8382 49.1292C96.312 48.1325 97.8292 45.9125 98.4151 45.358C98.6178 45.1668 99.3173 44.5783 99.8181 45.0403C100.236 45.4254 100.402 46.3316 100.263 47.4651C100.197 48.0141 100.051 48.7611 99.8701 49.5531C99.7248 49.6687 99.6099 49.8245 99.5667 50.0212C99.4714 50.4607 99.4369 50.8818 99.4369 51.2921C99.1936 52.1935 98.9429 53.012 98.7489 53.5114C98.2644 54.7578 97.3581 55.9212 96.7972 56.2845C96.1822 56.6825 95.7565 56.7839 95.1381 56.2342C94.8793 56.0042 94.4859 56.0294 94.2582 56.2893C94.0305 56.5492 94.0555 56.9458 94.3136 57.1751C94.8948 57.6915 95.4429 57.8731 95.9383 57.8731C96.0092 57.8731 96.0748 57.8582 96.143 57.8514C95.8612 57.9881 95.6517 58.2623 95.6159 58.5984C95.576 58.9719 95.5145 59.3502 95.4496 59.7502C95.2631 60.898 95.0516 62.1995 95.3645 63.6432C95.7342 65.3434 96.0836 66.5388 96.7776 67.6185C96.9783 67.9308 97.1148 68.1587 97.2317 68.3554C97.3635 68.5758 97.4845 68.7738 97.6386 69.0003C97.8758 70.0794 97.8684 70.9822 97.3318 73.505C96.9452 75.3215 96.1653 77.4279 95.2624 79.8663C95.0692 80.3888 94.8685 80.9304 94.6657 81.4862C94.5441 81.193 94.4224 80.8984 94.2987 80.5902C93.9331 79.6812 93.5547 78.7417 93.1046 77.879C92.5166 76.753 91.7868 76.0699 90.9312 75.8032C92.2267 74.7793 93.3513 73.8275 93.9081 73.1655C95.476 71.2999 96.3748 69.7528 96.7364 68.2962C96.8621 67.7914 96.5573 67.2804 96.0558 67.1539C95.5517 67.028 95.0462 67.3348 94.9212 67.839C94.6319 69.0051 93.8561 70.3107 92.4795 71.9483C91.6557 72.9287 88.8869 75.0269 86.8655 76.5591C85.5916 77.5245 84.586 78.2872 84.1028 78.7253C82.6309 80.0582 82.1991 81.2876 81.4361 83.7205C81.3246 84.0757 81.1955 84.5574 81.0577 85.118C80.2068 83.2266 79.2769 81.689 77.9726 81.2114C77.0731 80.8821 76.3176 80.1935 75.6613 79.1057C75.3113 78.5253 75.3363 76.6047 75.3559 75.0609C75.366 74.2853 75.3735 73.4961 75.3484 72.7525C75.5133 72.796 75.6708 72.843 75.8526 72.8804C76.55 73.0246 77.2988 73.0954 78.0821 73.0954C79.6405 73.0954 81.3334 72.8131 83.0222 72.2606C84.7564 71.6932 86.7513 70.4366 89.1194 68.4186C90.6278 67.1341 91.8354 65.6741 92.2713 64.6087C92.468 64.1276 92.2402 63.5772 91.7631 63.3793C91.2846 63.1806 90.7386 63.4105 90.5419 63.8909C90.2763 64.5393 89.3599 65.7462 87.911 66.981C85.7309 68.8377 83.9434 69.9787 82.4437 70.4692C80.2413 71.1897 77.9746 71.3952 76.2283 71.0353C74.503 70.6788 73.9772 70.0644 73.0216 68.9493L72.9473 68.8629C72.1526 67.9363 71.7457 66.7491 71.0726 64.7821L70.8205 64.0487C69.9575 61.5505 68.9215 57.9895 68.612 56.0185C68.3261 54.1951 68.1329 51.6057 68.4491 49.8068C68.7127 48.3033 68.4735 47.1997 68.2626 46.2268C68.2167 46.0139 68.1748 45.8098 68.1383 45.6097C69.3013 45.043 70.3569 45.1852 70.9388 45.5145C71.2382 45.6846 71.6193 45.5778 71.7883 45.275C71.9572 44.9729 71.8505 44.5899 71.5504 44.4205C70.78 43.9844 69.4703 43.7551 68.0443 44.2892C68.0707 43.2469 68.2572 41.9719 68.4768 41.2357C68.5667 40.9357 68.4978 40.6268 68.3221 40.3948C68.412 40.3329 68.4883 40.2492 68.5377 40.1431C68.8634 39.4348 68.8634 38.5089 68.8634 37.4373C68.8634 36.5147 68.8634 35.5616 69.0783 34.7084C69.496 33.049 70.3982 32.172 71.6876 32.172C72.0323 32.172 72.3114 31.8911 72.3114 31.5441C72.3114 31.1971 72.0323 30.9161 71.6876 30.9161C69.8176 30.9161 68.4255 32.1856 67.8693 34.3995C67.6165 35.4037 67.6165 36.4834 67.6165 37.4359C67.6165 38.0925 67.6152 38.7205 67.5294 39.1879C66.4602 37.8469 65.8432 35.7466 66.1507 34.3846C66.7718 31.6284 68.4822 29.6697 71.0969 28.7206C71.5288 28.5641 71.7525 28.0838 71.597 27.649C71.4409 27.2143 70.9638 26.9884 70.5326 27.1456C67.403 28.2818 65.2715 30.7208 64.5295 34.0138C64.0909 35.9596 64.9032 38.7368 66.4197 40.4744C66.4974 40.5635 66.5913 40.6289 66.692 40.6758C66.69 40.6819 66.6866 40.6867 66.6853 40.6928C66.321 41.9161 66.0487 44.1422 66.2251 45.505C66.2751 45.8914 66.3562 46.2649 66.4346 46.6269C66.6251 47.5086 66.8056 48.3407 66.6062 49.4782C66.2507 51.5057 66.4542 54.3373 66.7637 56.311C67.0908 58.3916 68.1626 62.0893 69.0533 64.6665L69.3034 65.3951C70.0238 67.5008 70.5002 68.8915 71.5308 70.093L71.6045 70.1787C72.162 70.8291 72.6864 71.4272 73.4251 71.9184C73.5136 72.8165 73.4994 73.9438 73.4852 75.0344C73.4812 75.3392 73.4778 75.6365 73.4758 75.9277C73.4501 75.8556 73.4163 75.7876 73.3744 75.7243C73.3704 75.7182 73.3704 75.7114 73.3663 75.7052C73.3636 75.7012 73.3595 75.6998 73.3568 75.6957C73.2906 75.6032 73.2082 75.5236 73.1122 75.4603C73.1034 75.4549 73.096 75.4481 73.0872 75.4426C72.9973 75.3868 72.8959 75.3487 72.7878 75.3263C72.7743 75.3236 72.7615 75.3195 72.7473 75.3174C72.7364 75.3154 72.7263 75.3113 72.7148 75.31C72.6135 75.2964 72.5155 75.3045 72.4209 75.3222C72.4121 75.3242 72.4033 75.3249 72.3938 75.327C72.2762 75.3528 72.1681 75.4011 72.0708 75.4678L72.0633 75.4712C71.1355 76.1216 68.5667 77.0959 66.3007 77.9552C64.6133 78.5954 63.0183 79.2002 62.0729 79.6758C59.6062 80.9174 57.4308 83.877 56.5306 87.2148C56.3954 87.7169 56.6894 88.234 57.1882 88.3701C57.2706 88.3925 57.3531 88.4034 57.4335 88.4034C57.8457 88.4034 58.2228 88.1278 58.3357 87.7081C59.0906 84.9084 60.9288 82.3571 62.9095 81.3597C63.4218 81.1018 64.1834 80.7875 65.0606 80.4446C64.7869 80.7562 64.5639 81.0488 64.4234 81.293C64.2916 81.5223 64.2753 81.8012 64.3801 82.0448C64.4848 82.2884 64.6977 82.4673 64.9539 82.5279C65.5337 82.6639 66.1507 82.8544 66.7191 83.0674C66.5407 83.1606 66.3629 83.2517 66.1865 83.3429C65.3789 83.7573 64.616 84.1491 64.0131 84.605C63.8408 84.7349 63.7252 84.9275 63.6915 85.1418C62.5588 92.2358 64.4653 103.895 65.3377 108.579C65.7033 110.542 66.1548 113.768 66.6353 117.227H68.314C67.8193 113.662 67.353 110.315 66.9725 108.27C66.1304 103.749 64.3051 92.6223 65.2816 85.7541C65.7425 85.45 66.3285 85.1493 66.9434 84.8336C67.6253 84.4832 68.3302 84.1212 69.0026 83.6906C69.2486 83.5327 69.3946 83.2572 69.3871 82.9633C69.3797 82.67 69.2209 82.4013 68.9668 82.2564C68.3451 81.9006 67.4834 81.5393 66.5853 81.2488C67.28 80.5242 68.2876 79.6608 69.0398 79.2322C69.2229 79.1274 69.3439 78.9607 69.4081 78.7743C70.1596 78.477 70.8651 78.1838 71.4815 77.9021C71.0875 82.0319 70.5408 89.9859 70.6523 93.6979C70.6786 94.5579 70.7307 96.0635 70.7962 97.9556C70.9767 103.131 71.2686 111.527 71.3794 117.227H73.2501C73.1392 111.493 72.8466 103.078 72.6662 97.8896C72.6006 96.0009 72.5479 94.4987 72.5222 93.6408C72.4979 92.8332 72.5074 91.8018 72.5405 90.6438C73.1392 88.9558 73.7056 87.3611 74.3111 85.8976C74.6307 85.1241 75.3802 83.3137 76.3858 82.9449C76.7075 82.8265 77.0515 82.8667 77.4367 83.0667C77.4759 83.0871 77.5178 83.0898 77.5583 83.1014C78.516 83.7457 79.4945 86.165 80.2933 88.1401C80.3129 88.1884 80.344 88.2272 80.3704 88.2707C79.7142 91.6351 79.0715 95.937 78.9904 99.1149C78.8998 102.668 78.147 109.919 77.5975 115.213C77.5239 115.923 77.4536 116.597 77.3894 117.227H79.2702C79.3296 116.653 79.3925 116.047 79.4587 115.409C80.0115 110.084 80.7691 102.79 80.861 99.1632C80.9854 94.2721 82.4796 86.644 83.2189 84.2866C83.9569 81.9332 84.2853 81.0916 85.3538 80.1235C85.7761 79.7404 86.8514 78.9254 87.9901 78.0627C88.4179 77.7388 88.8551 77.4061 89.291 77.0728C90.498 76.6598 91.263 77.051 91.999 78.4614C92.4207 79.2696 92.7876 80.1799 93.1418 81.0603C93.4297 81.7747 93.7297 82.5054 94.0555 83.1851C93.5905 84.5084 93.1208 85.914 92.6741 87.4223C91.1853 92.4542 86.754 108.188 85.9471 114.278C85.8309 115.156 85.6863 116.154 85.5254 117.227H87.417C87.5623 116.252 87.6941 115.339 87.8015 114.527C88.5334 109 92.6085 94.2415 94.467 87.9598C95.2915 85.1738 96.2065 82.702 97.0141 80.5208C97.9427 78.013 98.7442 75.8474 99.1598 73.8962C99.6322 71.6762 99.7309 70.5026 99.6092 69.4501C99.616 69.4385 99.6173 69.4256 99.6227 69.4133C101.481 70.4604 103.538 71.7109 104.399 72.311C104.469 72.3599 104.545 72.3994 104.626 72.4273C104.743 72.4674 104.869 72.5089 104.993 72.5498C104.982 72.5559 104.97 72.5566 104.96 72.5634C104.578 72.8199 104.474 73.3397 104.729 73.7241C105.485 74.8657 105.957 76.206 106.321 77.4606C105.033 77.8538 102.485 78.6328 101.286 79.0043C100.944 79.1104 100.707 79.4247 100.699 79.786C100.691 80.1466 100.914 80.4718 101.251 80.5929C102.711 81.1182 104.646 81.9972 106.343 82.9014C104.629 87.5754 100.116 98.1917 97.4365 104.196C97.127 104.89 96.7452 105.74 96.316 106.697C94.9793 109.675 93.1796 113.686 91.6428 117.227H93.4574C94.9198 113.875 96.5803 110.175 97.8319 107.386C98.2617 106.429 98.6435 105.578 98.953 104.883C101.783 98.5427 106.651 87.0699 108.153 82.7871C108.288 82.4013 108.126 81.974 107.771 81.7761C106.605 81.1277 105.274 80.4691 104.022 79.9146C105.74 79.3887 107.584 78.826 107.584 78.826C108.014 78.6947 108.263 78.2423 108.145 77.8048C107.726 76.2597 107.194 74.4901 106.194 72.9294C109.388 73.8894 113.83 74.9249 115.808 75.3732C118.084 75.8889 119.806 76.3189 121.357 76.87C123.731 77.7137 125.731 79.5921 126.842 82.0237C127.351 83.1361 128.903 86.9713 130.404 90.6799C131.662 93.7884 132.851 96.7241 133.396 97.9889C134.173 99.7905 134.66 101.144 135.089 102.339C135.459 103.368 135.778 104.258 136.203 105.22C136.358 105.571 136.7 105.779 137.058 105.779L137.06 105.782ZM101.448 53.5828C101.444 53.5644 101.441 53.5454 101.436 53.527C101.193 52.4527 100.964 51.4377 101.193 50.3804C101.239 50.1702 101.195 49.964 101.097 49.7905C101.207 49.3068 101.303 48.8401 101.378 48.4182C101.476 48.723 101.588 49.0367 101.728 49.3667C101.929 49.8538 101.891 52.3316 101.448 53.5835V53.5828ZM73.1602 85.4187C73.0122 85.7772 72.8669 86.1433 72.7229 86.5147C72.9365 82.702 73.2636 78.6995 73.4792 76.7768C73.4981 78.1688 73.6116 79.3383 74.0617 80.0854C74.5152 80.8372 75.0308 81.459 75.6025 81.9523C74.307 82.6796 73.5413 84.4988 73.1602 85.4194V85.4187Z" fill="black"/>
<path d="M118.414 83.5981C116.503 86.4841 114.857 95.5567 115.091 101.915C115.11 102.423 115.525 102.822 116.025 102.822H116.06C116.577 102.802 116.98 102.366 116.961 101.846C116.742 95.9064 118.262 87.225 119.971 84.6431C120.257 84.2104 120.141 83.6253 119.711 83.3368C119.282 83.0483 118.701 83.1654 118.414 83.5981Z" fill="black"/>
<path d="M27.4635 90.5193C25.2833 90.0798 22.2733 90.9752 20.4743 91.51C20.2769 91.5685 20.0951 91.6229 19.9329 91.6692C19.6018 91.7644 19.4099 92.1121 19.5045 92.4454C19.5829 92.721 19.8323 92.9006 20.1039 92.9013C20.1607 92.9013 20.2181 92.8931 20.2756 92.8768C20.4412 92.8292 20.6263 92.774 20.8277 92.7142C22.5166 92.2128 25.3435 91.3739 27.2188 91.7501C27.5547 91.8195 27.8852 91.5984 27.9527 91.2575C28.0203 90.918 27.8014 90.5867 27.4635 90.5187V90.5193Z" fill="black"/>
<path d="M72.2371 60.8974C71.9323 61.4886 71.8505 62.1955 72.0053 62.8888C72.2931 64.1767 73.3339 65.0727 74.4436 65.0727C74.5943 65.0727 74.747 65.0564 74.8984 65.0217C76.1669 64.7339 76.9326 63.3092 76.6055 61.8458C76.2784 60.3823 74.9808 59.4271 73.7117 59.7122C73.0805 59.8551 72.5567 60.2762 72.2364 60.8974H72.2371ZM74.1726 60.7069C74.8044 60.7069 75.4127 61.2722 75.5924 62.0751C75.7938 62.9758 75.3802 63.8399 74.6706 64.0005C73.9624 64.1603 73.2197 63.5589 73.0183 62.6581C72.9169 62.2057 72.9669 61.7512 73.1589 61.3784C73.3352 61.0361 73.613 60.8062 73.9401 60.7327C74.0171 60.715 74.0949 60.7069 74.1726 60.7069Z" fill="black"/>
<path d="M97.5562 32.7749C97.5629 32.7749 97.5697 32.7749 97.5758 32.7749C97.911 32.7749 98.188 32.5068 98.1988 32.1667C98.2097 31.8204 97.9393 31.5305 97.5953 31.5196C94.6752 31.4278 91.0157 30.3977 88.697 29.0146C88.401 28.8384 88.0185 28.9363 87.8428 29.2343C87.6671 29.533 87.7651 29.9181 88.0611 30.0943C90.5818 31.5979 94.3974 32.6749 97.5562 32.7742V32.7749Z" fill="black"/>
<path d="M59.2129 110.238C58.7466 107.457 58.1079 103.649 57.9261 102.004C57.7119 100.066 57.2747 93.8809 57.7579 91.0996C57.8471 90.5873 57.5065 90.0995 56.9969 90.0097C56.4894 89.9213 56.0035 90.2628 55.9143 90.7751C55.3513 94.0224 55.8913 100.622 56.0663 102.212C56.1765 103.209 56.4441 104.943 56.7408 106.772C55.1364 105.01 52.7684 101.731 51.2093 99.5707C50.6991 98.8632 50.2449 98.2345 49.8827 97.746L49.5914 97.3528C47.96 95.1464 46.2732 92.8652 44.2289 91.8718C43.9728 91.7473 43.6943 91.7609 43.4531 91.8664L41.9507 90.4628C41.6149 90.1492 41.0877 90.1675 40.7755 90.507C40.7539 90.5309 40.7458 90.5608 40.7275 90.586C40.5092 90.705 40.3727 90.9479 40.4045 91.2119C40.4119 91.2752 40.4113 91.3405 40.4167 91.4044L40.3106 91.3065C39.2036 90.2887 38.9062 90.0152 37.6621 87.9666C36.545 86.1269 35.563 84.8934 34.16 83.5681C32.5834 82.0788 31.2797 81.5781 29.6875 81.2522C28.5292 81.0154 26.8647 80.7045 25.5124 80.5684C25.3043 80.5473 25.0366 80.5249 24.7278 80.499C23.4303 80.3895 21.2589 80.2051 20.0492 79.8173C17.0493 78.8532 15.9531 79.7404 15.5618 80.6535C14.936 82.1121 15.9261 83.9137 17.9157 84.937C18.7287 85.3547 19.8363 85.6582 20.9054 85.784C19.6288 86.2385 17.9522 86.957 17.2439 87.3135C16.5864 87.6448 13.946 87.8557 12.7849 87.8557C12.6478 87.8557 12.5241 87.8972 12.4099 87.9564C12.1841 87.6176 11.9077 87.3087 11.5556 87.023C10.5629 86.2195 9.03624 86.2841 8.33475 86.8787C7.86034 87.2815 7.75761 87.8802 8.06781 88.4422C8.11376 88.5252 8.16715 88.6204 8.21851 88.7116C8.16107 88.6463 8.10092 88.5782 8.04618 88.5157C7.53392 87.9319 7.12911 87.4713 6.83041 87.2305C5.91334 86.4923 4.59078 86.4317 3.81766 87.093C3.75549 87.1461 3.66222 87.2366 3.56964 87.3645C2.90938 86.8998 2.04029 86.5093 1.2746 86.6345C0.824511 86.7086 0.469036 86.9508 0.24602 87.3346C-0.0026769 87.7645 -0.0634995 88.2456 0.0703102 88.7266C0.365638 89.7832 1.51113 90.5928 2.42009 91.0854C4.08258 91.9868 6.32355 93.2761 7.37511 94.0095C7.77181 94.4116 8.08403 94.7708 8.35705 95.0865C8.84566 95.6512 9.23087 96.0975 9.76071 96.3642C10.3 96.6357 11.0319 96.7752 11.8665 96.7752C12.3213 96.7752 12.8072 96.7337 13.3087 96.6493C13.3168 96.6479 13.3229 96.6425 13.331 96.6411C13.8845 96.9963 14.6684 97.3596 15.5199 97.312C17.5528 97.1977 18.6368 97.2133 20.4871 97.8338C20.8352 97.9508 21.1771 98.0712 21.5164 98.1903C23.1694 98.772 24.8792 99.3741 27.0729 99.4748C28.2048 99.5265 28.8813 99.5782 29.4247 99.619C30.068 99.668 30.5323 99.7034 31.2993 99.7034C32.4469 99.7034 32.6989 99.7034 33.2781 100.003C32.9078 100.34 32.8591 100.91 33.1815 101.3L34.2648 102.609C33.8228 102.533 33.3991 102.82 33.3112 103.265C33.2213 103.718 33.5133 104.16 33.9634 104.25C34.204 104.299 34.4486 104.321 34.6939 104.321C36.9525 104.321 39.3408 102.432 40.3308 101.552C42.4062 99.7075 44.2735 96.7289 44.3627 94.1816C45.6494 95.1858 46.8868 96.8473 48.0911 98.4754L48.3844 98.8713C48.7426 99.3544 49.1913 99.9762 49.6962 100.676C52.7623 104.924 55.4223 108.518 56.9259 109.464C57.0145 109.52 57.1091 109.555 57.2051 109.578C57.2611 109.911 57.3159 110.239 57.3679 110.551L57.6565 112.28C57.937 113.971 58.2999 115.484 58.7452 117.229H60.6767C60.1874 115.323 59.7941 113.734 59.5021 111.97L59.2122 110.237L59.2129 110.238ZM1.27054 88.3857C1.22797 88.2319 1.24351 88.1027 1.32258 87.9666C1.34556 87.9271 1.37462 87.8897 1.47464 87.8734C1.86593 87.8101 2.61743 88.1489 3.18308 88.6476C3.2243 88.6837 3.27296 88.7028 3.31959 88.7266C3.37028 88.9633 3.45475 89.2198 3.61559 89.5076C3.86497 89.9539 4.14205 90.371 4.43129 90.7676C3.88254 90.4581 3.37974 90.1798 3.01007 89.9798C2.05448 89.462 1.40368 88.866 1.26987 88.3864L1.27054 88.3857ZM10.3189 95.241C10.0101 95.0852 9.71137 94.7402 9.29778 94.2619C9.01664 93.9367 8.66657 93.5319 8.21919 93.0815L7.83939 92.7012C6.77499 91.6412 5.568 90.439 4.70297 88.8912C4.57456 88.6612 4.39345 88.2455 4.6239 88.0482C4.87259 87.836 5.53556 87.7951 6.04985 88.2095C6.26408 88.3823 6.67497 88.8504 7.11019 89.3457C8.02185 90.3839 9.25723 91.7861 10.4811 92.5998C11.1765 93.7537 11.9456 94.8511 12.3801 95.3974C12.4045 95.4281 12.4342 95.4594 12.4612 95.49C11.5752 95.5675 10.8001 95.4825 10.3189 95.2403V95.241ZM29.5659 97.7419C29.0104 97.6998 28.3184 97.6474 27.158 97.5943C25.238 97.5065 23.7303 96.9752 22.1334 96.4132C21.7853 96.2907 21.4353 96.1676 21.0784 96.0479C18.8564 95.3022 17.4575 95.3178 15.4152 95.4321C15.1077 95.4519 14.6576 95.2811 14.2244 94.9804C14.0223 94.8409 13.7858 94.7981 13.5614 94.8307C13.4871 94.7572 13.408 94.6831 13.354 94.6144C12.9167 94.0639 12.1321 92.9332 11.4793 91.8378C10.7494 90.6132 9.68772 88.7925 9.15789 87.8326L9.15451 87.8265C9.2106 87.7863 9.339 87.721 9.56675 87.6924C10.0013 87.6373 10.4744 87.7591 10.7744 88.002C11.3664 88.481 11.6638 88.9926 11.8016 89.7668C11.8239 89.8934 11.8848 90.0097 11.9746 90.1002C12.0787 90.205 12.22 90.3302 12.3855 90.4764C12.912 90.9404 13.7081 91.6419 14.1095 92.5338C14.2109 92.7583 14.4326 92.9026 14.6779 92.9026C15.2875 92.9026 15.9896 93.1189 16.733 93.3475C16.9662 93.419 17.204 93.4924 17.4473 93.5618C17.7778 93.6571 18.1231 93.4632 18.2178 93.1298C18.3117 92.7964 18.1198 92.4488 17.7886 92.3542C17.5534 92.2869 17.3237 92.2161 17.0979 92.1467C16.4005 91.9324 15.7348 91.7276 15.0712 91.6657C14.5427 90.7084 13.7513 90.0104 13.2073 89.5314L13.1965 89.5219C14.3129 89.4865 16.9736 89.3232 17.99 88.8116C18.8604 88.3735 21.5224 87.2624 22.4348 87.0583C23.4519 86.8311 24.177 85.9868 24.052 85.1765C23.9695 84.6437 23.4863 84.0546 22.4057 84.1559C21.2819 84.2566 19.6464 83.9471 18.6753 83.447C17.4514 82.8177 16.8688 81.8386 17.0912 81.3182C17.2169 81.0249 18.0387 80.9297 19.5471 81.4134C20.9358 81.8591 23.1356 82.0455 24.592 82.1686C24.89 82.1938 25.1488 82.2156 25.3502 82.236C26.3518 82.3367 27.7757 82.5707 29.3598 82.8946C30.733 83.1755 31.7238 83.5606 33.026 84.7907C34.3283 86.0208 35.2008 87.1182 36.2469 88.8409C37.6141 91.0928 38.0121 91.4582 39.1928 92.544L39.4475 92.7781C39.607 92.9257 39.8084 92.9978 40.0091 92.9985C40.1342 92.9985 40.2558 92.9638 40.37 92.908C40.174 94.2259 39.5928 95.592 38.6298 96.9364C37.9 97.9556 36.0266 99.6027 34.7946 100.12C34.7568 100.135 34.7297 100.164 34.6966 100.186L34.6223 100.097C34.6128 100.085 34.598 100.08 34.5878 100.069C34.6838 99.9932 34.771 99.9048 34.8338 99.7912C35.0845 99.3367 34.9223 98.7632 34.4702 98.5101C33.2409 97.8222 32.7131 97.8222 31.3021 97.8222C30.6053 97.8222 30.1924 97.7909 29.5679 97.7433L29.5659 97.7419ZM39.2306 100.298C38.2554 101.165 37.2546 101.819 36.3544 102.216C36.3388 102.193 36.3341 102.166 36.3159 102.144L35.5035 101.163C36.9417 100.472 38.8245 98.806 39.6388 97.6685C40.8647 95.9567 41.548 94.1891 41.6696 92.4821L42.6536 93.4013C43.0097 95.1981 41.4946 98.2856 39.2306 100.298V100.298Z" fill="black"/>
<path d="M36.3774 105.02C36.0773 104.596 35.4941 104.497 35.0731 104.798C34.652 105.099 34.5534 105.687 34.8528 106.111C36.032 107.781 37.923 110.269 39.9247 112.903C41.0432 114.375 42.1839 115.876 43.1956 117.231H45.5312C44.3337 115.607 42.8536 113.658 41.4101 111.759C39.4185 109.138 37.5377 106.663 36.3774 105.02Z" fill="black"/>
<path d="M116.544 108.238C116.035 108.327 115.695 108.815 115.783 109.327C116.198 111.728 117.095 114.549 118.131 117.23H120.136C119.033 114.466 118.057 111.493 117.626 109.004C117.538 108.492 117.055 108.149 116.544 108.238V108.238Z" fill="black"/>
</g>
</g>
<defs>
<clipPath id="clip0_2769_4639">
<rect width="124" height="116" fill="white"/>
</clipPath>
<clipPath id="clip1_2769_4639">
<rect width="170.5" height="118.231" fill="white" transform="translate(0 -1)"/>
</clipPath>
</defs>
</svg>