<svg width="44" height="38" viewBox="0 0 44 38" fill="none" xmlns="http://www.w3.org/2000/svg">
<path d="M29.7521 20.7036C28.9305 25.7976 24.5142 29.7004 19.2148 29.7004C13.3197 29.7004 8.53371 24.9144 8.53371 19.0193C8.53371 17.5198 8.84182 16.082 9.41696 14.7879C10.1975 17.0474 11.5121 19.5944 13.5867 22.5112C15.2299 24.9966 17.2429 27.0712 17.2429 27.0712L43.2883 7.55765L38.3791 1.02576L19.0299 15.5274C16.9553 12.5079 16.298 10.4128 17.777 9.18035C19.2148 7.989 22.2753 8.8517 23.1175 9.05711C23.2613 9.11873 23.4051 9.18035 23.5488 9.24197L30.5737 3.98359C27.4105 1.60089 23.4872 0.183594 19.2353 0.183594C8.84182 0.183594 0.399658 8.62576 0.399658 19.0193C0.399658 29.4128 8.84182 37.8549 19.2353 37.8549C29.6288 37.8549 38.071 29.4128 38.071 19.0193C38.071 17.5814 37.9067 16.1847 37.5986 14.8495L29.7521 20.7036Z" fill="#00AFB4"/>
</svg>
