<svg width="33" height="32" viewBox="0 0 33 32" fill="none" xmlns="http://www.w3.org/2000/svg">
<g clip-path="url(#clip0_3985_9531)">
<path d="M32.5 16C32.5 14.3712 31.5248 12.9724 30.1276 12.3484C31.0256 11.1096 31.1708 9.4108 30.3564 8C29.542 6.5892 27.998 5.8656 26.4764 6.0236C26.6348 4.5016 25.9108 2.958 24.5 2.1436C23.0892 1.3292 21.3904 1.4744 20.1516 2.3724C19.5276 0.9752 18.1288 0 16.5 0C14.8712 0 13.4724 0.9752 12.8484 2.3724C11.6096 1.4744 9.9108 1.3292 8.5 2.1436C7.0892 2.958 6.3656 4.502 6.5236 6.0236C5.0016 5.8652 3.458 6.5892 2.6436 8C1.8292 9.4108 1.9744 11.1096 2.8724 12.3484C1.4752 12.9724 0.5 14.3712 0.5 16C0.5 17.6288 1.4752 19.0276 2.872 19.6516C1.974 20.8904 1.8288 22.5892 2.6436 24C3.458 25.4108 5.002 26.1344 6.5236 25.9764C6.3652 27.4984 7.0892 29.042 8.5 29.8564C9.9108 30.6708 11.6096 30.5256 12.8484 29.6276C13.4724 31.0248 14.8712 32 16.5 32C18.1288 32 19.5276 31.0248 20.1516 29.6276C21.3904 30.5256 23.0892 30.6708 24.5 29.8564C25.9108 29.042 26.6344 27.498 26.4764 25.9764C27.9984 26.1348 29.542 25.4108 30.3564 24C31.1708 22.5892 31.0256 20.8904 30.128 19.6516C31.5252 19.0276 32.5 17.6288 32.5 16Z" fill="#00A3F4"/>
<path d="M14.3396 22.0359C13.9152 22.0359 13.5084 21.8671 13.2084 21.5671L9.85715 18.2159C9.23235 17.5911 9.23235 16.5779 9.85715 15.9535C10.4815 15.3287 11.4956 15.3287 12.1196 15.9535L14.3396 18.1731L20.88 11.6327C21.5044 11.0079 22.5176 11.0079 23.1424 11.6327C23.7672 12.2575 23.7672 13.2707 23.1424 13.8951L15.4707 21.5671C15.1707 21.8671 14.7636 22.0359 14.3396 22.0359Z" fill="white"/>
</g>
<defs>
<clipPath id="clip0_3985_9531">
<rect width="32" height="32" fill="white" transform="translate(0.5)"/>
</clipPath>
</defs>
</svg>
