<svg width="185" height="93" viewBox="0 0 185 93" fill="none" xmlns="http://www.w3.org/2000/svg">
<g clip-path="url(#clip0_1_144)">
<path d="M2.01074 2.29608V78.6468C2.01074 85.3998 7.48519 90.8743 14.2383 90.8743H169.783C176.536 90.8743 182.011 85.3998 182.011 78.6468V2.29608H47.9884V12.7941L33.9074 8.5257L20.2175 12.7941V2.29608H2.01074Z" fill="white" stroke="black" stroke-width="4" stroke-miterlimit="10"/>
</g>
<mask id="mask0_1_144" style="mask-type:alpha" maskUnits="userSpaceOnUse" x="11" y="18" width="81" height="81">
<rect x="11.0107" y="18.5851" width="80" height="80" fill="#D9D9D9"/>
</mask>
<g mask="url(#mask0_1_144)">
<path d="M48.5107 68.5851C47.9203 68.5851 47.4255 68.3847 47.0264 67.9839C46.6272 67.5835 46.4276 67.087 46.4276 66.4945C46.4276 65.902 46.6272 65.4079 47.0264 65.012C47.4255 64.6162 47.9203 64.4183 48.5107 64.4183H53.9276C54.7539 64.4183 55.4466 64.1389 56.0057 63.5801C56.5645 63.021 56.8439 62.3283 56.8439 61.502V55.6683C56.8439 54.1128 57.3093 52.717 58.2401 51.4808C59.1705 50.2449 60.3718 49.3839 61.8439 48.8976V48.2726C60.3718 47.8143 59.1705 46.9601 58.2401 45.7101C57.3093 44.4601 56.8439 43.0574 56.8439 41.502V35.6683C56.8439 34.842 56.5645 34.1493 56.0057 33.5901C55.4466 33.0314 54.7539 32.752 53.9276 32.752H48.5107C47.9203 32.752 47.4255 32.5516 47.0264 32.1508C46.6272 31.7499 46.4276 31.2535 46.4276 30.6614C46.4276 30.0689 46.6272 29.5747 47.0264 29.1789C47.4255 28.7831 47.9203 28.5851 48.5107 28.5851H53.9276C55.8951 28.5851 57.5674 29.2739 58.9445 30.6514C60.322 32.0285 61.0107 33.7008 61.0107 35.6683V41.502C61.0107 42.3283 61.2903 43.021 61.8495 43.5801C62.4082 44.1389 63.101 44.4183 63.9276 44.4183C64.5176 44.4183 65.0124 44.6183 65.412 45.0183C65.8112 45.4183 66.0107 45.9139 66.0107 46.5051V50.6776C66.0107 51.2689 65.8112 51.7624 65.412 52.1583C65.0124 52.5541 64.5176 52.752 63.9276 52.752C63.101 52.752 62.4082 53.0314 61.8495 53.5901C61.2903 54.1493 61.0107 54.842 61.0107 55.6683V61.502C61.0107 63.4695 60.322 65.1418 58.9445 66.5189C57.5674 67.8964 55.8951 68.5851 53.9276 68.5851H48.5107ZM28.0939 68.5851C26.1264 68.5851 24.4541 67.8964 23.077 66.5189C21.6995 65.1418 21.0107 63.4695 21.0107 61.502V55.6683C21.0107 54.842 20.7312 54.1493 20.172 53.5901C19.6132 53.0314 18.9205 52.752 18.0939 52.752C17.5039 52.752 17.0091 52.552 16.6095 52.152C16.2103 51.752 16.0107 51.2564 16.0107 50.6651V46.4926C16.0107 45.9014 16.2103 45.4079 16.6095 45.012C17.0091 44.6162 17.5039 44.4183 18.0939 44.4183C18.9205 44.4183 19.6132 44.1389 20.172 43.5801C20.7312 43.021 21.0107 42.3283 21.0107 41.502V35.6683C21.0107 33.7008 21.6995 32.0285 23.077 30.6514C24.4541 29.2739 26.1264 28.5851 28.0939 28.5851H33.5107C34.1012 28.5851 34.596 28.7856 34.9951 29.1864C35.3943 29.5868 35.5939 30.0833 35.5939 30.6758C35.5939 31.2683 35.3943 31.7624 34.9951 32.1583C34.596 32.5541 34.1012 32.752 33.5107 32.752H28.0939C27.2676 32.752 26.5749 33.0314 26.0157 33.5901C25.457 34.1493 25.1776 34.842 25.1776 35.6683V41.502C25.1776 43.0574 24.7122 44.4601 23.7814 45.7101C22.851 46.9601 21.6497 47.8143 20.1776 48.2726V48.8976C21.6497 49.3839 22.851 50.2449 23.7814 51.4808C24.7122 52.717 25.1776 54.1128 25.1776 55.6683V61.502C25.1776 62.3283 25.457 63.021 26.0157 63.5801C26.5749 64.1389 27.2676 64.4183 28.0939 64.4183H33.5107C34.1012 64.4183 34.596 64.6187 34.9951 65.0195C35.3943 65.4204 35.5939 65.9168 35.5939 66.5089C35.5939 67.1014 35.3943 67.5956 34.9951 67.9914C34.596 68.3872 34.1012 68.5851 33.5107 68.5851H28.0939Z" fill="#1C1B1F"/>
</g>
<path d="M86.9965 31.3614C86.9284 30.6739 86.6357 30.1398 86.1187 29.7591C85.6017 29.3785 84.8999 29.1881 84.0136 29.1881C83.4113 29.1881 82.9028 29.2734 82.488 29.4438C82.0732 29.6086 81.7551 29.8387 81.5335 30.1341C81.3176 30.4296 81.2096 30.7648 81.2096 31.1398C81.1982 31.4523 81.2636 31.7251 81.4056 31.958C81.5534 32.191 81.7551 32.3927 82.0107 32.5631C82.2664 32.7279 82.5619 32.8728 82.8971 32.9978C83.2323 33.1171 83.5903 33.2194 83.971 33.3046L85.5392 33.6796C86.3005 33.8501 86.9994 34.0773 87.6357 34.3614C88.2721 34.6455 88.8232 34.9949 89.2892 35.4097C89.7551 35.8245 90.1159 36.3131 90.3715 36.8756C90.6329 37.4381 90.7664 38.083 90.7721 38.8103C90.7664 39.8785 90.4937 40.8046 89.9539 41.5887C89.4198 42.3671 88.6471 42.9722 87.6357 43.404C86.6301 43.8302 85.417 44.0432 83.9965 44.0432C82.5874 44.0432 81.3602 43.8273 80.3147 43.3955C79.2749 42.9637 78.4624 42.3245 77.8772 41.4779C77.2977 40.6256 76.9937 39.5716 76.9653 38.316H80.5363C80.5761 38.9012 80.7437 39.3898 81.0392 39.7819C81.3403 40.1682 81.7409 40.4609 82.2409 40.6597C82.7465 40.8529 83.3176 40.9495 83.9539 40.9495C84.5789 40.9495 85.1215 40.8586 85.5818 40.6768C86.0477 40.4949 86.4085 40.2421 86.6642 39.9182C86.9198 39.5944 87.0477 39.2222 87.0477 38.8018C87.0477 38.4097 86.9312 38.0802 86.6982 37.8131C86.471 37.5461 86.1357 37.3188 85.6926 37.1313C85.2551 36.9438 84.7181 36.7734 84.0818 36.6199L82.1812 36.1427C80.7096 35.7847 79.5477 35.2251 78.6954 34.4637C77.8431 33.7023 77.4198 32.6768 77.4255 31.387C77.4198 30.3302 77.7011 29.4069 78.2693 28.6171C78.8431 27.8273 79.6301 27.2109 80.6301 26.7677C81.6301 26.3245 82.7664 26.1029 84.0392 26.1029C85.3346 26.1029 86.4653 26.3245 87.4312 26.7677C88.4028 27.2109 89.1585 27.8273 89.6982 28.6171C90.238 29.4069 90.5164 30.3216 90.5335 31.3614H86.9965ZM96.2629 43.7961H92.3083L98.3339 26.3415H103.09L109.107 43.7961H105.152L100.78 30.3302H100.644L96.2629 43.7961ZM96.0157 36.9353H105.357V39.816H96.0157V36.9353ZM111.207 43.7961V26.3415H118.094C119.418 26.3415 120.546 26.5944 121.477 27.1001C122.409 27.6001 123.119 28.2961 123.608 29.1881C124.102 30.0745 124.35 31.0972 124.35 32.2563C124.35 33.4154 124.1 34.4381 123.6 35.3245C123.1 36.2109 122.375 36.9012 121.426 37.3955C120.483 37.8898 119.341 38.137 118 38.137H113.611V35.1796H117.403C118.114 35.1796 118.699 35.0574 119.159 34.8131C119.625 34.5631 119.972 34.2194 120.199 33.7819C120.432 33.3387 120.548 32.8302 120.548 32.2563C120.548 31.6768 120.432 31.1711 120.199 30.7393C119.972 30.3018 119.625 29.9637 119.159 29.7251C118.693 29.4807 118.102 29.3586 117.386 29.3586H114.898V43.7961H111.207Z" fill="black"/>
<line x1="170.011" y1="51.7961" x2="76.0107" y2="51.7961" stroke="black" stroke-width="2"/>
<path d="M82.4191 59.5425C82.3794 59.1415 82.2087 58.8299 81.907 58.6079C81.6054 58.3858 81.1961 58.2748 80.6791 58.2748C80.3277 58.2748 80.0311 58.3245 79.7892 58.4239C79.5472 58.52 79.3616 58.6543 79.2323 58.8266C79.1064 58.999 79.0434 59.1945 79.0434 59.4133C79.0368 59.5956 79.0749 59.7547 79.1578 59.8905C79.2439 60.0264 79.3616 60.1441 79.5107 60.2435C79.6599 60.3396 79.8322 60.4242 80.0278 60.4971C80.2233 60.5667 80.4321 60.6263 80.6542 60.6761L81.569 60.8948C82.0131 60.9942 82.4208 61.1268 82.792 61.2925C83.1632 61.4582 83.4847 61.6621 83.7565 61.904C84.0283 62.146 84.2387 62.431 84.3879 62.7591C84.5403 63.0873 84.6182 63.4635 84.6215 63.8877C84.6182 64.5108 84.4591 65.0511 84.1443 65.5084C83.8327 65.9625 83.382 66.3155 82.792 66.5674C82.2053 66.816 81.4977 66.9403 80.6691 66.9403C79.8472 66.9403 79.1312 66.8143 78.5214 66.5624C77.9149 66.3105 77.4409 65.9377 77.0995 65.4438C76.7615 64.9466 76.5841 64.3318 76.5676 63.5993H78.6507C78.6739 63.9407 78.7716 64.2258 78.944 64.4545C79.1196 64.6798 79.3533 64.8505 79.645 64.9665C79.94 65.0792 80.2731 65.1356 80.6443 65.1356C81.0088 65.1356 81.3254 65.0825 81.5938 64.9765C81.8656 64.8704 82.0761 64.7229 82.2252 64.534C82.3744 64.3451 82.449 64.128 82.449 63.8827C82.449 63.654 82.381 63.4618 82.2451 63.306C82.1125 63.1502 81.917 63.0177 81.6585 62.9083C81.4033 62.7989 81.0901 62.6995 80.7188 62.61L79.6102 62.3316C78.7517 62.1228 78.074 61.7963 77.5768 61.3522C77.0796 60.9081 76.8327 60.3098 76.836 59.5574C76.8327 58.941 76.9968 58.4024 77.3282 57.9417C77.663 57.481 78.122 57.1214 78.7053 56.8628C79.2887 56.6043 79.9516 56.4751 80.694 56.4751C81.4497 56.4751 82.1092 56.6043 82.6727 56.8628C83.2394 57.1214 83.6803 57.481 83.9951 57.9417C84.31 58.4024 84.4724 58.936 84.4823 59.5425H82.4191ZM86.0297 66.7961V59.1597H88.1476V66.7961H86.0297ZM87.0937 58.1753C86.7788 58.1753 86.5087 58.0709 86.2833 57.8621C86.0612 57.65 85.9502 57.3965 85.9502 57.1015C85.9502 56.8098 86.0612 56.5596 86.2833 56.3508C86.5087 56.1386 86.7788 56.0326 87.0937 56.0326C87.4085 56.0326 87.677 56.1386 87.8991 56.3508C88.1244 56.5596 88.2371 56.8098 88.2371 57.1015C88.2371 57.3965 88.1244 57.65 87.8991 57.8621C87.677 58.0709 87.4085 58.1753 87.0937 58.1753ZM93.2845 69.8188C92.5985 69.8188 92.0102 69.7243 91.5196 69.5354C91.0324 69.3498 90.6446 69.0963 90.3563 68.7748C90.0679 68.4533 89.8807 68.092 89.7945 67.691L91.7533 67.4275C91.8129 67.5799 91.9074 67.7225 92.0367 67.855C92.1659 67.9876 92.3366 68.0937 92.5487 68.1732C92.7642 68.2561 93.026 68.2975 93.3343 68.2975C93.795 68.2975 94.1744 68.1848 94.4727 67.9594C94.7744 67.7374 94.9252 67.3645 94.9252 66.8408V65.4438H94.8357C94.7429 65.6559 94.6037 65.8565 94.4181 66.0454C94.2325 66.2343 93.9938 66.3884 93.7021 66.5077C93.4105 66.627 93.0625 66.6867 92.6581 66.6867C92.0847 66.6867 91.5627 66.5541 91.0921 66.289C90.6247 66.0205 90.2519 65.6112 89.9735 65.061C89.6984 64.5075 89.5608 63.8082 89.5608 62.963C89.5608 62.0979 89.7017 61.3754 89.9834 60.7954C90.2651 60.2154 90.6396 59.7812 91.107 59.4928C91.5776 59.2045 92.093 59.0603 92.6531 59.0603C93.0807 59.0603 93.4387 59.1332 93.727 59.279C94.0154 59.4216 94.2474 59.6005 94.423 59.816C94.602 60.0281 94.7396 60.2369 94.8357 60.4424H94.9152V59.1597H97.0182V66.8707C97.0182 67.5203 96.8591 68.0638 96.5409 68.5013C96.2227 68.9388 95.7819 69.267 95.2185 69.4857C94.6584 69.7078 94.0137 69.8188 93.2845 69.8188ZM93.3293 65.0958C93.6707 65.0958 93.959 65.0113 94.1943 64.8422C94.433 64.6699 94.6153 64.4246 94.7412 64.1065C94.8705 63.785 94.9351 63.4005 94.9351 62.953C94.9351 62.5056 94.8721 62.1178 94.7462 61.7897C94.6202 61.4582 94.4379 61.2014 94.1993 61.0191C93.9607 60.8368 93.6707 60.7457 93.3293 60.7457C92.9813 60.7457 92.6879 60.8401 92.4493 61.029C92.2107 61.2146 92.03 61.4732 91.9074 61.8046C91.7848 62.136 91.7235 62.5189 91.7235 62.953C91.7235 63.3939 91.7848 63.775 91.9074 64.0965C92.0334 64.4147 92.214 64.6616 92.4493 64.8373C92.6879 65.0096 92.9813 65.0958 93.3293 65.0958ZM100.821 62.3813V66.7961H98.7036V59.1597H100.722V60.507H100.812C100.981 60.0629 101.264 59.7116 101.662 59.453C102.059 59.1912 102.542 59.0603 103.108 59.0603C103.639 59.0603 104.101 59.1763 104.495 59.4083C104.89 59.6403 105.196 59.9717 105.415 60.4026C105.634 60.8302 105.743 61.3406 105.743 61.9339V66.7961H103.625V62.3117C103.629 61.8444 103.509 61.4798 103.267 61.218C103.026 60.9528 102.692 60.8202 102.268 60.8202C101.983 60.8202 101.731 60.8815 101.513 61.0042C101.297 61.1268 101.128 61.3058 101.005 61.5411C100.886 61.7731 100.825 62.0532 100.821 62.3813ZM110.893 66.9452C110.107 66.9452 109.431 66.7861 108.864 66.468C108.301 66.1465 107.867 65.6924 107.562 65.1057C107.257 64.5158 107.104 63.8181 107.104 63.0127C107.104 62.2272 107.257 61.5378 107.562 60.9445C107.867 60.3512 108.296 59.8889 108.849 59.5574C109.406 59.226 110.059 59.0603 110.808 59.0603C111.312 59.0603 111.781 59.1415 112.215 59.3039C112.653 59.463 113.034 59.7033 113.359 60.0248C113.687 60.3463 113.942 60.7506 114.124 61.2378C114.306 61.7217 114.398 62.2885 114.398 62.9381V63.5198H107.949V62.2073H112.404C112.404 61.9024 112.338 61.6323 112.205 61.3969C112.073 61.1616 111.889 60.9777 111.653 60.8451C111.421 60.7092 111.151 60.6413 110.843 60.6413C110.521 60.6413 110.236 60.7158 109.988 60.865C109.743 61.0108 109.55 61.208 109.411 61.4566C109.272 61.7019 109.201 61.9753 109.197 62.2769V63.5248C109.197 63.9026 109.267 64.2291 109.406 64.5042C109.549 64.7793 109.749 64.9914 110.008 65.1405C110.266 65.2897 110.573 65.3643 110.927 65.3643C111.163 65.3643 111.378 65.3311 111.574 65.2648C111.769 65.1985 111.937 65.0991 112.076 64.9665C112.215 64.834 112.321 64.6716 112.394 64.4793L114.353 64.6086C114.253 65.0792 114.05 65.4902 113.741 65.8415C113.436 66.1895 113.042 66.4613 112.558 66.6569C112.078 66.8491 111.522 66.9452 110.893 66.9452ZM118.594 66.9204C118.014 66.9204 117.488 66.7712 117.018 66.4729C116.55 66.1713 116.179 65.7288 115.904 65.1455C115.632 64.5589 115.496 63.8396 115.496 62.9878C115.496 62.1128 115.637 61.3853 115.919 60.8053C116.201 60.222 116.575 59.7861 117.043 59.4978C117.513 59.2061 118.029 59.0603 118.589 59.0603C119.016 59.0603 119.373 59.1332 119.658 59.279C119.946 59.4216 120.178 59.6005 120.354 59.816C120.533 60.0281 120.668 60.2369 120.761 60.4424H120.826V56.6143H122.939V66.7961H120.851V65.5731H120.761C120.662 65.7852 120.521 65.9957 120.339 66.2045C120.16 66.41 119.926 66.5806 119.638 66.7165C119.353 66.8524 119.005 66.9204 118.594 66.9204ZM119.265 65.235C119.606 65.235 119.895 65.1422 120.13 64.9566C120.369 64.7677 120.551 64.5042 120.677 64.1661C120.806 63.828 120.871 63.432 120.871 62.9779C120.871 62.5238 120.808 62.1294 120.682 61.7947C120.556 61.4599 120.373 61.2014 120.135 61.0191C119.896 60.8368 119.606 60.7457 119.265 60.7457C118.917 60.7457 118.623 60.8401 118.385 61.029C118.146 61.218 117.966 61.4798 117.843 61.8145C117.72 62.1493 117.659 62.5371 117.659 62.9779C117.659 63.422 117.72 63.8148 117.843 64.1562C117.969 64.4942 118.15 64.7594 118.385 64.9516C118.623 65.1405 118.917 65.235 119.265 65.235ZM129.715 66.7961H127.408L130.923 56.6143H133.697L137.207 66.7961H134.9L132.35 58.941H132.271L129.715 66.7961ZM129.571 62.794H135.02V64.4743H129.571V62.794ZM138.433 66.7961V56.6143H142.45C143.222 56.6143 143.88 56.7618 144.424 57.0567C144.967 57.3484 145.381 57.7544 145.666 58.2748C145.955 58.7918 146.099 59.3884 146.099 60.0645C146.099 60.7407 145.953 61.3373 145.661 61.8543C145.37 62.3714 144.947 62.7741 144.394 63.0624C143.844 63.3508 143.177 63.4949 142.395 63.4949H139.835V61.7698H142.047C142.461 61.7698 142.803 61.6985 143.071 61.556C143.343 61.4102 143.545 61.2097 143.678 60.9545C143.814 60.6959 143.882 60.3993 143.882 60.0645C143.882 59.7265 143.814 59.4315 143.678 59.1796C143.545 58.9244 143.343 58.7272 143.071 58.588C142.8 58.4455 142.455 58.3742 142.037 58.3742H140.585V66.7961H138.433Z" fill="black"/>
<defs>
<clipPath id="clip0_1_144">
<rect width="184" height="92.5782" fill="white" transform="translate(0.0107422 0.296082)"/>
</clipPath>
</defs>
</svg>
