<svg width="184" height="93" viewBox="0 0 184 93" fill="none" xmlns="http://www.w3.org/2000/svg">
<g clip-path="url(#clip0_9820_17677)">
<path fill-rule="evenodd" clip-rule="evenodd" d="M132 2H94V8H82V2H47.9776V12.498L33.8966 8.22962L20.2067 12.498V2H2V78.7707C2 85.5237 7.47444 90.9982 14.2275 90.9982H169.772C176.526 90.9982 182 85.5237 182 78.7707V2H144V8H132V2Z" fill="white"/>
<path d="M132 2H134V0H132V2ZM94 2V0H92V2H94ZM94 8V10H96V8H94ZM82 8H80V10H82V8ZM82 2H84V0H82V2ZM47.9776 2V0H45.9776V2H47.9776ZM47.9776 12.498L47.3974 14.412L49.9776 15.1942V12.498H47.9776ZM33.8966 8.22962L34.4768 6.31563L33.8883 6.13724L33.3013 6.32028L33.8966 8.22962ZM20.2067 12.498H18.2067V15.2166L20.8021 14.4074L20.2067 12.498ZM20.2067 2H22.2067V0H20.2067V2ZM2 2V0H0V2H2ZM182 2H184V0H182V2ZM144 2V0H142V2H144ZM144 8V10H146V8H144ZM132 8H130V10H132V8ZM132 0H94V4H132V0ZM92 2V8H96V2H92ZM94 6H82V10H94V6ZM84 8V2H80V8H84ZM82 0H47.9776V4H82V0ZM45.9776 2V12.498H49.9776V2H45.9776ZM48.5578 10.584L34.4768 6.31563L33.3164 10.1436L47.3974 14.412L48.5578 10.584ZM33.3013 6.32028L19.6114 10.5887L20.8021 14.4074L34.4919 10.139L33.3013 6.32028ZM22.2067 12.498V2H18.2067V12.498H22.2067ZM20.2067 0H2V4H20.2067V0ZM0 2V78.7707H4V2H0ZM0 78.7707C0 86.6283 6.36987 92.9982 14.2275 92.9982V88.9982C8.57901 88.9982 4 84.4192 4 78.7707H0ZM14.2275 92.9982H169.772V88.9982H14.2275V92.9982ZM169.772 92.9982C177.63 92.9982 184 86.6283 184 78.7707H180C180 84.4192 175.421 88.9982 169.772 88.9982V92.9982ZM184 78.7707V2H180V78.7707H184ZM182 0H144V4H182V0ZM142 2V8H146V2H142ZM144 6H132V10H144V6ZM134 8V2H130V8H134Z" fill="black"/>
</g>
<path d="M51.6289 39.3984L47.7695 33.3125H22.9062L19.0469 39.3984C18.6758 40.0664 18.6016 40.957 18.8984 41.625C19.1953 42.293 19.7148 42.7383 20.3828 42.8125C20.5312 42.8125 20.6797 42.8867 20.8281 42.8867C21.7188 42.8867 22.4609 42.4414 22.9805 41.8477C23.7227 41.1055 24.6133 40.7344 25.6523 40.7344C26.6914 40.7344 27.6562 41.1055 28.3242 41.8477C28.8438 42.4414 29.5859 42.8867 30.4766 42.8867C31.3672 42.8867 32.1836 42.4414 32.7031 41.8477C33.3711 41.1055 34.3359 40.7344 35.3008 40.7344C36.3398 40.7344 37.3047 41.1055 37.9727 41.8477C38.4922 42.4414 39.3086 42.8867 40.1992 42.8867C41.0898 42.8867 41.832 42.4414 42.3516 41.8477C43.0195 41.1055 43.9844 40.7344 45.0234 40.7344C45.9883 40.7344 46.9531 41.1055 47.6211 41.8477C48.2148 42.4414 48.957 42.8125 49.8477 42.8125C49.9961 42.8125 50.1445 42.8125 50.293 42.8125C50.9609 42.7383 51.4805 42.293 51.7773 41.625C52.0742 40.8828 52 40.0664 51.6289 39.3984ZM49.8477 46.375C48.3633 46.375 47.0273 45.9297 45.9883 45.1133C45.6172 44.8906 45.3203 44.5938 45.0234 44.2227C44.7266 44.5938 44.4297 44.8906 44.0586 45.1133C42.9453 45.9297 41.6094 46.375 40.1992 46.375C38.7148 46.375 37.3789 45.9297 36.3398 45.1133C35.9688 44.8906 35.5977 44.5938 35.3008 44.2227C35.0039 44.5938 34.707 44.8906 34.3359 45.1133C33.2969 45.9297 31.9609 46.375 30.4766 46.375C29.0664 46.375 27.7305 45.9297 26.6172 45.1133C26.2461 44.8906 25.9492 44.5938 25.6523 44.2969C25.3555 44.5938 25.0586 44.8906 24.6875 45.1133C23.5742 45.9297 22.2383 46.375 20.8281 46.375C20.5312 46.375 20.2344 46.375 19.9375 46.375C15.7812 45.7812 13.8516 40.957 16.0781 37.4688L20.3086 30.7891C20.6797 30.1211 21.3477 29.75 22.0898 29.75H48.5859C49.3281 29.75 49.9961 30.1211 50.3672 30.7891L54.5977 37.4688C56.8242 40.957 54.8945 45.7812 50.7383 46.375C50.4414 46.375 50.1445 46.375 49.8477 46.375ZM22.3125 54.6875H48.4375V48.6758C48.8828 48.75 49.3281 48.75 49.8477 48.75C50.2188 48.75 50.6641 48.75 51.0352 48.6758C51.4062 48.6758 51.7031 48.6016 52 48.5273V54.6875V58.25V63C52 65.6719 49.8477 67.75 47.25 67.75H23.5C20.8281 67.75 18.75 65.6719 18.75 63V58.25V54.6875V48.5273C18.9727 48.6016 19.2695 48.6758 19.6406 48.6758C20.0117 48.75 20.3828 48.75 20.8281 48.75C21.3477 48.75 21.793 48.75 22.3125 48.6758V54.6875ZM48.4375 58.25H22.3125V63C22.3125 63.668 22.832 64.1875 23.5 64.1875H47.25C47.8438 64.1875 48.4375 63.668 48.4375 63V58.25Z" fill="black"/>
<path d="M48.0302 21.1945C48.3742 21.2221 48.6918 21.2468 49.0235 21.2601C50.0132 21.2999 50.7746 21.2125 51.4704 20.8317L51.5359 20.7959L51.6046 20.7668C51.8286 20.6717 52.0556 20.5605 52.3296 20.4263C52.3704 20.4063 52.4123 20.3858 52.4553 20.3648C52.7681 20.2119 53.1359 20.035 53.5237 19.8858C54.2674 19.5995 55.2274 19.357 56.2935 19.5988C57.1459 19.6803 58.1316 19.9536 58.9586 20.5275C58.9705 20.5333 58.9823 20.5392 58.9942 20.5453C59.0553 20.5768 59.1115 20.6109 59.163 20.6465C60.6898 21.4241 61.4618 22.8416 61.9985 23.827C62.0101 23.8483 62.0216 23.8694 62.033 23.8903C62.6743 25.0666 63.0585 25.7178 63.6983 26.0663C63.9117 26.1647 64.1819 26.275 64.4914 26.4014C65.508 26.8167 66.9487 27.4051 68.1935 28.3115C69.982 29.6138 71.5546 31.6239 72.2772 34.954C72.9099 37.8694 72.0604 40.2822 71.3363 42.3389C71.3126 42.4063 71.289 42.4733 71.2656 42.5399C70.51 44.6914 69.9006 46.5572 70.3701 48.9203L68.8988 49.2126L70.3701 48.9203C70.6587 50.3732 70.2329 51.5481 69.3811 52.434C68.6411 53.2035 67.6101 53.7151 66.7882 54.1092C66.6571 54.1721 66.5288 54.2331 66.4033 54.2927C65.6534 54.6492 65.0017 54.9589 64.4289 55.3523C63.7943 55.7882 63.3937 56.2409 63.1927 56.7973C62.79 57.912 62.0622 58.8844 61.0412 59.5706C59.685 60.572 58.2266 60.6187 56.9803 60.3789C56.0931 60.2081 55.1573 59.8503 54.4163 59.567C54.1959 59.4827 53.9927 59.405 53.8131 59.3407L53.7528 59.3192L53.6947 59.2926C52.1872 58.6036 50.5507 58.5364 48.6423 58.6083C48.333 58.62 48.012 58.6359 47.6819 58.6524C46.0867 58.7318 44.2803 58.8217 42.5634 58.4839L42.5231 58.476L42.4834 58.4659C41.2862 58.1615 40.4125 57.3887 39.7728 56.5384C39.1402 55.6975 38.6645 54.6871 38.2765 53.7201C37.9981 53.0261 37.7385 52.2839 37.4983 51.5971C37.4063 51.3339 37.3171 51.0789 37.2308 50.8378C36.9015 49.9182 36.6077 49.182 36.2971 48.6491C35.8294 47.8468 35.2913 47.1826 34.6835 46.4322C34.3957 46.077 34.0923 45.7025 33.7733 45.2848C32.8426 44.0662 31.9126 42.6169 31.5876 40.707L32.4519 40.5599L32.3015 40.5387L31.5768 40.6207C31.3991 39.051 31.5449 37.4899 31.8577 36.0033L48.0302 21.1945ZM48.0302 21.1945L48.3624 20.5195L45.4639 21.0177C44.7264 21.1445 43.8542 21.4186 43.0666 21.8708C42.3542 22.2798 41.5825 22.9107 41.1446 23.8352C40.6019 24.4632 40.1602 25.218 39.8054 25.8243C39.7371 25.9411 39.672 26.0523 39.6101 26.1561C39.1212 26.9747 38.7563 27.4719 38.3544 27.7447L39.113 28.8621M48.0302 21.1945L39.113 28.8621M39.113 28.8621L39.066 28.9051L37.9197 28.1992C37.8852 28.2553 37.7791 28.3835 37.5173 28.5873C37.2627 28.7856 36.9498 28.9889 36.5645 29.2337C36.5153 29.2649 36.4641 29.2972 36.4112 29.3306C35.7403 29.7543 34.7947 30.3515 34.18 31.1116L34.18 31.1117C33.4265 32.0435 32.8691 33.2005 32.5039 34.0938C32.1413 34.9809 31.9101 35.7545 31.8578 36.0031L39.113 28.8621Z" fill="black" stroke="white" stroke-width="3"/>
<path d="M60.1077 37.3921L51.0796 46.4203C50.8687 46.6311 50.5826 46.7495 50.2844 46.7495C49.9861 46.7495 49.7001 46.6311 49.4891 46.4203L44.4534 41.3578C44.2428 41.1468 44.1245 40.8609 44.1245 40.5629C44.1245 40.2648 44.2428 39.9789 44.4534 39.768L45.8596 38.3617C46.0705 38.1518 46.3559 38.0339 46.6534 38.0339C46.951 38.0339 47.2364 38.1518 47.4473 38.3617L50.3125 41.1405L57.1159 34.4207C57.3268 34.2105 57.6124 34.0925 57.9101 34.0925C58.2078 34.0925 58.4934 34.2105 58.7043 34.4207L60.107 35.7946C60.2125 35.8992 60.2963 36.0236 60.3534 36.1606C60.4106 36.2977 60.4401 36.4447 60.4402 36.5932C60.4402 36.7417 60.4109 36.8888 60.3538 37.0259C60.2968 37.163 60.2131 37.2875 60.1077 37.3921Z" fill="white"/>
<path d="M86.9858 27.0653C86.9176 26.3778 86.625 25.8437 86.108 25.4631C85.5909 25.0824 84.8892 24.892 84.0028 24.892C83.4006 24.892 82.892 24.9773 82.4773 25.1477C82.0625 25.3125 81.7443 25.5426 81.5227 25.8381C81.3068 26.1335 81.1989 26.4688 81.1989 26.8438C81.1875 27.1562 81.2528 27.429 81.3949 27.6619C81.5426 27.8949 81.7443 28.0966 82 28.267C82.2557 28.4318 82.5511 28.5767 82.8864 28.7017C83.2216 28.821 83.5795 28.9233 83.9602 29.0085L85.5284 29.3835C86.2898 29.554 86.9886 29.7812 87.625 30.0653C88.2614 30.3494 88.8125 30.6989 89.2784 31.1136C89.7443 31.5284 90.1051 32.017 90.3608 32.5795C90.6222 33.142 90.7557 33.7869 90.7614 34.5142C90.7557 35.5824 90.483 36.5085 89.9432 37.2926C89.4091 38.071 88.6364 38.6761 87.625 39.108C86.6193 39.5341 85.4063 39.7472 83.9858 39.7472C82.5767 39.7472 81.3494 39.5312 80.304 39.0994C79.2642 38.6676 78.4517 38.0284 77.8665 37.1818C77.2869 36.3295 76.983 35.2756 76.9545 34.0199H80.5256C80.5653 34.6051 80.733 35.0937 81.0284 35.4858C81.3295 35.8722 81.7301 36.1648 82.2301 36.3636C82.7358 36.5568 83.3068 36.6534 83.9432 36.6534C84.5682 36.6534 85.1108 36.5625 85.571 36.3807C86.0369 36.1989 86.3977 35.946 86.6534 35.6222C86.9091 35.2983 87.0369 34.9261 87.0369 34.5057C87.0369 34.1136 86.9205 33.7841 86.6875 33.517C86.4602 33.25 86.125 33.0227 85.6818 32.8352C85.2443 32.6477 84.7074 32.4773 84.071 32.3239L82.1705 31.8466C80.6989 31.4886 79.5369 30.929 78.6847 30.1676C77.8324 29.4062 77.4091 28.3807 77.4148 27.0909C77.4091 26.0341 77.6903 25.1108 78.2585 24.321C78.8324 23.5312 79.6193 22.9148 80.6193 22.4716C81.6193 22.0284 82.7557 21.8068 84.0284 21.8068C85.3239 21.8068 86.4545 22.0284 87.4205 22.4716C88.392 22.9148 89.1477 23.5312 89.6875 24.321C90.2273 25.1108 90.5057 26.0256 90.5227 27.0653H86.9858ZM96.2521 39.5H92.2976L98.3232 22.0455H103.079L109.096 39.5H105.141L100.769 26.0341H100.633L96.2521 39.5ZM96.005 32.6392H105.346V35.5199H96.005V32.6392ZM111.197 39.5V22.0455H118.083C119.407 22.0455 120.535 22.2983 121.467 22.804C122.398 23.304 123.109 24 123.597 24.892C124.092 25.7784 124.339 26.8011 124.339 27.9602C124.339 29.1193 124.089 30.142 123.589 31.0284C123.089 31.9148 122.364 32.6051 121.415 33.0994C120.472 33.5937 119.33 33.8409 117.989 33.8409H113.6V30.8835H117.393C118.103 30.8835 118.688 30.7614 119.148 30.517C119.614 30.267 119.961 29.9233 120.188 29.4858C120.421 29.0426 120.538 28.5341 120.538 27.9602C120.538 27.3807 120.421 26.875 120.188 26.4432C119.961 26.0057 119.614 25.6676 119.148 25.429C118.683 25.1847 118.092 25.0625 117.376 25.0625H114.887V39.5H111.197Z" fill="black"/>
<line x1="182" y1="45.5" x2="76" y2="45.5" stroke="black"/>
<path d="M81.4929 53.2827C81.4588 52.9389 81.3125 52.6719 81.054 52.4815C80.7955 52.2912 80.4446 52.196 80.0014 52.196C79.7003 52.196 79.446 52.2386 79.2386 52.3239C79.0313 52.4062 78.8722 52.5213 78.7614 52.669C78.6534 52.8168 78.5994 52.9844 78.5994 53.1719C78.5938 53.3281 78.6264 53.4645 78.6974 53.581C78.7713 53.6974 78.8722 53.7983 79 53.8835C79.1278 53.9659 79.2756 54.0384 79.4432 54.1009C79.6108 54.1605 79.7898 54.2116 79.9801 54.2543L80.7642 54.4418C81.1449 54.527 81.4943 54.6406 81.8125 54.7827C82.1307 54.9247 82.4063 55.0994 82.6392 55.3068C82.8722 55.5142 83.0526 55.7585 83.1804 56.0398C83.3111 56.321 83.3778 56.6435 83.3807 57.0071C83.3778 57.5412 83.2415 58.0043 82.9716 58.3963C82.7045 58.7855 82.3182 59.0881 81.8125 59.304C81.3097 59.517 80.7031 59.6236 79.9929 59.6236C79.2884 59.6236 78.6747 59.5156 78.152 59.2997C77.6321 59.0838 77.2259 58.7642 76.9332 58.3409C76.6435 57.9148 76.4915 57.3878 76.4773 56.7599H78.2628C78.2827 57.0526 78.3665 57.2969 78.5142 57.4929C78.6648 57.6861 78.8651 57.8324 79.1151 57.9318C79.3679 58.0284 79.6534 58.0767 79.9716 58.0767C80.2841 58.0767 80.5554 58.0312 80.7855 57.9403C81.0185 57.8494 81.1989 57.723 81.3267 57.5611C81.4545 57.3991 81.5185 57.2131 81.5185 57.0028C81.5185 56.8068 81.4602 56.642 81.3438 56.5085C81.2301 56.375 81.0625 56.2614 80.8409 56.1676C80.6222 56.0739 80.3537 55.9886 80.0355 55.9119L79.0852 55.6733C78.3494 55.4943 77.7685 55.2145 77.3423 54.8338C76.9162 54.4531 76.7045 53.9403 76.7074 53.2955C76.7045 52.767 76.8452 52.3054 77.1293 51.9105C77.4162 51.5156 77.8097 51.2074 78.3097 50.9858C78.8097 50.7642 79.3778 50.6534 80.0142 50.6534C80.6619 50.6534 81.2273 50.7642 81.7102 50.9858C82.196 51.2074 82.5739 51.5156 82.8438 51.9105C83.1136 52.3054 83.2528 52.7628 83.2614 53.2827H81.4929ZM84.5877 59.5V52.9545H86.4031V59.5H84.5877ZM85.4996 52.1108C85.2298 52.1108 84.9982 52.0213 84.805 51.8423C84.6147 51.6605 84.5195 51.4432 84.5195 51.1903C84.5195 50.9403 84.6147 50.7259 84.805 50.5469C84.9982 50.3651 85.2298 50.2741 85.4996 50.2741C85.7695 50.2741 85.9996 50.3651 86.19 50.5469C86.3832 50.7259 86.4798 50.9403 86.4798 51.1903C86.4798 51.4432 86.3832 51.6605 86.19 51.8423C85.9996 52.0213 85.7695 52.1108 85.4996 52.1108ZM90.8061 62.0909C90.218 62.0909 89.7138 62.0099 89.2933 61.848C88.8757 61.6889 88.5433 61.4716 88.2962 61.196C88.049 60.9205 87.8885 60.6108 87.8146 60.267L89.4936 60.0412C89.5447 60.1719 89.6257 60.294 89.7365 60.4077C89.8473 60.5213 89.9936 60.6122 90.1754 60.6804C90.3601 60.7514 90.5845 60.7869 90.8487 60.7869C91.2436 60.7869 91.5689 60.6903 91.8246 60.4972C92.0831 60.3068 92.2124 59.9872 92.2124 59.5384V58.3409H92.1357C92.0561 58.5227 91.9368 58.6946 91.7777 58.8565C91.6186 59.0185 91.4141 59.1506 91.1641 59.2528C90.9141 59.3551 90.6158 59.4062 90.2692 59.4062C89.7777 59.4062 89.3303 59.2926 88.9268 59.0653C88.5263 58.8352 88.2067 58.4844 87.968 58.0128C87.7322 57.5384 87.6143 56.9389 87.6143 56.2145C87.6143 55.473 87.7351 54.8537 87.9766 54.3565C88.218 53.8594 88.5391 53.4872 88.9396 53.2401C89.343 52.9929 89.7848 52.8693 90.2649 52.8693C90.6314 52.8693 90.9382 52.9318 91.1854 53.0568C91.4325 53.179 91.6314 53.3324 91.782 53.517C91.9354 53.6989 92.0533 53.8778 92.1357 54.054H92.2038V52.9545H94.0064V59.5639C94.0064 60.1207 93.87 60.5866 93.5973 60.9616C93.3246 61.3366 92.9467 61.6179 92.4638 61.8054C91.9837 61.9957 91.4311 62.0909 90.8061 62.0909ZM90.8445 58.0426C91.1371 58.0426 91.3842 57.9702 91.5859 57.8253C91.7905 57.6776 91.9467 57.4673 92.0547 57.1946C92.1655 56.919 92.2209 56.5895 92.2209 56.206C92.2209 55.8224 92.1669 55.4901 92.0589 55.2088C91.951 54.9247 91.7947 54.7045 91.5902 54.5483C91.3857 54.392 91.1371 54.3139 90.8445 54.3139C90.5462 54.3139 90.2947 54.3949 90.0902 54.5568C89.8857 54.7159 89.7308 54.9375 89.6257 55.2216C89.5206 55.5057 89.468 55.8338 89.468 56.206C89.468 56.5838 89.5206 56.9105 89.6257 57.1861C89.7337 57.4588 89.8885 57.6705 90.0902 57.821C90.2947 57.9687 90.5462 58.0426 90.8445 58.0426ZM97.2663 55.7159V59.5H95.451V52.9545H97.1811V54.1094H97.2578C97.4027 53.7287 97.6456 53.4276 97.9865 53.206C98.3274 52.9815 98.7408 52.8693 99.2266 52.8693C99.6811 52.8693 100.077 52.9688 100.415 53.1676C100.754 53.3665 101.016 53.6506 101.204 54.0199C101.391 54.3864 101.485 54.8239 101.485 55.3324V59.5H99.6697V55.6562C99.6726 55.2557 99.5703 54.9432 99.3629 54.7188C99.1555 54.4915 98.87 54.3778 98.5064 54.3778C98.2621 54.3778 98.0462 54.4304 97.8587 54.5355C97.674 54.6406 97.5291 54.794 97.424 54.9957C97.3217 55.1946 97.2692 55.4347 97.2663 55.7159ZM105.899 59.6278C105.225 59.6278 104.646 59.4915 104.16 59.2188C103.677 58.9432 103.305 58.554 103.044 58.0511C102.782 57.5455 102.652 56.9474 102.652 56.2571C102.652 55.5838 102.782 54.9929 103.044 54.4844C103.305 53.9759 103.673 53.5795 104.147 53.2955C104.625 53.0114 105.184 52.8693 105.826 52.8693C106.258 52.8693 106.66 52.9389 107.032 53.0781C107.407 53.2145 107.734 53.4205 108.012 53.696C108.294 53.9716 108.512 54.3182 108.669 54.7358C108.825 55.1506 108.903 55.6364 108.903 56.1932V56.6918H103.376V55.5668H107.194C107.194 55.3054 107.137 55.0739 107.024 54.8722C106.91 54.6705 106.752 54.5128 106.551 54.3991C106.352 54.2827 106.12 54.2244 105.856 54.2244C105.581 54.2244 105.336 54.2884 105.123 54.4162C104.913 54.5412 104.748 54.7102 104.629 54.9233C104.51 55.1335 104.449 55.3679 104.446 55.6264V56.696C104.446 57.0199 104.505 57.2997 104.625 57.5355C104.747 57.7713 104.919 57.9531 105.14 58.081C105.362 58.2088 105.625 58.2727 105.929 58.2727C106.13 58.2727 106.315 58.2443 106.483 58.1875C106.65 58.1307 106.794 58.0455 106.913 57.9318C107.032 57.8182 107.123 57.679 107.186 57.5142L108.865 57.625C108.779 58.0284 108.605 58.3807 108.341 58.6818C108.079 58.9801 107.741 59.2131 107.326 59.3807C106.914 59.5455 106.439 59.6278 105.899 59.6278ZM112.5 59.6065C112.002 59.6065 111.552 59.4787 111.149 59.223C110.748 58.9645 110.43 58.5852 110.194 58.0852C109.961 57.5824 109.845 56.9659 109.845 56.2358C109.845 55.4858 109.966 54.8622 110.207 54.3651C110.449 53.8651 110.77 53.4915 111.17 53.2443C111.574 52.9943 112.015 52.8693 112.495 52.8693C112.862 52.8693 113.167 52.9318 113.412 53.0568C113.659 53.179 113.858 53.3324 114.008 53.517C114.162 53.6989 114.278 53.8778 114.358 54.054H114.413V50.7727H116.224V59.5H114.434V58.4517H114.358C114.272 58.6335 114.152 58.8139 113.995 58.9929C113.842 59.169 113.642 59.3153 113.395 59.4318C113.15 59.5483 112.852 59.6065 112.5 59.6065ZM113.075 58.1619C113.368 58.1619 113.615 58.0824 113.816 57.9233C114.021 57.7614 114.177 57.5355 114.285 57.2457C114.396 56.956 114.451 56.6165 114.451 56.2273C114.451 55.8381 114.397 55.5 114.289 55.2131C114.181 54.9261 114.025 54.7045 113.821 54.5483C113.616 54.392 113.368 54.3139 113.075 54.3139C112.777 54.3139 112.525 54.3949 112.321 54.5568C112.116 54.7187 111.961 54.9432 111.856 55.2301C111.751 55.517 111.699 55.8494 111.699 56.2273C111.699 56.608 111.751 56.9446 111.856 57.2372C111.964 57.527 112.119 57.7543 112.321 57.919C112.525 58.081 112.777 58.1619 113.075 58.1619ZM122.032 59.5H120.055L123.068 50.7727H125.446L128.454 59.5H126.477L124.291 52.767H124.223L122.032 59.5ZM121.909 56.0696H126.579V57.5099H121.909V56.0696ZM129.505 59.5V50.7727H132.948C133.61 50.7727 134.174 50.8991 134.64 51.152C135.105 51.402 135.461 51.75 135.705 52.196C135.952 52.6392 136.076 53.1506 136.076 53.7301C136.076 54.3097 135.951 54.821 135.701 55.2642C135.451 55.7074 135.088 56.0526 134.614 56.2997C134.142 56.5469 133.571 56.6705 132.901 56.6705H130.706V55.1918H132.603C132.958 55.1918 133.25 55.1307 133.48 55.0085C133.713 54.8835 133.887 54.7116 134 54.4929C134.117 54.2713 134.175 54.017 134.175 53.7301C134.175 53.4403 134.117 53.1875 134 52.9716C133.887 52.7528 133.713 52.5838 133.48 52.4645C133.248 52.3423 132.952 52.2812 132.594 52.2812H131.35V59.5H129.505Z" fill="black"/>
<path d="M78.58 75.576C80.488 75.516 83.512 75.384 86.32 75.228L86.284 76.536C83.596 76.752 80.704 76.944 78.712 77.064L78.58 75.576ZM81.58 69.78L83.224 70.116C82.672 72.288 81.892 74.724 81.22 76.296L79.84 75.936C80.5 74.328 81.232 71.772 81.58 69.78ZM83.8 73.056L85.144 72.48C86.164 73.848 87.304 75.672 87.736 76.932L86.26 77.616C85.876 76.38 84.82 74.484 83.8 73.056ZM78.064 67.848H87.472V69.228H78.064V67.848ZM77.368 67.848H78.808V70.872C78.808 72.792 78.616 75.732 77.476 77.568C77.224 77.328 76.588 76.896 76.24 76.752C77.284 75.06 77.368 72.588 77.368 70.872V67.848ZM81.616 66.312H83.116V68.508H81.616V66.312ZM88.696 70.56H99.316V71.904H88.696V70.56ZM90.7 67.872H98.572V69.18H90.7V67.872ZM90.82 75.708H97.324V77.04H90.82V75.708ZM93.532 66.312H95.068V71.376H93.532V66.312ZM90.064 72.768H98.152V77.58H96.604V74.088H91.54V77.616H90.064V72.768ZM90.652 66.336L92.092 66.696C91.588 68.16 90.736 69.624 89.92 70.548C89.62 70.32 88.96 69.948 88.612 69.78C89.476 68.976 90.232 67.644 90.652 66.336ZM105.208 66.924H111.436V68.292H105.208V66.924ZM104.872 75.816H111.664V77.172H104.872V75.816ZM108.7 71.136H111.364V72.504H108.7V71.136ZM107.872 67.488H109.288V76.608H107.872V67.488ZM105.616 70.104H106.96V76.428H105.616V70.104ZM100.936 70.08H104.404V71.16H100.936V70.08ZM101.008 66.684H104.416V67.776H101.008V66.684ZM100.936 71.76H104.404V72.84H100.936V71.76ZM100.348 68.352H104.836V69.48H100.348V68.352ZM101.596 73.452H104.488V77.1H101.596V75.972H103.252V74.592H101.596V73.452ZM100.9 73.452H102.112V77.58H100.9V73.452ZM113.584 66.972H117.028V74.34H113.584V73.02H115.696V68.268H113.584V66.972ZM113.596 69.972H116.224V71.256H113.596V69.972ZM118.72 66.792H122.404V68.124H118.72V66.792ZM118.72 69.66H122.404V70.956H118.72V69.66ZM118.696 72.504H122.392V73.788H118.696V72.504ZM112.816 66.972H114.148V75.384H112.816V66.972ZM121.864 66.792H123.292V75.936C123.292 76.68 123.136 77.076 122.668 77.304C122.188 77.532 121.504 77.568 120.484 77.568C120.424 77.172 120.196 76.548 119.992 76.176C120.64 76.212 121.372 76.2 121.576 76.2C121.792 76.2 121.864 76.128 121.864 75.912V66.792ZM117.856 66.792H119.272V71.148C119.272 73.224 118.948 76.044 116.728 77.676C116.512 77.388 115.96 76.896 115.648 76.704C117.676 75.228 117.856 72.972 117.856 71.136V66.792Z" fill="black"/>
<defs>
<clipPath id="clip0_9820_17677">
<rect width="184" height="92.5782" fill="white"/>
</clipPath>
</defs>
</svg>
