<svg width="185" height="93" viewBox="0 0 185 93" fill="none" xmlns="http://www.w3.org/2000/svg">
<g clip-path="url(#clip0_1_132)">
<path d="M2.21198 2.29608V78.6468C2.21198 85.3998 7.68642 90.8743 14.4395 90.8743H169.984C176.738 90.8743 182.212 85.3998 182.212 78.6468V2.29608H48.1896V12.7941L34.1086 8.5257L20.4187 12.7941V2.29608H2.21198Z" fill="white" stroke="black" stroke-width="4" stroke-miterlimit="10"/>
</g>
<mask id="mask0_1_132" style="mask-type:alpha" maskUnits="userSpaceOnUse" x="11" y="18" width="81" height="81">
<rect x="11.212" y="18.5851" width="80" height="80" fill="#D9D9D9"/>
</mask>
<g mask="url(#mask0_1_132)">
<path d="M48.712 68.5851C48.1216 68.5851 47.6268 68.3847 47.2276 67.9839C46.8284 67.5835 46.6289 67.087 46.6289 66.4945C46.6289 65.902 46.8284 65.4079 47.2276 65.012C47.6268 64.6162 48.1216 64.4183 48.712 64.4183H54.1289C54.9551 64.4183 55.6478 64.1389 56.207 63.5801C56.7657 63.021 57.0451 62.3283 57.0451 61.502V55.6683C57.0451 54.1128 57.5105 52.717 58.4414 51.4808C59.3718 50.2449 60.573 49.3839 62.0451 48.8976V48.2726C60.573 47.8143 59.3718 46.9601 58.4414 45.7101C57.5105 44.4601 57.0451 43.0574 57.0451 41.502V35.6683C57.0451 34.842 56.7657 34.1493 56.207 33.5901C55.6478 33.0314 54.9551 32.752 54.1289 32.752H48.712C48.1216 32.752 47.6268 32.5516 47.2276 32.1508C46.8284 31.7499 46.6289 31.2535 46.6289 30.6614C46.6289 30.0689 46.8284 29.5747 47.2276 29.1789C47.6268 28.7831 48.1216 28.5851 48.712 28.5851H54.1289C56.0964 28.5851 57.7686 29.2739 59.1457 30.6514C60.5232 32.0285 61.212 33.7008 61.212 35.6683V41.502C61.212 42.3283 61.4916 43.021 62.0507 43.5801C62.6095 44.1389 63.3022 44.4183 64.1289 44.4183C64.7189 44.4183 65.2136 44.6183 65.6132 45.0183C66.0124 45.4183 66.212 45.9139 66.212 46.5051V50.6776C66.212 51.2689 66.0124 51.7624 65.6132 52.1583C65.2136 52.5541 64.7189 52.752 64.1289 52.752C63.3022 52.752 62.6095 53.0314 62.0507 53.5901C61.4916 54.1493 61.212 54.842 61.212 55.6683V61.502C61.212 63.4695 60.5232 65.1418 59.1457 66.5189C57.7686 67.8964 56.0964 68.5851 54.1289 68.5851H48.712ZM28.2951 68.5851C26.3276 68.5851 24.6553 67.8964 23.2782 66.5189C21.9007 65.1418 21.212 63.4695 21.212 61.502V55.6683C21.212 54.842 20.9324 54.1493 20.3732 53.5901C19.8145 53.0314 19.1218 52.752 18.2951 52.752C17.7051 52.752 17.2103 52.552 16.8107 52.152C16.4116 51.752 16.212 51.2564 16.212 50.6651V46.4926C16.212 45.9014 16.4116 45.4079 16.8107 45.012C17.2103 44.6162 17.7051 44.4183 18.2951 44.4183C19.1218 44.4183 19.8145 44.1389 20.3732 43.5801C20.9324 43.021 21.212 42.3283 21.212 41.502V35.6683C21.212 33.7008 21.9007 32.0285 23.2782 30.6514C24.6553 29.2739 26.3276 28.5851 28.2951 28.5851H33.712C34.3024 28.5851 34.7972 28.7856 35.1964 29.1864C35.5955 29.5868 35.7951 30.0833 35.7951 30.6758C35.7951 31.2683 35.5955 31.7624 35.1964 32.1583C34.7972 32.5541 34.3024 32.752 33.712 32.752H28.2951C27.4689 32.752 26.7761 33.0314 26.217 33.5901C25.6582 34.1493 25.3789 34.842 25.3789 35.6683V41.502C25.3789 43.0574 24.9134 44.4601 23.9826 45.7101C23.0522 46.9601 21.8509 47.8143 20.3789 48.2726V48.8976C21.8509 49.3839 23.0522 50.2449 23.9826 51.4808C24.9134 52.717 25.3789 54.1128 25.3789 55.6683V61.502C25.3789 62.3283 25.6582 63.021 26.217 63.5801C26.7761 64.1389 27.4689 64.4183 28.2951 64.4183H33.712C34.3024 64.4183 34.7972 64.6187 35.1964 65.0195C35.5955 65.4204 35.7951 65.9168 35.7951 66.5089C35.7951 67.1014 35.5955 67.5956 35.1964 67.9914C34.7972 68.3872 34.3024 68.5851 33.712 68.5851H28.2951Z" fill="#1C1B1F"/>
</g>
<path d="M87.1978 31.3614C87.1296 30.6739 86.837 30.1398 86.3199 29.7591C85.8029 29.3785 85.1012 29.1881 84.2148 29.1881C83.6125 29.1881 83.104 29.2734 82.6892 29.4438C82.2745 29.6086 81.9563 29.8387 81.7347 30.1341C81.5188 30.4296 81.4108 30.7648 81.4108 31.1398C81.3995 31.4523 81.4648 31.7251 81.6069 31.958C81.7546 32.191 81.9563 32.3927 82.212 32.5631C82.4677 32.7279 82.7631 32.8728 83.0983 32.9978C83.4336 33.1171 83.7915 33.2194 84.1722 33.3046L85.7404 33.6796C86.5017 33.8501 87.2006 34.0773 87.837 34.3614C88.4733 34.6455 89.0245 34.9949 89.4904 35.4097C89.9563 35.8245 90.3171 36.3131 90.5728 36.8756C90.8341 37.4381 90.9677 38.083 90.9733 38.8103C90.9677 39.8785 90.6949 40.8046 90.1552 41.5887C89.6211 42.3671 88.8483 42.9722 87.837 43.404C86.8313 43.8302 85.6182 44.0432 84.1978 44.0432C82.7887 44.0432 81.5614 43.8273 80.516 43.3955C79.4762 42.9637 78.6637 42.3245 78.0785 41.4779C77.4989 40.6256 77.1949 39.5716 77.1665 38.316H80.7375C80.7773 38.9012 80.9449 39.3898 81.2404 39.7819C81.5415 40.1682 81.9421 40.4609 82.4421 40.6597C82.9478 40.8529 83.5188 40.9495 84.1552 40.9495C84.7802 40.9495 85.3228 40.8586 85.783 40.6768C86.2489 40.4949 86.6097 40.2421 86.8654 39.9182C87.1211 39.5944 87.2489 39.2222 87.2489 38.8018C87.2489 38.4097 87.1324 38.0802 86.8995 37.8131C86.6722 37.5461 86.337 37.3188 85.8938 37.1313C85.4563 36.9438 84.9194 36.7734 84.283 36.6199L82.3824 36.1427C80.9108 35.7847 79.7489 35.2251 78.8966 34.4637C78.0444 33.7023 77.6211 32.6768 77.6267 31.387C77.6211 30.3302 77.9023 29.4069 78.4705 28.6171C79.0444 27.8273 79.8313 27.2109 80.8313 26.7677C81.8313 26.3245 82.9677 26.1029 84.2404 26.1029C85.5358 26.1029 86.6665 26.3245 87.6324 26.7677C88.604 27.2109 89.3597 27.8273 89.8995 28.6171C90.4392 29.4069 90.7177 30.3216 90.7347 31.3614H87.1978ZM99.6431 43.7961H93.4556V26.3415H99.6942C101.45 26.3415 102.961 26.691 104.228 27.3898C105.495 28.083 106.47 29.0802 107.152 30.3813C107.839 31.6824 108.183 33.2393 108.183 35.0518C108.183 36.8699 107.839 38.4324 107.152 39.7393C106.47 41.0461 105.49 42.0489 104.211 42.7478C102.939 43.4466 101.416 43.7961 99.6431 43.7961ZM97.1459 40.6341H99.4897C100.581 40.6341 101.498 40.441 102.243 40.0546C102.993 39.6626 103.555 39.0574 103.93 38.2393C104.311 37.4154 104.501 36.3529 104.501 35.0518C104.501 33.762 104.311 32.708 103.93 31.8898C103.555 31.0716 102.995 30.4694 102.251 30.083C101.507 29.6966 100.589 29.5035 99.4982 29.5035H97.1459V40.6341ZM110.917 43.7961V26.3415H117.803C119.127 26.3415 120.255 26.5944 121.186 27.1001C122.118 27.6001 122.828 28.2961 123.317 29.1881C123.811 30.0745 124.059 31.0972 124.059 32.2563C124.059 33.4154 123.809 34.4381 123.309 35.3245C122.809 36.2109 122.084 36.9012 121.135 37.3955C120.192 37.8898 119.05 38.137 117.709 38.137H113.32V35.1796H117.113C117.823 35.1796 118.408 35.0574 118.868 34.8131C119.334 34.5631 119.681 34.2194 119.908 33.7819C120.141 33.3387 120.257 32.8302 120.257 32.2563C120.257 31.6768 120.141 31.1711 119.908 30.7393C119.681 30.3018 119.334 29.9637 118.868 29.7251C118.402 29.4807 117.811 29.3586 117.095 29.3586H114.607V43.7961H110.917Z" fill="black"/>
<line x1="170.212" y1="51.7961" x2="76.212" y2="51.7961" stroke="black" stroke-width="2"/>
<path d="M82.6204 59.5425C82.5806 59.1415 82.4099 58.8299 82.1083 58.6079C81.8067 58.3858 81.3973 58.2748 80.8803 58.2748C80.529 58.2748 80.2323 58.3245 79.9904 58.4239C79.7484 58.52 79.5628 58.6543 79.4336 58.8266C79.3076 58.999 79.2446 59.1945 79.2446 59.4133C79.238 59.5956 79.2761 59.7547 79.359 59.8905C79.4452 60.0264 79.5628 60.1441 79.712 60.2435C79.8611 60.3396 80.0335 60.4242 80.229 60.4971C80.4246 60.5667 80.6334 60.6263 80.8554 60.6761L81.7702 60.8948C82.2143 60.9942 82.622 61.1268 82.9932 61.2925C83.3644 61.4582 83.6859 61.6621 83.9577 61.904C84.2295 62.146 84.44 62.431 84.5891 62.7591C84.7416 63.0873 84.8195 63.4635 84.8228 63.8877C84.8195 64.5108 84.6604 65.0511 84.3455 65.5084C84.0339 65.9625 83.5832 66.3155 82.9932 66.5674C82.4066 66.816 81.699 66.9403 80.8704 66.9403C80.0484 66.9403 79.3325 66.8143 78.7226 66.5624C78.1161 66.3105 77.6421 65.9377 77.3008 65.4438C76.9627 64.9466 76.7854 64.3318 76.7688 63.5993H78.8519C78.8751 63.9407 78.9729 64.2258 79.1452 64.4545C79.3209 64.6798 79.5545 64.8505 79.8462 64.9665C80.1412 65.0792 80.4743 65.1356 80.8455 65.1356C81.2101 65.1356 81.5266 65.0825 81.7951 64.9765C82.0669 64.8704 82.2773 64.7229 82.4265 64.534C82.5756 64.3451 82.6502 64.128 82.6502 63.8827C82.6502 63.654 82.5822 63.4618 82.4464 63.306C82.3138 63.1502 82.1182 63.0177 81.8597 62.9083C81.6045 62.7989 81.2913 62.6995 80.9201 62.61L79.8114 62.3316C78.953 62.1228 78.2752 61.7963 77.778 61.3522C77.2809 60.9081 77.0339 60.3098 77.0373 59.5574C77.0339 58.941 77.198 58.4024 77.5294 57.9417C77.8642 57.481 78.3232 57.1214 78.9066 56.8628C79.4899 56.6043 80.1528 56.4751 80.8952 56.4751C81.6509 56.4751 82.3105 56.6043 82.8739 56.8628C83.4407 57.1214 83.8815 57.481 84.1964 57.9417C84.5112 58.4024 84.6736 58.936 84.6836 59.5425H82.6204ZM86.231 66.7961V59.1597H88.3489V66.7961H86.231ZM87.2949 58.1753C86.98 58.1753 86.7099 58.0709 86.4845 57.8621C86.2625 57.65 86.1514 57.3965 86.1514 57.1015C86.1514 56.8098 86.2625 56.5596 86.4845 56.3508C86.7099 56.1386 86.98 56.0326 87.2949 56.0326C87.6098 56.0326 87.8782 56.1386 88.1003 56.3508C88.3257 56.5596 88.4384 56.8098 88.4384 57.1015C88.4384 57.3965 88.3257 57.65 88.1003 57.8621C87.8782 58.0709 87.6098 58.1753 87.2949 58.1753ZM93.4858 69.8188C92.7997 69.8188 92.2114 69.7243 91.7209 69.5354C91.2336 69.3498 90.8459 69.0963 90.5575 68.7748C90.2691 68.4533 90.0819 68.092 89.9957 67.691L91.9545 67.4275C92.0142 67.5799 92.1086 67.7225 92.2379 67.855C92.3672 67.9876 92.5379 68.0937 92.75 68.1732C92.9654 68.2561 93.2272 68.2975 93.5355 68.2975C93.9962 68.2975 94.3757 68.1848 94.674 67.9594C94.9756 67.7374 95.1264 67.3645 95.1264 66.8408V65.4438H95.0369C94.9441 65.6559 94.8049 65.8565 94.6193 66.0454C94.4337 66.2343 94.195 66.3884 93.9034 66.5077C93.6117 66.627 93.2637 66.6867 92.8593 66.6867C92.286 66.6867 91.7639 66.5541 91.2933 66.289C90.826 66.0205 90.4531 65.6112 90.1747 65.061C89.8996 64.5075 89.762 63.8082 89.762 62.963C89.762 62.0979 89.9029 61.3754 90.1846 60.7954C90.4664 60.2154 90.8409 59.7812 91.3082 59.4928C91.7789 59.2045 92.2942 59.0603 92.8544 59.0603C93.2819 59.0603 93.6399 59.1332 93.9282 59.279C94.2166 59.4216 94.4486 59.6005 94.6243 59.816C94.8032 60.0281 94.9408 60.2369 95.0369 60.4424H95.1164V59.1597H97.2194V66.8707C97.2194 67.5203 97.0603 68.0638 96.7422 68.5013C96.424 68.9388 95.9832 69.267 95.4197 69.4857C94.8596 69.7078 94.2149 69.8188 93.4858 69.8188ZM93.5305 65.0958C93.8719 65.0958 94.1602 65.0113 94.3956 64.8422C94.6342 64.6699 94.8165 64.4246 94.9424 64.1065C95.0717 63.785 95.1363 63.4005 95.1363 62.953C95.1363 62.5056 95.0734 62.1178 94.9474 61.7897C94.8215 61.4582 94.6392 61.2014 94.4005 61.0191C94.1619 60.8368 93.8719 60.7457 93.5305 60.7457C93.1825 60.7457 92.8892 60.8401 92.6505 61.029C92.4119 61.2146 92.2313 61.4732 92.1086 61.8046C91.986 62.136 91.9247 62.5189 91.9247 62.953C91.9247 63.3939 91.986 63.775 92.1086 64.0965C92.2346 64.4147 92.4152 64.6616 92.6505 64.8373C92.8892 65.0096 93.1825 65.0958 93.5305 65.0958ZM101.023 62.3813V66.7961H98.9048V59.1597H100.923V60.507H101.013C101.182 60.0629 101.465 59.7116 101.863 59.453C102.261 59.1912 102.743 59.0603 103.31 59.0603C103.84 59.0603 104.302 59.1763 104.697 59.4083C105.091 59.6403 105.398 59.9717 105.616 60.4026C105.835 60.8302 105.945 61.3406 105.945 61.9339V66.7961H103.827V62.3117C103.83 61.8444 103.711 61.4798 103.469 61.218C103.227 60.9528 102.894 60.8202 102.469 60.8202C102.184 60.8202 101.933 60.8815 101.714 61.0042C101.498 61.1268 101.329 61.3058 101.207 61.5411C101.087 61.7731 101.026 62.0532 101.023 62.3813ZM111.094 66.9452C110.308 66.9452 109.632 66.7861 109.065 66.468C108.502 66.1465 108.068 65.6924 107.763 65.1057C107.458 64.5158 107.306 63.8181 107.306 63.0127C107.306 62.2272 107.458 61.5378 107.763 60.9445C108.068 60.3512 108.497 59.8889 109.051 59.5574C109.607 59.226 110.26 59.0603 111.009 59.0603C111.513 59.0603 111.982 59.1415 112.416 59.3039C112.854 59.463 113.235 59.7033 113.56 60.0248C113.888 60.3463 114.143 60.7506 114.325 61.2378C114.508 61.7217 114.599 62.2885 114.599 62.9381V63.5198H108.151V62.2073H112.605C112.605 61.9024 112.539 61.6323 112.406 61.3969C112.274 61.1616 112.09 60.9777 111.855 60.8451C111.623 60.7092 111.352 60.6413 111.044 60.6413C110.723 60.6413 110.438 60.7158 110.189 60.865C109.944 61.0108 109.752 61.208 109.612 61.4566C109.473 61.7019 109.402 61.9753 109.399 62.2769V63.5248C109.399 63.9026 109.468 64.2291 109.607 64.5042C109.75 64.7793 109.95 64.9914 110.209 65.1405C110.467 65.2897 110.774 65.3643 111.129 65.3643C111.364 65.3643 111.579 65.3311 111.775 65.2648C111.971 65.1985 112.138 65.0991 112.277 64.9665C112.416 64.834 112.522 64.6716 112.595 64.4793L114.554 64.6086C114.455 65.0792 114.251 65.4902 113.943 65.8415C113.638 66.1895 113.243 66.4613 112.759 66.6569C112.279 66.8491 111.724 66.9452 111.094 66.9452ZM118.795 66.9204C118.215 66.9204 117.69 66.7712 117.219 66.4729C116.752 66.1713 116.38 65.7288 116.105 65.1455C115.833 64.5589 115.698 63.8396 115.698 62.9878C115.698 62.1128 115.838 61.3853 116.12 60.8053C116.402 60.222 116.776 59.7861 117.244 59.4978C117.714 59.2061 118.23 59.0603 118.79 59.0603C119.217 59.0603 119.574 59.1332 119.859 59.279C120.147 59.4216 120.379 59.6005 120.555 59.816C120.734 60.0281 120.87 60.2369 120.963 60.4424H121.027V56.6143H123.14V66.7961H121.052V65.5731H120.963C120.863 65.7852 120.722 65.9957 120.54 66.2045C120.361 66.41 120.127 66.5806 119.839 66.7165C119.554 66.8524 119.206 66.9204 118.795 66.9204ZM119.466 65.235C119.807 65.235 120.096 65.1422 120.331 64.9566C120.57 64.7677 120.752 64.5042 120.878 64.1661C121.007 63.828 121.072 63.432 121.072 62.9779C121.072 62.5238 121.009 62.1294 120.883 61.7947C120.757 61.4599 120.575 61.2014 120.336 61.0191C120.097 60.8368 119.807 60.7457 119.466 60.7457C119.118 60.7457 118.825 60.8401 118.586 61.029C118.347 61.218 118.167 61.4798 118.044 61.8145C117.922 62.1493 117.86 62.5371 117.86 62.9779C117.86 63.422 117.922 63.8148 118.044 64.1562C118.17 64.4942 118.351 64.7594 118.586 64.9516C118.825 65.1405 119.118 65.235 119.466 65.235ZM131.771 66.7961H128.161V56.6143H131.801C132.825 56.6143 133.706 56.8181 134.445 57.2258C135.185 57.6301 135.753 58.2118 136.151 58.9708C136.552 59.7298 136.752 60.6379 136.752 61.6952C136.752 62.7558 136.552 63.6673 136.151 64.4296C135.753 65.1919 135.181 65.7769 134.436 66.1846C133.693 66.5922 132.805 66.7961 131.771 66.7961ZM130.314 64.9516H131.681C132.318 64.9516 132.853 64.8389 133.287 64.6136C133.725 64.3849 134.053 64.0319 134.271 63.5546C134.494 63.074 134.605 62.4542 134.605 61.6952C134.605 60.9429 134.494 60.328 134.271 59.8508C134.053 59.3735 133.726 59.0222 133.292 58.7968C132.858 58.5714 132.323 58.4587 131.686 58.4587H130.314V64.9516ZM138.347 66.7961V56.6143H142.364C143.136 56.6143 143.794 56.7618 144.338 57.0567C144.881 57.3484 145.296 57.7544 145.581 58.2748C145.869 58.7918 146.013 59.3884 146.013 60.0645C146.013 60.7407 145.867 61.3373 145.576 61.8543C145.284 62.3714 144.861 62.7741 144.308 63.0624C143.758 63.3508 143.091 63.4949 142.309 63.4949H139.749V61.7698H141.961C142.376 61.7698 142.717 61.6985 142.985 61.556C143.257 61.4102 143.459 61.2097 143.592 60.9545C143.728 60.6959 143.796 60.3993 143.796 60.0645C143.796 59.7265 143.728 59.4315 143.592 59.1796C143.459 58.9244 143.257 58.7272 142.985 58.588C142.714 58.4455 142.369 58.3742 141.951 58.3742H140.5V66.7961H138.347Z" fill="black"/>
<defs>
<clipPath id="clip0_1_132">
<rect width="184" height="92.5782" fill="white" transform="translate(0.211975 0.296082)"/>
</clipPath>
</defs>
</svg>
