<svg width="184" height="93" viewBox="0 0 184 93" fill="none" xmlns="http://www.w3.org/2000/svg">
<g clip-path="url(#clip0_9820_17980)">
<path fill-rule="evenodd" clip-rule="evenodd" d="M132 2H94V8H82V2H47.9776V12.498L33.8966 8.22962L20.2067 12.498V2H2V78.7707C2 85.5237 7.47444 90.9982 14.2275 90.9982H169.772C176.526 90.9982 182 85.5237 182 78.7707V2H144V8H132V2Z" fill="white"/>
<path d="M132 2H134V0H132V2ZM94 2V0H92V2H94ZM94 8V10H96V8H94ZM82 8H80V10H82V8ZM82 2H84V0H82V2ZM47.9776 2V0H45.9776V2H47.9776ZM47.9776 12.498L47.3974 14.412L49.9776 15.1942V12.498H47.9776ZM33.8966 8.22962L34.4768 6.31563L33.8883 6.13724L33.3013 6.32028L33.8966 8.22962ZM20.2067 12.498H18.2067V15.2166L20.8021 14.4074L20.2067 12.498ZM20.2067 2H22.2067V0H20.2067V2ZM2 2V0H0V2H2ZM182 2H184V0H182V2ZM144 2V0H142V2H144ZM144 8V10H146V8H144ZM132 8H130V10H132V8ZM132 0H94V4H132V0ZM92 2V8H96V2H92ZM94 6H82V10H94V6ZM84 8V2H80V8H84ZM82 0H47.9776V4H82V0ZM45.9776 2V12.498H49.9776V2H45.9776ZM48.5578 10.584L34.4768 6.31563L33.3164 10.1436L47.3974 14.412L48.5578 10.584ZM33.3013 6.32028L19.6114 10.5887L20.8021 14.4074L34.4919 10.139L33.3013 6.32028ZM22.2067 12.498V2H18.2067V12.498H22.2067ZM20.2067 0H2V4H20.2067V0ZM0 2V78.7707H4V2H0ZM0 78.7707C0 86.6283 6.36987 92.9982 14.2275 92.9982V88.9982C8.57901 88.9982 4 84.4192 4 78.7707H0ZM14.2275 92.9982H169.772V88.9982H14.2275V92.9982ZM169.772 92.9982C177.63 92.9982 184 86.6283 184 78.7707H180C180 84.4192 175.421 88.9982 169.772 88.9982V92.9982ZM184 78.7707V2H180V78.7707H184ZM182 0H144V4H182V0ZM142 2V8H146V2H142ZM144 6H132V10H144V6ZM134 8V2H130V8H134Z" fill="black"/>
</g>
<path d="M25.875 34.5V39.25H49.625V36.875C49.625 35.6133 48.5117 34.5 47.25 34.5H25.875ZM23.5 34.5H18.75C17.4141 34.5 16.375 35.6133 16.375 36.875V39.25H23.5V34.5ZM16.375 41.625V60.625C16.375 61.9609 17.4141 63 18.75 63H47.25C48.5117 63 49.625 61.9609 49.625 60.625V41.625H24.6875H16.375ZM14 36.875C14 34.2773 16.0781 32.125 18.75 32.125H47.25C49.8477 32.125 52 34.2773 52 36.875V60.625C52 63.2969 49.8477 65.375 47.25 65.375H18.75C16.0781 65.375 14 63.2969 14 60.625V36.875Z" fill="black"/>
<path d="M48.0302 21.1945C48.3742 21.2221 48.6918 21.2468 49.0235 21.2601C50.0132 21.2999 50.7746 21.2125 51.4704 20.8317L51.5359 20.7959L51.6046 20.7668C51.8286 20.6717 52.0556 20.5605 52.3296 20.4263C52.3704 20.4063 52.4123 20.3858 52.4553 20.3648C52.7681 20.2119 53.1359 20.035 53.5237 19.8858C54.2674 19.5995 55.2274 19.357 56.2935 19.5988C57.1459 19.6803 58.1316 19.9536 58.9586 20.5275C58.9705 20.5333 58.9823 20.5392 58.9942 20.5453C59.0553 20.5768 59.1115 20.6109 59.163 20.6465C60.6898 21.4241 61.4618 22.8416 61.9985 23.827C62.0101 23.8483 62.0216 23.8694 62.033 23.8903C62.6743 25.0666 63.0585 25.7178 63.6983 26.0663C63.9117 26.1647 64.1819 26.275 64.4914 26.4014C65.508 26.8167 66.9487 27.4051 68.1935 28.3115C69.982 29.6138 71.5546 31.6239 72.2772 34.954C72.9099 37.8694 72.0604 40.2822 71.3363 42.3389C71.3126 42.4063 71.289 42.4733 71.2656 42.5399C70.51 44.6914 69.9006 46.5572 70.3701 48.9203L68.8988 49.2126L70.3701 48.9203C70.6587 50.3732 70.2329 51.5481 69.3811 52.434C68.6411 53.2035 67.6101 53.7151 66.7882 54.1092C66.6571 54.1721 66.5288 54.2331 66.4033 54.2927C65.6534 54.6492 65.0017 54.9589 64.4289 55.3523C63.7943 55.7882 63.3937 56.2409 63.1927 56.7973C62.79 57.912 62.0622 58.8844 61.0412 59.5706C59.685 60.572 58.2266 60.6187 56.9803 60.3789C56.0931 60.2081 55.1573 59.8503 54.4163 59.567C54.1959 59.4827 53.9927 59.405 53.8131 59.3407L53.7528 59.3192L53.6947 59.2926C52.1872 58.6036 50.5507 58.5364 48.6423 58.6083C48.333 58.62 48.012 58.6359 47.6819 58.6524C46.0867 58.7318 44.2803 58.8217 42.5634 58.4839L42.5231 58.476L42.4834 58.4659C41.2862 58.1615 40.4125 57.3887 39.7728 56.5384C39.1402 55.6975 38.6645 54.6871 38.2765 53.7201C37.9981 53.0261 37.7385 52.2839 37.4983 51.5971C37.4063 51.3339 37.3171 51.0789 37.2308 50.8378C36.9015 49.9182 36.6077 49.182 36.2971 48.6491C35.8294 47.8468 35.2913 47.1826 34.6835 46.4322C34.3957 46.077 34.0923 45.7025 33.7733 45.2848C32.8426 44.0662 31.9126 42.6169 31.5876 40.707L32.4519 40.5599L32.3015 40.5387L31.5768 40.6207C31.3991 39.051 31.5449 37.4899 31.8577 36.0033L48.0302 21.1945ZM48.0302 21.1945L48.3624 20.5195L45.4639 21.0177C44.7264 21.1445 43.8542 21.4186 43.0666 21.8708C42.3542 22.2798 41.5825 22.9107 41.1446 23.8352C40.6019 24.4632 40.1602 25.218 39.8054 25.8243C39.7371 25.9411 39.672 26.0523 39.6101 26.1561C39.1212 26.9747 38.7563 27.4719 38.3544 27.7447L39.113 28.8621M48.0302 21.1945L39.113 28.8621M39.113 28.8621L39.066 28.9051L37.9197 28.1992C37.8852 28.2553 37.7791 28.3835 37.5173 28.5873C37.2627 28.7856 36.9498 28.9889 36.5645 29.2337C36.5153 29.2649 36.4641 29.2972 36.4112 29.3306C35.7403 29.7543 34.7947 30.3515 34.18 31.1116L34.18 31.1117C33.4265 32.0435 32.8691 33.2005 32.5039 34.0938C32.1413 34.9809 31.9101 35.7545 31.8578 36.0031L39.113 28.8621Z" fill="black" stroke="white" stroke-width="3"/>
<path d="M60.1077 37.3921L51.0796 46.4203C50.8687 46.6311 50.5826 46.7495 50.2844 46.7495C49.9861 46.7495 49.7001 46.6311 49.4891 46.4203L44.4534 41.3578C44.2428 41.1468 44.1245 40.8609 44.1245 40.5629C44.1245 40.2648 44.2428 39.9789 44.4534 39.768L45.8596 38.3617C46.0705 38.1518 46.3559 38.0339 46.6534 38.0339C46.951 38.0339 47.2364 38.1518 47.4473 38.3617L50.3125 41.1405L57.1159 34.4207C57.3268 34.2105 57.6124 34.0925 57.9101 34.0925C58.2078 34.0925 58.4934 34.2105 58.7043 34.4207L60.107 35.7946C60.2125 35.8992 60.2963 36.0236 60.3534 36.1606C60.4106 36.2977 60.4401 36.4447 60.4402 36.5932C60.4402 36.7417 60.4109 36.8888 60.3538 37.0259C60.2968 37.163 60.2131 37.2875 60.1077 37.3921Z" fill="white"/>
<path d="M84.6971 27.6559C84.6431 27.1116 84.4115 26.6888 84.0021 26.3874C83.5928 26.0861 83.0373 25.9354 82.3356 25.9354C81.8588 25.9354 81.4562 26.0028 81.1278 26.1378C80.7995 26.2682 80.5476 26.4504 80.3722 26.6843C80.2012 26.9182 80.1158 27.1836 80.1158 27.4805C80.1068 27.7279 80.1585 27.9438 80.271 28.1282C80.3879 28.3126 80.5476 28.4723 80.75 28.6072C80.9524 28.7377 81.1863 28.8524 81.4517 28.9513C81.7171 29.0458 82.0005 29.1268 82.3018 29.1942L83.5433 29.4911C84.1461 29.6261 84.6993 29.806 85.2031 30.0309C85.7069 30.2558 86.1432 30.5324 86.5121 30.8608C86.8809 31.1892 87.1665 31.576 87.369 32.0213C87.5759 32.4666 87.6816 32.9772 87.6861 33.5529C87.6816 34.3986 87.4657 35.1317 87.0384 35.7525C86.6155 36.3687 86.0038 36.8478 85.2031 37.1896C84.407 37.527 83.4466 37.6957 82.3221 37.6957C81.2066 37.6957 80.235 37.5247 79.4073 37.1829C78.5842 36.841 77.9409 36.335 77.4776 35.6648C77.0188 34.9901 76.7782 34.1557 76.7557 33.1616H79.5827C79.6142 33.6249 79.7469 34.0117 79.9808 34.3221C80.2192 34.628 80.5363 34.8596 80.9322 35.017C81.3325 35.17 81.7846 35.2464 82.2884 35.2464C82.7831 35.2464 83.2127 35.1745 83.5771 35.0305C83.9459 34.8866 84.2315 34.6864 84.4339 34.43C84.6364 34.1737 84.7376 33.879 84.7376 33.5462C84.7376 33.2358 84.6454 32.9749 84.4609 32.7635C84.281 32.5521 84.0156 32.3722 83.6648 32.2237C83.3184 32.0753 82.8933 31.9403 82.3896 31.8189L80.8849 31.4411C79.7199 31.1577 78.8001 30.7146 78.1254 30.1119C77.4506 29.5091 77.1155 28.6972 77.12 27.6761C77.1155 26.8395 77.3382 26.1085 77.788 25.4833C78.2423 24.8581 78.8653 24.37 79.657 24.0192C80.4486 23.6683 81.3482 23.4929 82.3558 23.4929C83.3814 23.4929 84.2765 23.6683 85.0412 24.0192C85.8104 24.37 86.4086 24.8581 86.8359 25.4833C87.2633 26.1085 87.4837 26.8327 87.4972 27.6559H84.6971ZM89.5972 37.5V27.1364H92.4715V37.5H89.5972ZM91.0411 25.8004C90.6138 25.8004 90.2472 25.6587 89.9413 25.3754C89.6399 25.0875 89.4893 24.7434 89.4893 24.343C89.4893 23.9472 89.6399 23.6076 89.9413 23.3242C90.2472 23.0363 90.6138 22.8924 91.0411 22.8924C91.4684 22.8924 91.8328 23.0363 92.1341 23.3242C92.44 23.6076 92.593 23.9472 92.593 24.343C92.593 24.7434 92.44 25.0875 92.1341 25.3754C91.8328 25.6587 91.4684 25.8004 91.0411 25.8004ZM99.443 41.6023C98.5119 41.6023 97.7135 41.4741 97.0478 41.2177C96.3865 40.9658 95.8603 40.6217 95.4689 40.1854C95.0776 39.7491 94.8234 39.2588 94.7065 38.7145L97.3649 38.3569C97.4458 38.5638 97.574 38.7572 97.7495 38.9371C97.9249 39.1171 98.1565 39.261 98.4444 39.369C98.7368 39.4814 99.0922 39.5376 99.5105 39.5376C100.136 39.5376 100.651 39.3847 101.056 39.0788C101.465 38.7775 101.67 38.2714 101.67 37.5607V35.6648H101.548C101.422 35.9527 101.233 36.2248 100.981 36.4812C100.729 36.7376 100.406 36.9467 100.01 37.1087C99.6139 37.2706 99.1416 37.3516 98.5929 37.3516C97.8147 37.3516 97.1062 37.1716 96.4675 36.8118C95.8333 36.4474 95.3272 35.8919 94.9494 35.1452C94.5761 34.3941 94.3894 33.445 94.3894 32.2979C94.3894 31.1239 94.5806 30.1433 94.9629 29.3562C95.3452 28.569 95.8535 27.9798 96.4877 27.5884C97.1265 27.1971 97.8259 27.0014 98.5861 27.0014C99.1664 27.0014 99.6522 27.1004 100.044 27.2983C100.435 27.4917 100.75 27.7346 100.988 28.027C101.231 28.3149 101.418 28.5982 101.548 28.8771H101.656V27.1364H104.51V37.6012C104.51 38.4828 104.294 39.2205 103.862 39.8143C103.431 40.408 102.832 40.8533 102.068 41.1502C101.307 41.4516 100.433 41.6023 99.443 41.6023ZM99.5037 35.1925C99.967 35.1925 100.358 35.0778 100.678 34.8484C101.002 34.6145 101.249 34.2816 101.42 33.8498C101.595 33.4135 101.683 32.8917 101.683 32.2844C101.683 31.6772 101.598 31.1509 101.427 30.7056C101.256 30.2558 101.008 29.9072 100.684 29.6598C100.361 29.4124 99.967 29.2887 99.5037 29.2887C99.0314 29.2887 98.6333 29.4169 98.3095 29.6733C97.9856 29.9252 97.7405 30.276 97.574 30.7259C97.4076 31.1757 97.3244 31.6952 97.3244 32.2844C97.3244 32.8827 97.4076 33.4 97.574 33.8363C97.745 34.2681 97.9901 34.6032 98.3095 34.8416C98.6333 35.0755 99.0314 35.1925 99.5037 35.1925ZM109.672 31.5085V37.5H106.797V27.1364H109.537V28.9648H109.658C109.888 28.3621 110.272 27.8853 110.812 27.5344C111.352 27.1791 112.006 27.0014 112.775 27.0014C113.495 27.0014 114.123 27.1589 114.658 27.4737C115.193 27.7886 115.609 28.2384 115.906 28.8232C116.203 29.4034 116.351 30.0961 116.351 30.9013V37.5H113.477V31.4141C113.482 30.7798 113.32 30.285 112.991 29.9297C112.663 29.5698 112.211 29.3899 111.635 29.3899C111.248 29.3899 110.906 29.4731 110.61 29.6396C110.317 29.806 110.088 30.0489 109.921 30.3683C109.759 30.6831 109.676 31.0632 109.672 31.5085ZM123.34 37.7024C122.274 37.7024 121.356 37.4865 120.587 37.0547C119.822 36.6184 119.233 36.0021 118.819 35.206C118.405 34.4053 118.198 33.4585 118.198 32.3654C118.198 31.2994 118.405 30.3638 118.819 29.5586C119.233 28.7534 119.815 28.1259 120.567 27.6761C121.322 27.2263 122.208 27.0014 123.225 27.0014C123.909 27.0014 124.545 27.1116 125.134 27.332C125.728 27.5479 126.246 27.8741 126.686 28.3104C127.132 28.7467 127.478 29.2955 127.725 29.9567C127.973 30.6134 128.097 31.3826 128.097 32.2642V33.0536H119.345V31.2724H125.391C125.391 30.8585 125.301 30.492 125.121 30.1726C124.941 29.8532 124.691 29.6036 124.372 29.4237C124.057 29.2392 123.691 29.147 123.272 29.147C122.836 29.147 122.449 29.2482 122.112 29.4506C121.779 29.6486 121.518 29.9162 121.329 30.2536C121.14 30.5864 121.043 30.9575 121.039 31.3668V33.0604C121.039 33.5732 121.133 34.0162 121.322 34.3896C121.516 34.7629 121.788 35.0508 122.139 35.2532C122.49 35.4556 122.906 35.5568 123.387 35.5568C123.706 35.5568 123.999 35.5118 124.264 35.4219C124.53 35.3319 124.757 35.197 124.946 35.017C125.134 34.8371 125.278 34.6167 125.377 34.3558L128.036 34.5312C127.901 35.17 127.624 35.7277 127.206 36.2045C126.792 36.6768 126.257 37.0457 125.6 37.3111C124.948 37.572 124.194 37.7024 123.34 37.7024ZM133.791 37.6687C133.004 37.6687 132.291 37.4663 131.652 37.0614C131.018 36.6521 130.514 36.0516 130.141 35.2599C129.772 34.4638 129.588 33.4877 129.588 32.3317C129.588 31.1442 129.779 30.1568 130.161 29.3697C130.543 28.578 131.052 27.9865 131.686 27.5952C132.325 27.1993 133.024 27.0014 133.784 27.0014C134.365 27.0014 134.848 27.1004 135.235 27.2983C135.626 27.4917 135.941 27.7346 136.18 28.027C136.422 28.3149 136.607 28.5982 136.733 28.8771H136.821V23.6818H139.688V37.5H136.854V35.8402H136.733C136.598 36.1281 136.407 36.4137 136.159 36.6971C135.916 36.976 135.599 37.2076 135.208 37.392C134.821 37.5765 134.349 37.6687 133.791 37.6687ZM134.702 35.3814C135.165 35.3814 135.557 35.2554 135.876 35.0036C136.2 34.7472 136.447 34.3896 136.618 33.9308C136.794 33.4719 136.881 32.9344 136.881 32.3182C136.881 31.7019 136.796 31.1667 136.625 30.7124C136.454 30.258 136.207 29.9072 135.883 29.6598C135.559 29.4124 135.165 29.2887 134.702 29.2887C134.23 29.2887 133.832 29.4169 133.508 29.6733C133.184 29.9297 132.939 30.285 132.772 30.7393C132.606 31.1937 132.523 31.7199 132.523 32.3182C132.523 32.9209 132.606 33.454 132.772 33.9173C132.943 34.3761 133.188 34.7359 133.508 34.9968C133.832 35.2532 134.23 35.3814 134.702 35.3814ZM153.999 27.6559C153.945 27.1116 153.713 26.6888 153.304 26.3874C152.895 26.0861 152.339 25.9354 151.637 25.9354C151.161 25.9354 150.758 26.0028 150.43 26.1378C150.101 26.2682 149.849 26.4504 149.674 26.6843C149.503 26.9182 149.418 27.1836 149.418 27.4805C149.409 27.7279 149.46 27.9438 149.573 28.1282C149.69 28.3126 149.849 28.4723 150.052 28.6072C150.254 28.7377 150.488 28.8524 150.753 28.9513C151.019 29.0458 151.302 29.1268 151.604 29.1942L152.845 29.4911C153.448 29.6261 154.001 29.806 154.505 30.0309C155.009 30.2558 155.445 30.5324 155.814 30.8608C156.183 31.1892 156.468 31.576 156.671 32.0213C156.878 32.4666 156.983 32.9772 156.988 33.5529C156.983 34.3986 156.767 35.1317 156.34 35.7525C155.917 36.3687 155.306 36.8478 154.505 37.1896C153.709 37.527 152.748 37.6957 151.624 37.6957C150.508 37.6957 149.537 37.5247 148.709 37.1829C147.886 36.841 147.243 36.335 146.779 35.6648C146.321 34.9901 146.08 34.1557 146.057 33.1616H148.884C148.916 33.6249 149.049 34.0117 149.283 34.3221C149.521 34.628 149.838 34.8596 150.234 35.017C150.634 35.17 151.086 35.2464 151.59 35.2464C152.085 35.2464 152.514 35.1745 152.879 35.0305C153.248 34.8866 153.533 34.6864 153.736 34.43C153.938 34.1737 154.039 33.879 154.039 33.5462C154.039 33.2358 153.947 32.9749 153.763 32.7635C153.583 32.5521 153.317 32.3722 152.967 32.2237C152.62 32.0753 152.195 31.9403 151.691 31.8189L150.187 31.4411C149.022 31.1577 148.102 30.7146 147.427 30.1119C146.752 29.5091 146.417 28.6972 146.422 27.6761C146.417 26.8395 146.64 26.1085 147.09 25.4833C147.544 24.8581 148.167 24.37 148.959 24.0192C149.75 23.6683 150.65 23.4929 151.658 23.4929C152.683 23.4929 153.578 23.6683 154.343 24.0192C155.112 24.37 155.71 24.8581 156.138 25.4833C156.565 26.1085 156.785 26.8327 156.799 27.6559H153.999ZM158.953 37.5V23.6818H164.405C165.453 23.6818 166.346 23.882 167.083 24.2823C167.821 24.6781 168.383 25.2292 168.77 25.9354C169.161 26.6371 169.357 27.4467 169.357 28.3643C169.357 29.282 169.159 30.0916 168.763 30.7933C168.367 31.495 167.794 32.0415 167.043 32.4329C166.296 32.8242 165.392 33.0199 164.33 33.0199H160.856V30.6786H163.858C164.42 30.6786 164.884 30.5819 165.248 30.3885C165.617 30.1906 165.891 29.9184 166.071 29.5721C166.256 29.2212 166.348 28.8187 166.348 28.3643C166.348 27.9055 166.256 27.5052 166.071 27.1634C165.891 26.817 165.617 26.5494 165.248 26.3604C164.879 26.167 164.411 26.0703 163.845 26.0703H161.874V37.5H158.953Z" fill="black"/>
<line x1="182" y1="45.5" x2="76" y2="45.5" stroke="black"/>
<path d="M84.8705 59.208C84.8705 62.172 84.1505 63.984 81.2465 65.268L79.9625 64.056C82.2905 63.252 83.2985 62.208 83.2985 59.256V56.064C83.2985 55.584 83.2745 55.188 83.2265 54.96H84.9425C84.9185 55.2 84.8705 55.584 84.8705 56.064V59.208ZM80.5265 55.056C80.5025 55.284 80.4545 55.668 80.4545 56.148V60.432C80.4545 60.972 80.4905 61.464 80.5145 61.692H78.8345C78.8585 61.464 78.8945 60.972 78.8945 60.432V56.136C78.8945 55.8 78.8705 55.428 78.8225 55.056H80.5265ZM76.5785 57.216C76.7945 57.252 77.2865 57.336 77.8745 57.336H85.7465C86.3825 57.336 86.7425 57.3 87.0785 57.252V58.848C86.8145 58.812 86.3825 58.812 85.7585 58.812H77.8745C77.2745 58.812 76.8545 58.836 76.5785 58.848V57.216ZM87.8651 59.844C90.0131 59.292 91.7651 58.512 93.1091 57.684C94.3331 56.928 95.7011 55.728 96.4811 54.78L97.7771 56.004C96.6851 57.108 95.2211 58.236 93.8051 59.088C92.4491 59.892 90.5051 60.792 88.6091 61.356L87.8651 59.844ZM92.8571 58.464L94.5611 58.056V63.468C94.5611 63.996 94.5851 64.74 94.6691 65.04H92.7611C92.8091 64.752 92.8571 63.996 92.8571 63.468V58.464ZM100.674 63.36C100.674 62.436 100.674 57.468 100.674 56.46C100.674 56.028 100.638 55.44 100.554 55.008H102.426C102.378 55.44 102.318 55.956 102.318 56.46C102.318 57.78 102.33 62.472 102.33 63.36C102.33 63.696 102.378 64.536 102.438 65.028H100.554C100.638 64.56 100.674 63.828 100.674 63.36ZM101.97 58.116C103.566 58.56 106.158 59.508 107.334 60.084L106.662 61.752C105.294 61.044 103.278 60.276 101.97 59.844V58.116ZM113.481 54.924H119.709V56.292H113.481V54.924ZM113.145 63.816H119.937V65.172H113.145V63.816ZM116.973 59.136H119.637V60.504H116.973V59.136ZM116.145 55.488H117.561V64.608H116.145V55.488ZM113.889 58.104H115.233V64.428H113.889V58.104ZM109.209 58.08H112.677V59.16H109.209V58.08ZM109.281 54.684H112.689V55.776H109.281V54.684ZM109.209 59.76H112.677V60.84H109.209V59.76ZM108.621 56.352H113.109V57.48H108.621V56.352ZM109.869 61.452H112.761V65.1H109.869V63.972H111.525V62.592H109.869V61.452ZM109.173 61.452H110.385V65.58H109.173V61.452ZM121.857 54.972H125.301V62.34H121.857V61.02H123.969V56.268H121.857V54.972ZM121.869 57.972H124.497V59.256H121.869V57.972ZM126.993 54.792H130.677V56.124H126.993V54.792ZM126.993 57.66H130.677V58.956H126.993V57.66ZM126.969 60.504H130.665V61.788H126.969V60.504ZM121.089 54.972H122.421V63.384H121.089V54.972ZM130.137 54.792H131.565V63.936C131.565 64.68 131.409 65.076 130.941 65.304C130.461 65.532 129.777 65.568 128.757 65.568C128.697 65.172 128.469 64.548 128.265 64.176C128.913 64.212 129.645 64.2 129.849 64.2C130.065 64.2 130.137 64.128 130.137 63.912V54.792ZM126.129 54.792H127.545V59.148C127.545 61.224 127.221 64.044 125.001 65.676C124.785 65.388 124.233 64.896 123.921 64.704C125.949 63.228 126.129 60.972 126.129 59.136V54.792Z" fill="black"/>
<defs>
<clipPath id="clip0_9820_17980">
<rect width="184" height="92.5782" fill="white"/>
</clipPath>
</defs>
</svg>
