<svg width="186" height="93" viewBox="0 0 186 93" fill="none" xmlns="http://www.w3.org/2000/svg">
<g clip-path="url(#clip0_1_156)">
<path d="M2.80957 2.29608V78.6468C2.80957 85.3998 8.28401 90.8743 15.0371 90.8743H170.582C177.335 90.8743 182.81 85.3998 182.81 78.6468V2.29608H48.7872V12.7941L34.7062 8.5257L21.0163 12.7941V2.29608H2.80957Z" fill="white" stroke="black" stroke-width="4" stroke-miterlimit="10"/>
</g>
<mask id="mask0_1_156" style="mask-type:alpha" maskUnits="userSpaceOnUse" x="11" y="18" width="81" height="81">
<rect x="11.8096" y="18.5851" width="80" height="80" fill="#D9D9D9"/>
</mask>
<g mask="url(#mask0_1_156)">
<path d="M49.3096 68.5851C48.7192 68.5851 48.2244 68.3847 47.8252 67.9839C47.426 67.5835 47.2264 67.087 47.2264 66.4945C47.2264 65.902 47.426 65.4079 47.8252 65.012C48.2244 64.6162 48.7192 64.4183 49.3096 64.4183H54.7264C55.5527 64.4183 56.2454 64.1389 56.8046 63.5801C57.3633 63.021 57.6427 62.3283 57.6427 61.502V55.6683C57.6427 54.1128 58.1081 52.717 59.0389 51.4808C59.9694 50.2449 61.1706 49.3839 62.6427 48.8976V48.2726C61.1706 47.8143 59.9694 46.9601 59.0389 45.7101C58.1081 44.4601 57.6427 43.0574 57.6427 41.502V35.6683C57.6427 34.842 57.3633 34.1493 56.8046 33.5901C56.2454 33.0314 55.5527 32.752 54.7264 32.752H49.3096C48.7192 32.752 48.2244 32.5516 47.8252 32.1508C47.426 31.7499 47.2264 31.2535 47.2264 30.6614C47.2264 30.0689 47.426 29.5747 47.8252 29.1789C48.2244 28.7831 48.7192 28.5851 49.3096 28.5851H54.7264C56.694 28.5851 58.3662 29.2739 59.7433 30.6514C61.1208 32.0285 61.8096 33.7008 61.8096 35.6683V41.502C61.8096 42.3283 62.0892 43.021 62.6483 43.5801C63.2071 44.1389 63.8998 44.4183 64.7264 44.4183C65.3164 44.4183 65.8112 44.6183 66.2108 45.0183C66.61 45.4183 66.8096 45.9139 66.8096 46.5051V50.6776C66.8096 51.2689 66.61 51.7624 66.2108 52.1583C65.8112 52.5541 65.3164 52.752 64.7264 52.752C63.8998 52.752 63.2071 53.0314 62.6483 53.5901C62.0892 54.1493 61.8096 54.842 61.8096 55.6683V61.502C61.8096 63.4695 61.1208 65.1418 59.7433 66.5189C58.3662 67.8964 56.694 68.5851 54.7264 68.5851H49.3096ZM28.8927 68.5851C26.9252 68.5851 25.2529 67.8964 23.8758 66.5189C22.4983 65.1418 21.8096 63.4695 21.8096 61.502V55.6683C21.8096 54.842 21.53 54.1493 20.9708 53.5901C20.4121 53.0314 19.7194 52.752 18.8927 52.752C18.3027 52.752 17.8079 52.552 17.4083 52.152C17.0092 51.752 16.8096 51.2564 16.8096 50.6651V46.4926C16.8096 45.9014 17.0092 45.4079 17.4083 45.012C17.8079 44.6162 18.3027 44.4183 18.8927 44.4183C19.7194 44.4183 20.4121 44.1389 20.9708 43.5801C21.53 43.021 21.8096 42.3283 21.8096 41.502V35.6683C21.8096 33.7008 22.4983 32.0285 23.8758 30.6514C25.2529 29.2739 26.9252 28.5851 28.8927 28.5851H34.3096C34.9 28.5851 35.3948 28.7856 35.7939 29.1864C36.1931 29.5868 36.3927 30.0833 36.3927 30.6758C36.3927 31.2683 36.1931 31.7624 35.7939 32.1583C35.3948 32.5541 34.9 32.752 34.3096 32.752H28.8927C28.0664 32.752 27.3737 33.0314 26.8146 33.5901C26.2558 34.1493 25.9764 34.842 25.9764 35.6683V41.502C25.9764 43.0574 25.511 44.4601 24.5802 45.7101C23.6498 46.9601 22.4485 47.8143 20.9764 48.2726V48.8976C22.4485 49.3839 23.6498 50.2449 24.5802 51.4808C25.511 52.717 25.9764 54.1128 25.9764 55.6683V61.502C25.9764 62.3283 26.2558 63.021 26.8146 63.5801C27.3737 64.1389 28.0664 64.4183 28.8927 64.4183H34.3096C34.9 64.4183 35.3948 64.6187 35.7939 65.0195C36.1931 65.4204 36.3927 65.9168 36.3927 66.5089C36.3927 67.1014 36.1931 67.5956 35.7939 67.9914C35.3948 68.3872 34.9 68.5851 34.3096 68.5851H28.8927Z" fill="#1C1B1F"/>
</g>
<path d="M87.7954 31.3614C87.7272 30.6739 87.4346 30.1398 86.9175 29.7591C86.4005 29.3785 85.6988 29.1881 84.8124 29.1881C84.2101 29.1881 83.7016 29.2734 83.2868 29.4438C82.8721 29.6086 82.5539 29.8387 82.3323 30.1341C82.1164 30.4296 82.0084 30.7648 82.0084 31.1398C81.9971 31.4523 82.0624 31.7251 82.2045 31.958C82.3522 32.191 82.5539 32.3927 82.8096 32.5631C83.0653 32.7279 83.3607 32.8728 83.6959 32.9978C84.0312 33.1171 84.3891 33.2194 84.7698 33.3046L86.338 33.6796C87.0993 33.8501 87.7982 34.0773 88.4346 34.3614C89.0709 34.6455 89.6221 34.9949 90.088 35.4097C90.5539 35.8245 90.9147 36.3131 91.1704 36.8756C91.4317 37.4381 91.5653 38.083 91.5709 38.8103C91.5653 39.8785 91.2925 40.8046 90.7528 41.5887C90.2187 42.3671 89.4459 42.9722 88.4346 43.404C87.4289 43.8302 86.2158 44.0432 84.7954 44.0432C83.3863 44.0432 82.159 43.8273 81.1135 43.3955C80.0738 42.9637 79.2613 42.3245 78.676 41.4779C78.0965 40.6256 77.7925 39.5716 77.7641 38.316H81.3351C81.3749 38.9012 81.5425 39.3898 81.838 39.7819C82.1391 40.1682 82.5397 40.4609 83.0397 40.6597C83.5454 40.8529 84.1164 40.9495 84.7528 40.9495C85.3778 40.9495 85.9204 40.8586 86.3806 40.6768C86.8465 40.4949 87.2073 40.2421 87.463 39.9182C87.7187 39.5944 87.8465 39.2222 87.8465 38.8018C87.8465 38.4097 87.73 38.0802 87.4971 37.8131C87.2698 37.5461 86.9346 37.3188 86.4914 37.1313C86.0539 36.9438 85.517 36.7734 84.8806 36.6199L82.98 36.1427C81.5084 35.7847 80.3465 35.2251 79.4942 34.4637C78.642 33.7023 78.2187 32.6768 78.2243 31.387C78.2187 30.3302 78.4999 29.4069 79.0681 28.6171C79.642 27.8273 80.4289 27.2109 81.4289 26.7677C82.4289 26.3245 83.5653 26.1029 84.838 26.1029C86.1334 26.1029 87.2641 26.3245 88.23 26.7677C89.2016 27.2109 89.9573 27.8273 90.4971 28.6171C91.0368 29.4069 91.3153 30.3216 91.3323 31.3614H87.7954ZM103.522 31.3614C103.454 30.6739 103.161 30.1398 102.644 29.7591C102.127 29.3785 101.425 29.1881 100.539 29.1881C99.9367 29.1881 99.4282 29.2734 99.0134 29.4438C98.5986 29.6086 98.2805 29.8387 98.0589 30.1341C97.843 30.4296 97.735 30.7648 97.735 31.1398C97.7236 31.4523 97.789 31.7251 97.931 31.958C98.0787 32.191 98.2805 32.3927 98.5361 32.5631C98.7918 32.7279 99.0873 32.8728 99.4225 32.9978C99.7577 33.1171 100.116 33.2194 100.496 33.3046L102.065 33.6796C102.826 33.8501 103.525 34.0773 104.161 34.3614C104.797 34.6455 105.349 34.9949 105.815 35.4097C106.28 35.8245 106.641 36.3131 106.897 36.8756C107.158 37.4381 107.292 38.083 107.297 38.8103C107.292 39.8785 107.019 40.8046 106.479 41.5887C105.945 42.3671 105.172 42.9722 104.161 43.404C103.155 43.8302 101.942 44.0432 100.522 44.0432C99.1128 44.0432 97.8856 43.8273 96.8401 43.3955C95.8003 42.9637 94.9878 42.3245 94.4026 41.4779C93.8231 40.6256 93.5191 39.5716 93.4907 38.316H97.0617C97.1015 38.9012 97.2691 39.3898 97.5645 39.7819C97.8657 40.1682 98.2662 40.4609 98.7662 40.6597C99.2719 40.8529 99.843 40.9495 100.479 40.9495C101.104 40.9495 101.647 40.8586 102.107 40.6768C102.573 40.4949 102.934 40.2421 103.19 39.9182C103.445 39.5944 103.573 39.2222 103.573 38.8018C103.573 38.4097 103.457 38.0802 103.224 37.8131C102.996 37.5461 102.661 37.3188 102.218 37.1313C101.78 36.9438 101.244 36.7734 100.607 36.6199L98.7066 36.1427C97.235 35.7847 96.0731 35.2251 95.2208 34.4637C94.3685 33.7023 93.9452 32.6768 93.9509 31.387C93.9452 30.3302 94.2265 29.4069 94.7947 28.6171C95.3685 27.8273 96.1555 27.2109 97.1555 26.7677C98.1555 26.3245 99.2918 26.1029 100.565 26.1029C101.86 26.1029 102.991 26.3245 103.957 26.7677C104.928 27.2109 105.684 27.8273 106.224 28.6171C106.763 29.4069 107.042 30.3216 107.059 31.3614H103.522ZM109.78 43.7961V26.3415H116.666C117.99 26.3415 119.118 26.5944 120.05 27.1001C120.981 27.6001 121.692 28.2961 122.18 29.1881C122.675 30.0745 122.922 31.0972 122.922 32.2563C122.922 33.4154 122.672 34.4381 122.172 35.3245C121.672 36.2109 120.947 36.9012 119.998 37.3955C119.055 37.8898 117.913 38.137 116.572 38.137H112.183V35.1796H115.976C116.686 35.1796 117.271 35.0574 117.731 34.8131C118.197 34.5631 118.544 34.2194 118.771 33.7819C119.004 33.3387 119.121 32.8302 119.121 32.2563C119.121 31.6768 119.004 31.1711 118.771 30.7393C118.544 30.3018 118.197 29.9637 117.731 29.7251C117.266 29.4807 116.675 29.3586 115.959 29.3586H113.47V43.7961H109.78Z" fill="black"/>
<line x1="170.81" y1="51.7961" x2="76.8096" y2="51.7961" stroke="black" stroke-width="2"/>
<path d="M83.218 59.5425C83.1782 59.1415 83.0075 58.8299 82.7059 58.6079C82.4043 58.3858 81.9949 58.2748 81.4779 58.2748C81.1266 58.2748 80.8299 58.3245 80.588 58.4239C80.346 58.52 80.1604 58.6543 80.0312 58.8266C79.9052 58.999 79.8422 59.1945 79.8422 59.4133C79.8356 59.5956 79.8737 59.7547 79.9566 59.8905C80.0428 60.0264 80.1604 60.1441 80.3096 60.2435C80.4587 60.3396 80.6311 60.4242 80.8266 60.4971C81.0222 60.5667 81.231 60.6263 81.453 60.6761L82.3678 60.8948C82.8119 60.9942 83.2196 61.1268 83.5908 61.2925C83.962 61.4582 84.2835 61.6621 84.5553 61.904C84.8271 62.146 85.0376 62.431 85.1867 62.7591C85.3392 63.0873 85.4171 63.4635 85.4204 63.8877C85.4171 64.5108 85.258 65.0511 84.9431 65.5084C84.6315 65.9625 84.1808 66.3155 83.5908 66.5674C83.0042 66.816 82.2965 66.9403 81.468 66.9403C80.646 66.9403 79.9301 66.8143 79.3202 66.5624C78.7137 66.3105 78.2397 65.9377 77.8983 65.4438C77.5603 64.9466 77.383 64.3318 77.3664 63.5993H79.4495C79.4727 63.9407 79.5705 64.2258 79.7428 64.4545C79.9185 64.6798 80.1521 64.8505 80.4438 64.9665C80.7388 65.0792 81.0719 65.1356 81.4431 65.1356C81.8077 65.1356 82.1242 65.0825 82.3927 64.9765C82.6644 64.8704 82.8749 64.7229 83.0241 64.534C83.1732 64.3451 83.2478 64.128 83.2478 63.8827C83.2478 63.654 83.1798 63.4618 83.0439 63.306C82.9114 63.1502 82.7158 63.0177 82.4573 62.9083C82.2021 62.7989 81.8889 62.6995 81.5177 62.61L80.409 62.3316C79.5506 62.1228 78.8728 61.7963 78.3756 61.3522C77.8785 60.9081 77.6315 60.3098 77.6349 59.5574C77.6315 58.941 77.7956 58.4024 78.127 57.9417C78.4618 57.481 78.9208 57.1214 79.5042 56.8628C80.0875 56.6043 80.7504 56.4751 81.4928 56.4751C82.2485 56.4751 82.9081 56.6043 83.4715 56.8628C84.0383 57.1214 84.4791 57.481 84.7939 57.9417C85.1088 58.4024 85.2712 58.936 85.2812 59.5425H83.218ZM86.8286 66.7961V59.1597H88.9465V66.7961H86.8286ZM87.8925 58.1753C87.5776 58.1753 87.3075 58.0709 87.0821 57.8621C86.8601 57.65 86.749 57.3965 86.749 57.1015C86.749 56.8098 86.8601 56.5596 87.0821 56.3508C87.3075 56.1386 87.5776 56.0326 87.8925 56.0326C88.2074 56.0326 88.4758 56.1386 88.6979 56.3508C88.9233 56.5596 89.036 56.8098 89.036 57.1015C89.036 57.3965 88.9233 57.65 88.6979 57.8621C88.4758 58.0709 88.2074 58.1753 87.8925 58.1753ZM94.0834 69.8188C93.3973 69.8188 92.809 69.7243 92.3184 69.5354C91.8312 69.3498 91.4434 69.0963 91.1551 68.7748C90.8667 68.4533 90.6795 68.092 90.5933 67.691L92.5521 67.4275C92.6118 67.5799 92.7062 67.7225 92.8355 67.855C92.9648 67.9876 93.1354 68.0937 93.3476 68.1732C93.563 68.2561 93.8248 68.2975 94.1331 68.2975C94.5938 68.2975 94.9733 68.1848 95.2716 67.9594C95.5732 67.7374 95.724 67.3645 95.724 66.8408V65.4438H95.6345C95.5417 65.6559 95.4025 65.8565 95.2169 66.0454C95.0313 66.2343 94.7926 66.3884 94.501 66.5077C94.2093 66.627 93.8613 66.6867 93.4569 66.6867C92.8836 66.6867 92.3615 66.5541 91.8909 66.289C91.4236 66.0205 91.0507 65.6112 90.7723 65.061C90.4972 64.5075 90.3596 63.8082 90.3596 62.963C90.3596 62.0979 90.5005 61.3754 90.7822 60.7954C91.064 60.2154 91.4385 59.7812 91.9058 59.4928C92.3765 59.2045 92.8918 59.0603 93.452 59.0603C93.8795 59.0603 94.2375 59.1332 94.5258 59.279C94.8142 59.4216 95.0462 59.6005 95.2219 59.816C95.4008 60.0281 95.5384 60.2369 95.6345 60.4424H95.714V59.1597H97.817V66.8707C97.817 67.5203 97.6579 68.0638 97.3398 68.5013C97.0216 68.9388 96.5808 69.267 96.0173 69.4857C95.4572 69.7078 94.8125 69.8188 94.0834 69.8188ZM94.1281 65.0958C94.4695 65.0958 94.7578 65.0113 94.9932 64.8422C95.2318 64.6699 95.4141 64.4246 95.54 64.1065C95.6693 63.785 95.7339 63.4005 95.7339 62.953C95.7339 62.5056 95.671 62.1178 95.545 61.7897C95.4191 61.4582 95.2368 61.2014 94.9981 61.0191C94.7595 60.8368 94.4695 60.7457 94.1281 60.7457C93.7801 60.7457 93.4868 60.8401 93.2481 61.029C93.0095 61.2146 92.8289 61.4732 92.7062 61.8046C92.5836 62.136 92.5223 62.5189 92.5223 62.953C92.5223 63.3939 92.5836 63.775 92.7062 64.0965C92.8322 64.4147 93.0128 64.6616 93.2481 64.8373C93.4868 65.0096 93.7801 65.0958 94.1281 65.0958ZM101.62 62.3813V66.7961H99.5024V59.1597H101.521V60.507H101.61C101.779 60.0629 102.063 59.7116 102.46 59.453C102.858 59.1912 103.34 59.0603 103.907 59.0603C104.438 59.0603 104.9 59.1763 105.294 59.4083C105.689 59.6403 105.995 59.9717 106.214 60.4026C106.433 60.8302 106.542 61.3406 106.542 61.9339V66.7961H104.424V62.3117C104.428 61.8444 104.308 61.4798 104.066 61.218C103.824 60.9528 103.491 60.8202 103.067 60.8202C102.782 60.8202 102.53 60.8815 102.311 61.0042C102.096 61.1268 101.927 61.3058 101.804 61.5411C101.685 61.7731 101.624 62.0532 101.62 62.3813ZM111.691 66.9452C110.906 66.9452 110.23 66.7861 109.663 66.468C109.1 66.1465 108.665 65.6924 108.361 65.1057C108.056 64.5158 107.903 63.8181 107.903 63.0127C107.903 62.2272 108.056 61.5378 108.361 60.9445C108.665 60.3512 109.095 59.8889 109.648 59.5574C110.205 59.226 110.858 59.0603 111.607 59.0603C112.111 59.0603 112.58 59.1415 113.014 59.3039C113.451 59.463 113.833 59.7033 114.157 60.0248C114.486 60.3463 114.741 60.7506 114.923 61.2378C115.105 61.7217 115.196 62.2885 115.196 62.9381V63.5198H108.748V62.2073H113.203C113.203 61.9024 113.137 61.6323 113.004 61.3969C112.871 61.1616 112.687 60.9777 112.452 60.8451C112.22 60.7092 111.95 60.6413 111.642 60.6413C111.32 60.6413 111.035 60.7158 110.787 60.865C110.541 61.0108 110.349 61.208 110.21 61.4566C110.071 61.7019 109.999 61.9753 109.996 62.2769V63.5248C109.996 63.9026 110.066 64.2291 110.205 64.5042C110.348 64.7793 110.548 64.9914 110.807 65.1405C111.065 65.2897 111.372 65.3643 111.726 65.3643C111.962 65.3643 112.177 65.3311 112.373 65.2648C112.568 65.1985 112.736 65.0991 112.875 64.9665C113.014 64.834 113.12 64.6716 113.193 64.4793L115.152 64.6086C115.052 65.0792 114.848 65.4902 114.54 65.8415C114.235 66.1895 113.841 66.4613 113.357 66.6569C112.876 66.8491 112.321 66.9452 111.691 66.9452ZM119.392 66.9204C118.812 66.9204 118.287 66.7712 117.816 66.4729C117.349 66.1713 116.978 65.7288 116.703 65.1455C116.431 64.5589 116.295 63.8396 116.295 62.9878C116.295 62.1128 116.436 61.3853 116.718 60.8053C116.999 60.222 117.374 59.7861 117.841 59.4978C118.312 59.2061 118.827 59.0603 119.388 59.0603C119.815 59.0603 120.171 59.1332 120.456 59.279C120.745 59.4216 120.977 59.6005 121.152 59.816C121.331 60.0281 121.467 60.2369 121.56 60.4424H121.625V56.6143H123.738V66.7961H121.65V65.5731H121.56C121.461 65.7852 121.32 65.9957 121.138 66.2045C120.959 66.41 120.725 66.5806 120.437 66.7165C120.151 66.8524 119.803 66.9204 119.392 66.9204ZM120.064 65.235C120.405 65.235 120.693 65.1422 120.929 64.9566C121.167 64.7677 121.35 64.5042 121.476 64.1661C121.605 63.828 121.669 63.432 121.669 62.9779C121.669 62.5238 121.607 62.1294 121.481 61.7947C121.355 61.4599 121.172 61.2014 120.934 61.0191C120.695 60.8368 120.405 60.7457 120.064 60.7457C119.716 60.7457 119.422 60.8401 119.184 61.029C118.945 61.218 118.764 61.4798 118.642 61.8145C118.519 62.1493 118.458 62.5371 118.458 62.9779C118.458 63.422 118.519 63.8148 118.642 64.1562C118.768 64.4942 118.948 64.7594 119.184 64.9516C119.422 65.1405 119.716 65.235 120.064 65.235ZM134.282 59.5425C134.243 59.1415 134.072 58.8299 133.77 58.6079C133.469 58.3858 133.059 58.2748 132.542 58.2748C132.191 58.2748 131.894 58.3245 131.652 58.4239C131.41 58.52 131.225 58.6543 131.096 58.8266C130.97 58.999 130.907 59.1945 130.907 59.4133C130.9 59.5956 130.938 59.7547 131.021 59.8905C131.107 60.0264 131.225 60.1441 131.374 60.2435C131.523 60.3396 131.696 60.4242 131.891 60.4971C132.087 60.5667 132.295 60.6263 132.517 60.6761L133.432 60.8948C133.876 60.9942 134.284 61.1268 134.655 61.2925C135.026 61.4582 135.348 61.6621 135.62 61.904C135.892 62.146 136.102 62.431 136.251 62.7591C136.404 63.0873 136.482 63.4635 136.485 63.8877C136.482 64.5108 136.322 65.0511 136.008 65.5084C135.696 65.9625 135.245 66.3155 134.655 66.5674C134.069 66.816 133.361 66.9403 132.532 66.9403C131.71 66.9403 130.995 66.8143 130.385 66.5624C129.778 66.3105 129.304 65.9377 128.963 65.4438C128.625 64.9466 128.447 64.3318 128.431 63.5993H130.514C130.537 63.9407 130.635 64.2258 130.807 64.4545C130.983 64.6798 131.217 64.8505 131.508 64.9665C131.803 65.0792 132.136 65.1356 132.508 65.1356C132.872 65.1356 133.189 65.0825 133.457 64.9765C133.729 64.8704 133.939 64.7229 134.089 64.534C134.238 64.3451 134.312 64.128 134.312 63.8827C134.312 63.654 134.244 63.4618 134.108 63.306C133.976 63.1502 133.78 63.0177 133.522 62.9083C133.267 62.7989 132.953 62.6995 132.582 62.61L131.473 62.3316C130.615 62.1228 129.937 61.7963 129.44 61.3522C128.943 60.9081 128.696 60.3098 128.699 59.5574C128.696 58.941 128.86 58.4024 129.191 57.9417C129.526 57.481 129.985 57.1214 130.569 56.8628C131.152 56.6043 131.815 56.4751 132.557 56.4751C133.313 56.4751 133.973 56.6043 134.536 56.8628C135.103 57.1214 135.544 57.481 135.858 57.9417C136.173 58.4024 136.336 58.936 136.346 59.5425H134.282ZM137.933 66.7961V56.6143H141.95C142.722 56.6143 143.38 56.7618 143.924 57.0567C144.467 57.3484 144.881 57.7544 145.166 58.2748C145.455 58.7918 145.599 59.3884 145.599 60.0645C145.599 60.7407 145.453 61.3373 145.161 61.8543C144.87 62.3714 144.447 62.7741 143.894 63.0624C143.344 63.3508 142.677 63.4949 141.895 63.4949H139.335V61.7698H141.547C141.961 61.7698 142.303 61.6985 142.571 61.556C142.843 61.4102 143.045 61.2097 143.178 60.9545C143.314 60.6959 143.382 60.3993 143.382 60.0645C143.382 59.7265 143.314 59.4315 143.178 59.1796C143.045 58.9244 142.843 58.7272 142.571 58.588C142.3 58.4455 141.955 58.3742 141.537 58.3742H140.085V66.7961H137.933Z" fill="black"/>
<defs>
<clipPath id="clip0_1_156">
<rect width="184" height="92.5782" fill="white" transform="translate(0.80957 0.296082)"/>
</clipPath>
</defs>
</svg>
