<svg width="184" height="107" viewBox="0 0 184 107" fill="none" xmlns="http://www.w3.org/2000/svg">
<g clip-path="url(#clip0_9554_8786)">
<path fill-rule="evenodd" clip-rule="evenodd" d="M182 14.2275V93.2014H144V101H132V93.2014H94V101H82V93.2014H47.9776V103.699L33.8966 99.431L20.2067 103.699V93.2014H2V14.2275C2 7.47444 7.47444 2 14.2275 2H169.772C176.526 2 182 7.47444 182 14.2275Z" fill="white"/>
<path d="M182 93.2014V95.2014H184V93.2014H182ZM144 93.2014V91.2014H142V93.2014H144ZM144 101V103H146V101H144ZM132 101H130V103H132V101ZM132 93.2014H134V91.2014H132V93.2014ZM94 93.2014V91.2014H92V93.2014H94ZM94 101V103H96V101H94ZM82 101H80V103H82V101ZM82 93.2014H84V91.2014H82V93.2014ZM47.9776 93.2014V91.2014H45.9776V93.2014H47.9776ZM47.9776 103.699L47.3974 105.613L49.9776 106.396V103.699H47.9776ZM33.8966 99.431L34.4768 97.517L33.8883 97.3386L33.3013 97.5216L33.8966 99.431ZM20.2067 103.699H18.2067V106.418L20.8021 105.609L20.2067 103.699ZM20.2067 93.2014H22.2067V91.2014H20.2067V93.2014ZM2 93.2014H0V95.2014H2V93.2014ZM184 93.2014V14.2275H180V93.2014H184ZM144 95.2014H182V91.2014H144V95.2014ZM142 93.2014V101H146V93.2014H142ZM144 99H132V103H144V99ZM134 101V93.2014H130V101H134ZM94 95.2014H132V91.2014H94V95.2014ZM96 101V93.2014H92V101H96ZM82 103H94V99H82V103ZM80 93.2014V101H84V93.2014H80ZM47.9776 95.2014H82V91.2014H47.9776V95.2014ZM49.9776 103.699V93.2014H45.9776V103.699H49.9776ZM33.3164 101.345L47.3974 105.613L48.5578 101.785L34.4768 97.517L33.3164 101.345ZM20.8021 105.609L34.4919 101.34L33.3013 97.5216L19.6114 101.79L20.8021 105.609ZM18.2067 93.2014V103.699H22.2067V93.2014H18.2067ZM2 95.2014H20.2067V91.2014H2V95.2014ZM0 14.2275V93.2014H4V14.2275H0ZM14.2275 0C6.36987 0 0 6.36987 0 14.2275H4C4 8.57901 8.57901 4 14.2275 4V0ZM169.772 0H14.2275V4H169.772V0ZM184 14.2275C184 6.36987 177.63 0 169.772 0V4C175.421 4 180 8.57901 180 14.2275H184Z" fill="black"/>
<path d="M27 28C25.3125 28 24 29.4062 24 31V67C24 68.6875 25.3125 70 27 70H33V64C33 60.7188 35.625 58 39 58C42.2812 58 45 60.7188 45 64V70H51C52.5938 70 54 68.6875 54 67V31C54 29.4062 52.5938 28 51 28H27ZM42 64C42 62.4062 40.5938 61 39 61C37.3125 61 36 62.4062 36 64V70H42V64ZM33 73H27C23.625 73 21 70.375 21 67V31C21 27.7188 23.625 25 27 25H51C54.2812 25 57 27.7188 57 31V67C57 70.375 54.2812 73 51 73H45H42H36H33ZM27 36.25C27 35.0312 27.9375 34 29.25 34H33.75C34.9688 34 36 35.0312 36 36.25V40.75C36 42.0625 34.9688 43 33.75 43H29.25C27.9375 43 27 42.0625 27 40.75V36.25ZM30 37V40H33V37H30ZM44.25 34H48.75C49.9688 34 51 35.0312 51 36.25V40.75C51 42.0625 49.9688 43 48.75 43H44.25C42.9375 43 42 42.0625 42 40.75V36.25C42 35.0312 42.9375 34 44.25 34ZM45 40H48V37H45V40ZM27 48.25C27 47.0312 27.9375 46 29.25 46H33.75C34.9688 46 36 47.0312 36 48.25V52.75C36 54.0625 34.9688 55 33.75 55H29.25C27.9375 55 27 54.0625 27 52.75V48.25ZM30 49V52H33V49H30ZM44.25 46H48.75C49.9688 46 51 47.0312 51 48.25V52.75C51 54.0625 49.9688 55 48.75 55H44.25C42.9375 55 42 54.0625 42 52.75V48.25C42 47.0312 42.9375 46 44.25 46ZM45 52H48V49H45V52Z" fill="black"/>
<path d="M48.0302 20.1945C48.3742 20.2221 48.6918 20.2468 49.0235 20.2601C50.0132 20.2999 50.7746 20.2125 51.4704 19.8317L51.5359 19.7959L51.6046 19.7668C51.8286 19.6717 52.0556 19.5605 52.3296 19.4263C52.3704 19.4063 52.4123 19.3858 52.4553 19.3648C52.7681 19.2119 53.1359 19.035 53.5237 18.8858C54.2674 18.5995 55.2274 18.357 56.2935 18.5988C57.1459 18.6803 58.1316 18.9536 58.9586 19.5275C58.9705 19.5333 58.9823 19.5392 58.9942 19.5453C59.0553 19.5768 59.1115 19.6109 59.163 19.6465C60.6898 20.4241 61.4618 21.8416 61.9985 22.827C62.0101 22.8483 62.0216 22.8694 62.033 22.8903C62.6743 24.0666 63.0585 24.7178 63.6983 25.0663C63.9117 25.1647 64.1819 25.275 64.4914 25.4014C65.508 25.8167 66.9487 26.4051 68.1935 27.3115C69.982 28.6138 71.5546 30.6239 72.2772 33.954C72.9099 36.8694 72.0604 39.2822 71.3363 41.3389C71.3126 41.4063 71.289 41.4733 71.2656 41.5399C70.51 43.6914 69.9006 45.5572 70.3701 47.9203L68.8988 48.2126L70.3701 47.9203C70.6587 49.3732 70.2329 50.5481 69.3811 51.434C68.6411 52.2035 67.6101 52.7151 66.7882 53.1092C66.6571 53.1721 66.5288 53.2331 66.4033 53.2927C65.6534 53.6492 65.0017 53.9589 64.4289 54.3523C63.7943 54.7882 63.3937 55.2409 63.1927 55.7973C62.79 56.912 62.0622 57.8844 61.0412 58.5706C59.685 59.572 58.2266 59.6187 56.9803 59.3789C56.0931 59.2081 55.1573 58.8503 54.4163 58.567C54.1959 58.4827 53.9927 58.405 53.8131 58.3407L53.7528 58.3192L53.6947 58.2926C52.1872 57.6036 50.5507 57.5364 48.6423 57.6083C48.333 57.62 48.012 57.6359 47.6819 57.6524C46.0867 57.7318 44.2803 57.8217 42.5634 57.4839L42.5231 57.476L42.4834 57.4659C41.2862 57.1615 40.4125 56.3887 39.7728 55.5384C39.1402 54.6975 38.6645 53.6871 38.2765 52.7201C37.9981 52.0261 37.7385 51.2839 37.4983 50.5971C37.4063 50.3339 37.3171 50.0789 37.2308 49.8378C36.9015 48.9182 36.6077 48.182 36.2971 47.6491C35.8294 46.8468 35.2913 46.1826 34.6835 45.4322C34.3957 45.077 34.0923 44.7025 33.7733 44.2848C32.8426 43.0662 31.9126 41.6169 31.5876 39.707L32.4519 39.5599L32.3015 39.5387L31.5768 39.6207C31.3991 38.051 31.5449 36.4899 31.8577 35.0033L48.0302 20.1945ZM48.0302 20.1945L48.3624 19.5195L45.4639 20.0177C44.7264 20.1445 43.8542 20.4186 43.0666 20.8708C42.3542 21.2798 41.5825 21.9107 41.1446 22.8352C40.6019 23.4632 40.1602 24.218 39.8054 24.8243C39.7371 24.9411 39.672 25.0523 39.6101 25.1561C39.1212 25.9747 38.7563 26.4719 38.3544 26.7447L39.113 27.8621M48.0302 20.1945L39.113 27.8621M39.113 27.8621L39.066 27.9051L37.9197 27.1992C37.8852 27.2553 37.7791 27.3835 37.5173 27.5873C37.2627 27.7856 36.9498 27.9889 36.5645 28.2337C36.5153 28.2649 36.4641 28.2972 36.4112 28.3306C35.7403 28.7543 34.7947 29.3515 34.18 30.1116L34.18 30.1117C33.4265 31.0435 32.8691 32.2005 32.5039 33.0938C32.1413 33.9809 31.9101 34.7545 31.8578 35.0031L39.113 27.8621Z" fill="black" stroke="white" stroke-width="3"/>
<path d="M60.1077 36.3921L51.0796 45.4203C50.8687 45.6311 50.5826 45.7495 50.2844 45.7495C49.9861 45.7495 49.7001 45.6311 49.4891 45.4203L44.4534 40.3578C44.2428 40.1468 44.1245 39.8609 44.1245 39.5629C44.1245 39.2648 44.2428 38.9789 44.4534 38.768L45.8596 37.3617C46.0705 37.1518 46.3559 37.0339 46.6534 37.0339C46.951 37.0339 47.2364 37.1518 47.4473 37.3617L50.3125 40.1405L57.1159 33.4207C57.3268 33.2105 57.6124 33.0925 57.9101 33.0925C58.2078 33.0925 58.4934 33.2105 58.7043 33.4207L60.107 34.7946C60.2125 34.8992 60.2963 35.0236 60.3534 35.1606C60.4106 35.2977 60.4401 35.4447 60.4402 35.5932C60.4402 35.7417 60.4109 35.8888 60.3538 36.0259C60.2968 36.163 60.2131 36.2875 60.1077 36.3921Z" fill="white"/>
<path d="M86.9858 25.0653C86.9176 24.3778 86.625 23.8437 86.108 23.4631C85.5909 23.0824 84.8892 22.892 84.0028 22.892C83.4006 22.892 82.892 22.9773 82.4773 23.1477C82.0625 23.3125 81.7443 23.5426 81.5227 23.8381C81.3068 24.1335 81.1989 24.4688 81.1989 24.8438C81.1875 25.1562 81.2528 25.429 81.3949 25.6619C81.5426 25.8949 81.7443 26.0966 82 26.267C82.2557 26.4318 82.5511 26.5767 82.8864 26.7017C83.2216 26.821 83.5795 26.9233 83.9602 27.0085L85.5284 27.3835C86.2898 27.554 86.9886 27.7812 87.625 28.0653C88.2614 28.3494 88.8125 28.6989 89.2784 29.1136C89.7443 29.5284 90.1051 30.017 90.3608 30.5795C90.6222 31.142 90.7557 31.7869 90.7614 32.5142C90.7557 33.5824 90.483 34.5085 89.9432 35.2926C89.4091 36.071 88.6364 36.6761 87.625 37.108C86.6193 37.5341 85.4063 37.7472 83.9858 37.7472C82.5767 37.7472 81.3494 37.5312 80.304 37.0994C79.2642 36.6676 78.4517 36.0284 77.8665 35.1818C77.2869 34.3295 76.983 33.2756 76.9545 32.0199H80.5256C80.5653 32.6051 80.733 33.0937 81.0284 33.4858C81.3295 33.8722 81.7301 34.1648 82.2301 34.3636C82.7358 34.5568 83.3068 34.6534 83.9432 34.6534C84.5682 34.6534 85.1108 34.5625 85.571 34.3807C86.0369 34.1989 86.3977 33.946 86.6534 33.6222C86.9091 33.2983 87.0369 32.9261 87.0369 32.5057C87.0369 32.1136 86.9205 31.7841 86.6875 31.517C86.4602 31.25 86.125 31.0227 85.6818 30.8352C85.2443 30.6477 84.7074 30.4773 84.071 30.3239L82.1705 29.8466C80.6989 29.4886 79.5369 28.929 78.6847 28.1676C77.8324 27.4062 77.4091 26.3807 77.4148 25.0909C77.4091 24.0341 77.6903 23.1108 78.2585 22.321C78.8324 21.5312 79.6193 20.9148 80.6193 20.4716C81.6193 20.0284 82.7557 19.8068 84.0284 19.8068C85.3239 19.8068 86.4545 20.0284 87.4205 20.4716C88.392 20.9148 89.1477 21.5312 89.6875 22.321C90.2273 23.1108 90.5057 24.0256 90.5227 25.0653H86.9858ZM109.283 28.7727C109.283 30.6761 108.923 32.2955 108.201 33.6307C107.485 34.9659 106.508 35.9858 105.269 36.6903C104.036 37.3892 102.65 37.7386 101.11 37.7386C99.5589 37.7386 98.1669 37.3864 96.9339 36.6818C95.701 35.9773 94.7266 34.9574 94.0107 33.6222C93.2947 32.2869 92.9368 30.6705 92.9368 28.7727C92.9368 26.8693 93.2947 25.25 94.0107 23.9148C94.7266 22.5795 95.701 21.5625 96.9339 20.8636C98.1669 20.1591 99.5589 19.8068 101.11 19.8068C102.65 19.8068 104.036 20.1591 105.269 20.8636C106.508 21.5625 107.485 22.5795 108.201 23.9148C108.923 25.25 109.283 26.8693 109.283 28.7727ZM105.542 28.7727C105.542 27.5398 105.357 26.5 104.988 25.6534C104.624 24.8068 104.11 24.1648 103.445 23.7273C102.781 23.2898 102.002 23.071 101.11 23.071C100.218 23.071 99.4396 23.2898 98.7749 23.7273C98.1101 24.1648 97.593 24.8068 97.2237 25.6534C96.8601 26.5 96.6783 27.5398 96.6783 28.7727C96.6783 30.0057 96.8601 31.0455 97.2237 31.892C97.593 32.7386 98.1101 33.3807 98.7749 33.8182C99.4396 34.2557 100.218 34.4744 101.11 34.4744C102.002 34.4744 102.781 34.2557 103.445 33.8182C104.11 33.3807 104.624 32.7386 104.988 31.892C105.357 31.0455 105.542 30.0057 105.542 28.7727ZM112.017 37.5V20.0455H118.903C120.227 20.0455 121.355 20.2983 122.287 20.804C123.219 21.304 123.929 22 124.418 22.892C124.912 23.7784 125.159 24.8011 125.159 25.9602C125.159 27.1193 124.909 28.142 124.409 29.0284C123.909 29.9148 123.185 30.6051 122.236 31.0994C121.293 31.5937 120.151 31.8409 118.81 31.8409H114.42V28.8835H118.213C118.923 28.8835 119.509 28.7614 119.969 28.517C120.435 28.267 120.781 27.9233 121.009 27.4858C121.241 27.0426 121.358 26.5341 121.358 25.9602C121.358 25.3807 121.241 24.875 121.009 24.4432C120.781 24.0057 120.435 23.6676 119.969 23.429C119.503 23.1847 118.912 23.0625 118.196 23.0625H115.707V37.5H112.017Z" fill="black"/>
<line x1="182" y1="43.5" x2="76" y2="43.5" stroke="black"/>
<path d="M81.4929 51.2827C81.4588 50.9389 81.3125 50.6719 81.054 50.4815C80.7955 50.2912 80.4446 50.196 80.0014 50.196C79.7003 50.196 79.446 50.2386 79.2386 50.3239C79.0313 50.4062 78.8722 50.5213 78.7614 50.669C78.6534 50.8168 78.5994 50.9844 78.5994 51.1719C78.5938 51.3281 78.6264 51.4645 78.6974 51.581C78.7713 51.6974 78.8722 51.7983 79 51.8835C79.1278 51.9659 79.2756 52.0384 79.4432 52.1009C79.6108 52.1605 79.7898 52.2116 79.9801 52.2543L80.7642 52.4418C81.1449 52.527 81.4943 52.6406 81.8125 52.7827C82.1307 52.9247 82.4063 53.0994 82.6392 53.3068C82.8722 53.5142 83.0526 53.7585 83.1804 54.0398C83.3111 54.321 83.3778 54.6435 83.3807 55.0071C83.3778 55.5412 83.2415 56.0043 82.9716 56.3963C82.7045 56.7855 82.3182 57.0881 81.8125 57.304C81.3097 57.517 80.7031 57.6236 79.9929 57.6236C79.2884 57.6236 78.6747 57.5156 78.152 57.2997C77.6321 57.0838 77.2259 56.7642 76.9332 56.3409C76.6435 55.9148 76.4915 55.3878 76.4773 54.7599H78.2628C78.2827 55.0526 78.3665 55.2969 78.5142 55.4929C78.6648 55.6861 78.8651 55.8324 79.1151 55.9318C79.3679 56.0284 79.6534 56.0767 79.9716 56.0767C80.2841 56.0767 80.5554 56.0312 80.7855 55.9403C81.0185 55.8494 81.1989 55.723 81.3267 55.5611C81.4545 55.3991 81.5185 55.2131 81.5185 55.0028C81.5185 54.8068 81.4602 54.642 81.3438 54.5085C81.2301 54.375 81.0625 54.2614 80.8409 54.1676C80.6222 54.0739 80.3537 53.9886 80.0355 53.9119L79.0852 53.6733C78.3494 53.4943 77.7685 53.2145 77.3423 52.8338C76.9162 52.4531 76.7045 51.9403 76.7074 51.2955C76.7045 50.767 76.8452 50.3054 77.1293 49.9105C77.4162 49.5156 77.8097 49.2074 78.3097 48.9858C78.8097 48.7642 79.3778 48.6534 80.0142 48.6534C80.6619 48.6534 81.2273 48.7642 81.7102 48.9858C82.196 49.2074 82.5739 49.5156 82.8438 49.9105C83.1136 50.3054 83.2528 50.7628 83.2614 51.2827H81.4929ZM84.5877 57.5V50.9545H86.4031V57.5H84.5877ZM85.4996 50.1108C85.2298 50.1108 84.9982 50.0213 84.805 49.8423C84.6147 49.6605 84.5195 49.4432 84.5195 49.1903C84.5195 48.9403 84.6147 48.7259 84.805 48.5469C84.9982 48.3651 85.2298 48.2741 85.4996 48.2741C85.7695 48.2741 85.9996 48.3651 86.19 48.5469C86.3832 48.7259 86.4798 48.9403 86.4798 49.1903C86.4798 49.4432 86.3832 49.6605 86.19 49.8423C85.9996 50.0213 85.7695 50.1108 85.4996 50.1108ZM90.8061 60.0909C90.218 60.0909 89.7138 60.0099 89.2933 59.848C88.8757 59.6889 88.5433 59.4716 88.2962 59.196C88.049 58.9205 87.8885 58.6108 87.8146 58.267L89.4936 58.0412C89.5447 58.1719 89.6257 58.294 89.7365 58.4077C89.8473 58.5213 89.9936 58.6122 90.1754 58.6804C90.3601 58.7514 90.5845 58.7869 90.8487 58.7869C91.2436 58.7869 91.5689 58.6903 91.8246 58.4972C92.0831 58.3068 92.2124 57.9872 92.2124 57.5384V56.3409H92.1357C92.0561 56.5227 91.9368 56.6946 91.7777 56.8565C91.6186 57.0185 91.4141 57.1506 91.1641 57.2528C90.9141 57.3551 90.6158 57.4062 90.2692 57.4062C89.7777 57.4062 89.3303 57.2926 88.9268 57.0653C88.5263 56.8352 88.2067 56.4844 87.968 56.0128C87.7322 55.5384 87.6143 54.9389 87.6143 54.2145C87.6143 53.473 87.7351 52.8537 87.9766 52.3565C88.218 51.8594 88.5391 51.4872 88.9396 51.2401C89.343 50.9929 89.7848 50.8693 90.2649 50.8693C90.6314 50.8693 90.9382 50.9318 91.1854 51.0568C91.4325 51.179 91.6314 51.3324 91.782 51.517C91.9354 51.6989 92.0533 51.8778 92.1357 52.054H92.2038V50.9545H94.0064V57.5639C94.0064 58.1207 93.87 58.5866 93.5973 58.9616C93.3246 59.3366 92.9467 59.6179 92.4638 59.8054C91.9837 59.9957 91.4311 60.0909 90.8061 60.0909ZM90.8445 56.0426C91.1371 56.0426 91.3842 55.9702 91.5859 55.8253C91.7905 55.6776 91.9467 55.4673 92.0547 55.1946C92.1655 54.919 92.2209 54.5895 92.2209 54.206C92.2209 53.8224 92.1669 53.4901 92.0589 53.2088C91.951 52.9247 91.7947 52.7045 91.5902 52.5483C91.3857 52.392 91.1371 52.3139 90.8445 52.3139C90.5462 52.3139 90.2947 52.3949 90.0902 52.5568C89.8857 52.7159 89.7308 52.9375 89.6257 53.2216C89.5206 53.5057 89.468 53.8338 89.468 54.206C89.468 54.5838 89.5206 54.9105 89.6257 55.1861C89.7337 55.4588 89.8885 55.6705 90.0902 55.821C90.2947 55.9687 90.5462 56.0426 90.8445 56.0426ZM97.2663 53.7159V57.5H95.451V50.9545H97.1811V52.1094H97.2578C97.4027 51.7287 97.6456 51.4276 97.9865 51.206C98.3274 50.9815 98.7408 50.8693 99.2266 50.8693C99.6811 50.8693 100.077 50.9688 100.415 51.1676C100.754 51.3665 101.016 51.6506 101.204 52.0199C101.391 52.3864 101.485 52.8239 101.485 53.3324V57.5H99.6697V53.6562C99.6726 53.2557 99.5703 52.9432 99.3629 52.7188C99.1555 52.4915 98.87 52.3778 98.5064 52.3778C98.2621 52.3778 98.0462 52.4304 97.8587 52.5355C97.674 52.6406 97.5291 52.794 97.424 52.9957C97.3217 53.1946 97.2692 53.4347 97.2663 53.7159ZM105.899 57.6278C105.225 57.6278 104.646 57.4915 104.16 57.2188C103.677 56.9432 103.305 56.554 103.044 56.0511C102.782 55.5455 102.652 54.9474 102.652 54.2571C102.652 53.5838 102.782 52.9929 103.044 52.4844C103.305 51.9759 103.673 51.5795 104.147 51.2955C104.625 51.0114 105.184 50.8693 105.826 50.8693C106.258 50.8693 106.66 50.9389 107.032 51.0781C107.407 51.2145 107.734 51.4205 108.012 51.696C108.294 51.9716 108.512 52.3182 108.669 52.7358C108.825 53.1506 108.903 53.6364 108.903 54.1932V54.6918H103.376V53.5668H107.194C107.194 53.3054 107.137 53.0739 107.024 52.8722C106.91 52.6705 106.752 52.5128 106.551 52.3991C106.352 52.2827 106.12 52.2244 105.856 52.2244C105.581 52.2244 105.336 52.2884 105.123 52.4162C104.913 52.5412 104.748 52.7102 104.629 52.9233C104.51 53.1335 104.449 53.3679 104.446 53.6264V54.696C104.446 55.0199 104.505 55.2997 104.625 55.5355C104.747 55.7713 104.919 55.9531 105.14 56.081C105.362 56.2088 105.625 56.2727 105.929 56.2727C106.13 56.2727 106.315 56.2443 106.483 56.1875C106.65 56.1307 106.794 56.0455 106.913 55.9318C107.032 55.8182 107.123 55.679 107.186 55.5142L108.865 55.625C108.779 56.0284 108.605 56.3807 108.341 56.6818C108.079 56.9801 107.741 57.2131 107.326 57.3807C106.914 57.5455 106.439 57.6278 105.899 57.6278ZM112.5 57.6065C112.002 57.6065 111.552 57.4787 111.149 57.223C110.748 56.9645 110.43 56.5852 110.194 56.0852C109.961 55.5824 109.845 54.9659 109.845 54.2358C109.845 53.4858 109.966 52.8622 110.207 52.3651C110.449 51.8651 110.77 51.4915 111.17 51.2443C111.574 50.9943 112.015 50.8693 112.495 50.8693C112.862 50.8693 113.167 50.9318 113.412 51.0568C113.659 51.179 113.858 51.3324 114.008 51.517C114.162 51.6989 114.278 51.8778 114.358 52.054H114.413V48.7727H116.224V57.5H114.434V56.4517H114.358C114.272 56.6335 114.152 56.8139 113.995 56.9929C113.842 57.169 113.642 57.3153 113.395 57.4318C113.15 57.5483 112.852 57.6065 112.5 57.6065ZM113.075 56.1619C113.368 56.1619 113.615 56.0824 113.816 55.9233C114.021 55.7614 114.177 55.5355 114.285 55.2457C114.396 54.956 114.451 54.6165 114.451 54.2273C114.451 53.8381 114.397 53.5 114.289 53.2131C114.181 52.9261 114.025 52.7045 113.821 52.5483C113.616 52.392 113.368 52.3139 113.075 52.3139C112.777 52.3139 112.525 52.3949 112.321 52.5568C112.116 52.7187 111.961 52.9432 111.856 53.2301C111.751 53.517 111.699 53.8494 111.699 54.2273C111.699 54.608 111.751 54.9446 111.856 55.2372C111.964 55.527 112.119 55.7543 112.321 55.919C112.525 56.081 112.777 56.1619 113.075 56.1619ZM128.548 53.1364C128.548 54.0881 128.368 54.8977 128.007 55.5653C127.649 56.233 127.16 56.7429 126.541 57.0952C125.924 57.4446 125.231 57.6193 124.461 57.6193C123.686 57.6193 122.99 57.4432 122.373 57.0909C121.757 56.7386 121.27 56.2287 120.912 55.5611C120.554 54.8935 120.375 54.0852 120.375 53.1364C120.375 52.1847 120.554 51.375 120.912 50.7074C121.27 50.0398 121.757 49.5312 122.373 49.1818C122.99 48.8295 123.686 48.6534 124.461 48.6534C125.231 48.6534 125.924 48.8295 126.541 49.1818C127.16 49.5312 127.649 50.0398 128.007 50.7074C128.368 51.375 128.548 52.1847 128.548 53.1364ZM126.677 53.1364C126.677 52.5199 126.585 52 126.4 51.5767C126.218 51.1534 125.961 50.8324 125.629 50.6136C125.297 50.3949 124.907 50.2855 124.461 50.2855C124.015 50.2855 123.626 50.3949 123.294 50.6136C122.961 50.8324 122.703 51.1534 122.518 51.5767C122.336 52 122.245 52.5199 122.245 53.1364C122.245 53.7528 122.336 54.2727 122.518 54.696C122.703 55.1193 122.961 55.4403 123.294 55.6591C123.626 55.8778 124.015 55.9872 124.461 55.9872C124.907 55.9872 125.297 55.8778 125.629 55.6591C125.961 55.4403 126.218 55.1193 126.4 54.696C126.585 54.2727 126.677 53.7528 126.677 53.1364ZM129.915 57.5V48.7727H133.358C134.02 48.7727 134.584 48.8991 135.05 49.152C135.516 49.402 135.871 49.75 136.115 50.196C136.362 50.6392 136.486 51.1506 136.486 51.7301C136.486 52.3097 136.361 52.821 136.111 53.2642C135.861 53.7074 135.499 54.0526 135.024 54.2997C134.553 54.5469 133.982 54.6705 133.311 54.6705H131.116V53.1918H133.013C133.368 53.1918 133.661 53.1307 133.891 53.0085C134.124 52.8835 134.297 52.7116 134.411 52.4929C134.527 52.2713 134.585 52.017 134.585 51.7301C134.585 51.4403 134.527 51.1875 134.411 50.9716C134.297 50.7528 134.124 50.5838 133.891 50.4645C133.658 50.3423 133.362 50.2812 133.004 50.2812H131.76V57.5H129.915Z" fill="black"/>
<path d="M82.456 67.876H86.044V69.172H82.456V67.876ZM82.456 70.888H86.044V72.184H82.456V70.888ZM81.712 64.912H86.86V74.764H85.408V66.208H83.104V74.764H81.712V64.912ZM80.608 73.972H87.664V75.268H80.608V73.972ZM78.16 64.324L79.432 64.768C78.94 65.704 78.376 66.772 77.908 67.432L76.936 67.036C77.368 66.316 77.884 65.164 78.16 64.324ZM79.6 65.74L80.812 66.244C79.924 67.624 78.748 69.292 77.824 70.312L76.948 69.868C77.872 68.788 78.964 67.024 79.6 65.74ZM76.312 67.168L76.984 66.172C77.632 66.724 78.376 67.492 78.688 68.02L77.956 69.148C77.656 68.572 76.924 67.744 76.312 67.168ZM79.3 68.632L80.32 68.188C80.8 68.992 81.28 70.036 81.436 70.732L80.344 71.236C80.2 70.552 79.756 69.46 79.3 68.632ZM76.3 69.604C77.416 69.568 79.072 69.496 80.68 69.412V70.552C79.168 70.672 77.608 70.78 76.42 70.852L76.3 69.604ZM79.516 71.644L80.572 71.296C80.884 72.016 81.208 72.952 81.352 73.564L80.224 73.972C80.116 73.348 79.804 72.376 79.516 71.644ZM76.816 71.368L78.004 71.572C77.884 72.724 77.62 73.924 77.272 74.692C77.02 74.536 76.48 74.284 76.18 74.164C76.528 73.456 76.72 72.388 76.816 71.368ZM78.208 70.24H79.492V75.592H78.208V70.24ZM93.544 64.3H94.852V66.064H93.544V64.3ZM92.608 66.676L93.568 66.46C93.76 66.964 93.904 67.636 93.928 68.056L92.908 68.308C92.908 67.864 92.788 67.192 92.608 66.676ZM92.176 65.464H96.22V66.544H92.176V65.464ZM91.972 68.164H99.532V69.292H91.972V68.164ZM93.16 71.548H95.404V72.508H93.16V71.548ZM93.064 69.832H96.064V74.236H93.064V73.252H94.9V70.828H93.064V69.832ZM92.644 69.832H93.736V74.86H92.644V69.832ZM94.816 66.388L95.98 66.64C95.752 67.228 95.548 67.864 95.356 68.284L94.396 68.044C94.54 67.576 94.732 66.868 94.816 66.388ZM96.364 64.384H97.588C97.552 69.712 97.876 74.02 98.584 74.068C98.74 74.08 98.86 73.528 98.92 72.592C99.112 72.868 99.616 73.24 99.808 73.372C99.52 75.244 98.968 75.676 98.536 75.664C96.7 75.592 96.424 71.152 96.364 64.384ZM97.504 65.5L98.548 65.08C98.98 65.776 99.436 66.7 99.628 67.312L98.524 67.792C98.344 67.18 97.912 66.208 97.504 65.5ZM98.404 69.736L99.532 70.048C98.8 72.424 97.468 74.356 95.512 75.604C95.332 75.34 94.912 74.884 94.648 74.68C96.484 73.6 97.804 71.8 98.404 69.736ZM89.824 64.324L91.036 64.708C90.616 65.632 90.148 66.7 89.764 67.372L88.828 67.012C89.2 66.292 89.608 65.152 89.824 64.324ZM91.072 65.776L92.188 66.256C91.42 67.612 90.4 69.28 89.572 70.312L88.78 69.892C89.56 68.812 90.532 67.06 91.072 65.776ZM88.324 67.072L88.912 66.052C89.512 66.628 90.22 67.408 90.484 67.948L89.836 69.112C89.572 68.524 88.9 67.672 88.324 67.072ZM90.664 68.584L91.612 68.224C92.044 69.04 92.452 70.084 92.56 70.78L91.54 71.2C91.444 70.516 91.072 69.424 90.664 68.584ZM88.252 69.58C89.2 69.544 90.568 69.472 91.96 69.388L91.948 70.504C90.688 70.636 89.404 70.744 88.372 70.828L88.252 69.58ZM90.976 71.584L91.924 71.284C92.176 71.98 92.416 72.88 92.524 73.468L91.516 73.816C91.444 73.204 91.204 72.28 90.976 71.584ZM88.696 71.368L89.776 71.548C89.692 72.676 89.488 73.864 89.188 74.632C88.972 74.488 88.48 74.272 88.216 74.164C88.516 73.456 88.636 72.376 88.696 71.368ZM89.848 70.216H91.024V75.58H89.848V70.216ZM105.208 64.924H111.436V66.292H105.208V64.924ZM104.872 73.816H111.664V75.172H104.872V73.816ZM108.7 69.136H111.364V70.504H108.7V69.136ZM107.872 65.488H109.288V74.608H107.872V65.488ZM105.616 68.104H106.96V74.428H105.616V68.104ZM100.936 68.08H104.404V69.16H100.936V68.08ZM101.008 64.684H104.416V65.776H101.008V64.684ZM100.936 69.76H104.404V70.84H100.936V69.76ZM100.348 66.352H104.836V67.48H100.348V66.352ZM101.596 71.452H104.488V75.1H101.596V73.972H103.252V72.592H101.596V71.452ZM100.9 71.452H102.112V75.58H100.9V71.452ZM113.584 64.972H117.028V72.34H113.584V71.02H115.696V66.268H113.584V64.972ZM113.596 67.972H116.224V69.256H113.596V67.972ZM118.72 64.792H122.404V66.124H118.72V64.792ZM118.72 67.66H122.404V68.956H118.72V67.66ZM118.696 70.504H122.392V71.788H118.696V70.504ZM112.816 64.972H114.148V73.384H112.816V64.972ZM121.864 64.792H123.292V73.936C123.292 74.68 123.136 75.076 122.668 75.304C122.188 75.532 121.504 75.568 120.484 75.568C120.424 75.172 120.196 74.548 119.992 74.176C120.64 74.212 121.372 74.2 121.576 74.2C121.792 74.2 121.864 74.128 121.864 73.912V64.792ZM117.856 64.792H119.272V69.148C119.272 71.224 118.948 74.044 116.728 75.676C116.512 75.388 115.96 74.896 115.648 74.704C117.676 73.228 117.856 70.972 117.856 69.136V64.792Z" fill="black"/>
</g>
<defs>
<clipPath id="clip0_9554_8786">
<rect width="184" height="106.418" fill="white"/>
</clipPath>
</defs>
</svg>
