<svg width="186" height="107" viewBox="0 0 186 107" fill="none" xmlns="http://www.w3.org/2000/svg">
<g clip-path="url(#clip0_1_98)">
<path d="M182.413 14.5878V93.5617H48.3908V104.06L34.3098 99.7913L20.6199 104.06V93.5617H2.41321V14.5878C2.41321 7.83475 7.88765 2.36031 14.6407 2.36031H170.186C176.939 2.36031 182.413 7.83475 182.413 14.5878Z" fill="white" stroke="black" stroke-width="4" stroke-miterlimit="10"/>
<mask id="mask0_1_98" style="mask-type:alpha" maskUnits="userSpaceOnUse" x="16" y="22" width="53" height="53">
<rect x="16.4132" y="22.3603" width="52" height="52" fill="#D9D9D9"/>
</mask>
<g mask="url(#mask0_1_98)">
<path d="M20.3852 67.8603C19.8739 67.8603 19.4451 67.6873 19.0988 67.3414C18.7528 66.9951 18.5799 66.5663 18.5799 66.0549V30.6657C18.5799 30.1543 18.7528 29.7255 19.0988 29.3792C19.4451 29.0333 19.8739 28.8603 20.3852 28.8603H47.1078C47.6192 28.8603 48.048 29.0333 48.3943 29.3792C48.7402 29.7255 48.9132 30.1543 48.9132 30.6657V66.0549C48.9132 66.5663 48.7402 66.9951 48.3943 67.3414C48.048 67.6873 47.6192 67.8603 47.1078 67.8603H36.3102V58.8323H31.2186V67.8603H20.3852ZM22.1912 64.249H27.6078V55.2216H39.9215V64.249H45.3019V32.4716H22.1912V64.249ZM27.6078 50.1657H31.2186V46.5549H27.6078V50.1657ZM27.6078 41.499H31.2186V37.8883H27.6078V41.499ZM36.2745 50.1657H39.8852V46.5549H36.2745V50.1657ZM36.2745 41.499H39.8852V37.8883H36.2745V41.499ZM51.0799 48.3538C51.0799 47.8407 51.2528 47.4126 51.5988 47.0695C51.9451 46.7265 52.3739 46.5549 52.8852 46.5549H59.3311L57.887 45.074C57.562 44.7252 57.3934 44.307 57.3811 43.8195C57.3692 43.332 57.5438 42.9077 57.9049 42.5466C58.2541 42.1974 58.6753 42.0228 59.1686 42.0228C59.6622 42.0228 60.0836 42.1974 60.4328 42.5466L64.9828 47.0966C65.3439 47.4577 65.5245 47.8789 65.5245 48.3603C65.5245 48.8417 65.3439 49.2629 64.9828 49.624L60.4328 54.174C60.0836 54.5232 59.6653 54.7009 59.1778 54.707C58.6903 54.7128 58.266 54.5351 57.9049 54.174C57.5557 53.8252 57.3841 53.407 57.3903 52.9195C57.3964 52.432 57.562 52.0077 57.887 51.6466L59.3311 50.1657H52.8852C52.3739 50.1657 51.9451 49.9922 51.5988 49.6451C51.2528 49.2977 51.0799 48.8673 51.0799 48.3538Z" fill="#1C1B1F"/>
</g>
<path d="M87.399 27.4256C87.3308 26.7381 87.0382 26.2041 86.5212 25.8234C86.0041 25.4427 85.3024 25.2524 84.416 25.2524C83.8138 25.2524 83.3053 25.3376 82.8905 25.508C82.4757 25.6728 82.1575 25.9029 81.9359 26.1984C81.72 26.4938 81.6121 26.8291 81.6121 27.2041C81.6007 27.5166 81.666 27.7893 81.8081 28.0222C81.9558 28.2552 82.1575 28.4569 82.4132 28.6274C82.6689 28.7921 82.9643 28.937 83.2996 29.062C83.6348 29.1813 83.9928 29.2836 84.3734 29.3688L85.9416 29.7438C86.703 29.9143 87.4018 30.1416 88.0382 30.4256C88.6746 30.7097 89.2257 31.0592 89.6916 31.4739C90.1575 31.8887 90.5183 32.3774 90.774 32.9399C91.0354 33.5024 91.1689 34.1472 91.1746 34.8745C91.1689 35.9427 90.8962 36.8688 90.3564 37.6529C89.8223 38.4313 89.0496 39.0364 88.0382 39.4683C87.0325 39.8944 85.8195 40.1075 84.399 40.1075C82.9899 40.1075 81.7626 39.8916 80.7172 39.4597C79.6774 39.0279 78.8649 38.3887 78.2797 37.5421C77.7001 36.6899 77.3962 35.6359 77.3678 34.3802H80.9388C80.9785 34.9654 81.1462 35.4541 81.4416 35.8461C81.7428 36.2325 82.1433 36.5251 82.6433 36.7239C83.149 36.9171 83.72 37.0137 84.3564 37.0137C84.9814 37.0137 85.524 36.9228 85.9842 36.741C86.4501 36.5592 86.8109 36.3063 87.0666 35.9825C87.3223 35.6586 87.4501 35.2864 87.4501 34.866C87.4501 34.4739 87.3337 34.1444 87.1007 33.8774C86.8734 33.6103 86.5382 33.383 86.095 33.1955C85.6575 33.008 85.1206 32.8376 84.4842 32.6842L82.5837 32.2069C81.1121 31.8489 79.9501 31.2893 79.0979 30.5279C78.2456 29.7666 77.8223 28.741 77.828 27.4512C77.8223 26.3944 78.1035 25.4711 78.6717 24.6813C79.2456 23.8916 80.0325 23.2751 81.0325 22.8319C82.0325 22.3887 83.1689 22.1671 84.4416 22.1671C85.7371 22.1671 86.8678 22.3887 87.8337 22.8319C88.8053 23.2751 89.5609 23.8916 90.1007 24.6813C90.6405 25.4711 90.9189 26.3859 90.9359 27.4256H87.399ZM109.697 31.133C109.697 33.0364 109.336 34.6558 108.614 35.991C107.898 37.3262 106.921 38.3461 105.682 39.0506C104.449 39.7495 103.063 40.0989 101.523 40.0989C99.9722 40.0989 98.5801 39.7467 97.3472 39.0421C96.1142 38.3376 95.1398 37.3177 94.4239 35.9825C93.708 34.6472 93.35 33.0308 93.35 31.133C93.35 29.2296 93.708 27.6103 94.4239 26.2751C95.1398 24.9399 96.1142 23.9228 97.3472 23.2239C98.5801 22.5194 99.9722 22.1671 101.523 22.1671C103.063 22.1671 104.449 22.5194 105.682 23.2239C106.921 23.9228 107.898 24.9399 108.614 26.2751C109.336 27.6103 109.697 29.2296 109.697 31.133ZM105.955 31.133C105.955 29.9001 105.77 28.8603 105.401 28.0137C105.037 27.1671 104.523 26.5251 103.859 26.0876C103.194 25.6501 102.415 25.4313 101.523 25.4313C100.631 25.4313 99.8528 25.6501 99.1881 26.0876C98.5233 26.5251 98.0062 27.1671 97.6369 28.0137C97.2733 28.8603 97.0915 29.9001 97.0915 31.133C97.0915 32.366 97.2733 33.4058 97.6369 34.2524C98.0062 35.0989 98.5233 35.741 99.1881 36.1785C99.8528 36.616 100.631 36.8347 101.523 36.8347C102.415 36.8347 103.194 36.616 103.859 36.1785C104.523 35.741 105.037 35.0989 105.401 34.2524C105.77 33.4058 105.955 32.366 105.955 31.133ZM112.43 39.8603V22.4058H119.317C120.64 22.4058 121.768 22.6586 122.7 23.1643C123.632 23.6643 124.342 24.3603 124.831 25.2524C125.325 26.1387 125.572 27.1614 125.572 28.3205C125.572 29.4796 125.322 30.5024 124.822 31.3887C124.322 32.2751 123.598 32.9654 122.649 33.4597C121.706 33.9541 120.564 34.2012 119.223 34.2012H114.834V31.2438H118.626C119.337 31.2438 119.922 31.1217 120.382 30.8774C120.848 30.6274 121.194 30.2836 121.422 29.8461C121.655 29.4029 121.771 28.8944 121.771 28.3205C121.771 27.741 121.655 27.2353 121.422 26.8035C121.194 26.366 120.848 26.0279 120.382 25.7893C119.916 25.545 119.325 25.4228 118.609 25.4228H116.121V39.8603H112.43Z" fill="black"/>
<line x1="170.413" y1="47.8603" x2="76.4132" y2="47.8603" stroke="black" stroke-width="2"/>
<path d="M82.8216 55.6068C82.7818 55.2057 82.6111 54.8942 82.3095 54.6721C82.0079 54.45 81.5986 54.339 81.0815 54.339C80.7302 54.339 80.4336 54.3887 80.1916 54.4882C79.9497 54.5843 79.7641 54.7185 79.6348 54.8909C79.5089 55.0632 79.4459 55.2588 79.4459 55.4775C79.4392 55.6598 79.4774 55.8189 79.5602 55.9548C79.6464 56.0907 79.7641 56.2083 79.9132 56.3078C80.0624 56.4039 80.2347 56.4884 80.4303 56.5613C80.6258 56.6309 80.8346 56.6906 81.0567 56.7403L81.9714 56.959C82.4156 57.0585 82.8232 57.191 83.1945 57.3568C83.5657 57.5225 83.8872 57.7263 84.1589 57.9683C84.4307 58.2102 84.6412 58.4953 84.7903 58.8234C84.9428 59.1515 85.0207 59.5277 85.024 59.9519C85.0207 60.575 84.8616 61.1153 84.5467 61.5727C84.2352 62.0268 83.7844 62.3797 83.1945 62.6316C82.6078 62.8802 81.9002 63.0045 81.0716 63.0045C80.2496 63.0045 79.5337 62.8786 78.9239 62.6267C78.3173 62.3748 77.8434 62.0019 77.502 61.508C77.1639 61.0109 76.9866 60.3961 76.97 59.6636H79.0531C79.0763 60.005 79.1741 60.29 79.3464 60.5187C79.5221 60.7441 79.7558 60.9148 80.0474 61.0308C80.3424 61.1435 80.6755 61.1998 81.0467 61.1998C81.4113 61.1998 81.7278 61.1468 81.9963 61.0407C82.2681 60.9347 82.4785 60.7872 82.6277 60.5982C82.7768 60.4093 82.8514 60.1922 82.8514 59.947C82.8514 59.7183 82.7835 59.526 82.6476 59.3703C82.515 59.2145 82.3195 59.0819 82.0609 58.9725C81.8057 58.8632 81.4925 58.7637 81.1213 58.6742L80.0126 58.3958C79.1542 58.187 78.4764 57.8606 77.9793 57.4164C77.4821 56.9723 77.2352 56.3741 77.2385 55.6217C77.2352 55.0052 77.3992 54.4666 77.7307 54.0059C78.0654 53.5452 78.5245 53.1856 79.1078 52.9271C79.6911 52.6686 80.354 52.5393 81.0964 52.5393C81.8521 52.5393 82.5117 52.6686 83.0751 52.9271C83.6419 53.1856 84.0827 53.5452 84.3976 54.0059C84.7125 54.4666 84.8749 55.0002 84.8848 55.6068H82.8216ZM86.4322 62.8603V55.224H88.5501V62.8603H86.4322ZM87.4961 54.2396C87.1813 54.2396 86.9111 54.1352 86.6858 53.9264C86.4637 53.7143 86.3527 53.4607 86.3527 53.1657C86.3527 52.8741 86.4637 52.6238 86.6858 52.415C86.9111 52.2029 87.1813 52.0968 87.4961 52.0968C87.811 52.0968 88.0795 52.2029 88.3015 52.415C88.5269 52.6238 88.6396 52.8741 88.6396 53.1657C88.6396 53.4607 88.5269 53.7143 88.3015 53.9264C88.0795 54.1352 87.811 54.2396 87.4961 54.2396ZM93.687 65.883C93.0009 65.883 92.4126 65.7886 91.9221 65.5997C91.4349 65.4141 91.0471 65.1605 90.7587 64.839C90.4704 64.5175 90.2831 64.1562 90.1969 63.7552L92.1558 63.4917C92.2154 63.6442 92.3099 63.7867 92.4391 63.9193C92.5684 64.0518 92.7391 64.1579 92.9512 64.2375C93.1666 64.3203 93.4285 64.3617 93.7367 64.3617C94.1974 64.3617 94.5769 64.2491 94.8752 64.0237C95.1768 63.8016 95.3276 63.4287 95.3276 62.9051V61.508H95.2381C95.1453 61.7202 95.0061 61.9207 94.8205 62.1096C94.6349 62.2985 94.3963 62.4527 94.1046 62.572C93.8129 62.6913 93.4649 62.7509 93.0606 62.7509C92.4872 62.7509 91.9652 62.6184 91.4945 62.3532C91.0272 62.0848 90.6543 61.6754 90.3759 61.1252C90.1008 60.5717 89.9633 59.8724 89.9633 59.0272C89.9633 58.1622 90.1041 57.4396 90.3859 56.8596C90.6676 56.2796 91.0421 55.8454 91.5094 55.5571C91.9801 55.2687 92.4955 55.1245 93.0556 55.1245C93.4832 55.1245 93.8411 55.1974 94.1295 55.3433C94.4178 55.4858 94.6498 55.6648 94.8255 55.8802C95.0045 56.0923 95.142 56.3011 95.2381 56.5066H95.3177V55.224H97.4207V62.9349C97.4207 63.5845 97.2616 64.1281 96.9434 64.5656C96.6252 65.0031 96.1844 65.3312 95.6209 65.55C95.0608 65.772 94.4162 65.883 93.687 65.883ZM93.7317 61.16C94.0731 61.16 94.3615 61.0755 94.5968 60.9065C94.8354 60.7341 95.0177 60.4889 95.1437 60.1707C95.2729 59.8492 95.3376 59.4647 95.3376 59.0173C95.3376 58.5698 95.2746 58.1821 95.1486 57.8539C95.0227 57.5225 94.8404 57.2656 94.6018 57.0833C94.3631 56.901 94.0731 56.8099 93.7317 56.8099C93.3837 56.8099 93.0904 56.9044 92.8518 57.0933C92.6131 57.2789 92.4325 57.5374 92.3099 57.8688C92.1872 58.2003 92.1259 58.5831 92.1259 59.0173C92.1259 59.4581 92.1872 59.8393 92.3099 60.1607C92.4358 60.4789 92.6165 60.7259 92.8518 60.9015C93.0904 61.0739 93.3837 61.16 93.7317 61.16ZM101.224 58.4455V62.8603H99.106V55.224H101.125V56.5713H101.214C101.383 56.1271 101.666 55.7758 102.064 55.5173C102.462 55.2554 102.944 55.1245 103.511 55.1245C104.041 55.1245 104.504 55.2405 104.898 55.4725C105.292 55.7045 105.599 56.036 105.818 56.4669C106.036 56.8944 106.146 57.4048 106.146 57.9981V62.8603H104.028V58.3759C104.031 57.9086 103.912 57.544 103.67 57.2822C103.428 57.017 103.095 56.8845 102.671 56.8845C102.386 56.8845 102.134 56.9458 101.915 57.0684C101.7 57.1911 101.531 57.37 101.408 57.6053C101.289 57.8374 101.227 58.1174 101.224 58.4455ZM111.295 63.0095C110.51 63.0095 109.833 62.8504 109.267 62.5322C108.703 62.2107 108.269 61.7566 107.964 61.17C107.659 60.58 107.507 59.8823 107.507 59.0769C107.507 58.2914 107.659 57.602 107.964 57.0088C108.269 56.4155 108.698 55.9531 109.252 55.6217C109.809 55.2902 110.462 55.1245 111.211 55.1245C111.714 55.1245 112.183 55.2057 112.618 55.3681C113.055 55.5272 113.436 55.7675 113.761 56.089C114.089 56.4105 114.344 56.8149 114.527 57.3021C114.709 57.786 114.8 58.3527 114.8 59.0024V59.584H108.352V58.2715H112.806C112.806 57.9666 112.74 57.6965 112.608 57.4612C112.475 57.2259 112.291 57.0419 112.056 56.9093C111.824 56.7734 111.554 56.7055 111.245 56.7055C110.924 56.7055 110.639 56.7801 110.39 56.9292C110.145 57.075 109.953 57.2723 109.814 57.5208C109.674 57.7661 109.603 58.0395 109.6 58.3411V59.589C109.6 59.9669 109.669 60.2933 109.809 60.5684C109.951 60.8435 110.152 61.0556 110.41 61.2048C110.669 61.3539 110.975 61.4285 111.33 61.4285C111.565 61.4285 111.781 61.3954 111.976 61.3291C112.172 61.2628 112.339 61.1634 112.478 61.0308C112.618 60.8982 112.724 60.7358 112.797 60.5436L114.755 60.6728C114.656 61.1435 114.452 61.5544 114.144 61.9058C113.839 62.2538 113.445 62.5256 112.961 62.7211C112.48 62.9134 111.925 63.0095 111.295 63.0095ZM118.996 62.9846C118.416 62.9846 117.891 62.8355 117.42 62.5372C116.953 62.2356 116.582 61.7931 116.306 61.2098C116.035 60.6231 115.899 59.9039 115.899 59.0521C115.899 58.1771 116.04 57.4496 116.321 56.8696C116.603 56.2862 116.978 55.8504 117.445 55.562C117.916 55.2704 118.431 55.1245 118.991 55.1245C119.419 55.1245 119.775 55.1974 120.06 55.3433C120.348 55.4858 120.58 55.6648 120.756 55.8802C120.935 56.0923 121.071 56.3011 121.164 56.5066H121.228V52.6785H123.341V62.8603H121.253V61.6373H121.164C121.064 61.8494 120.923 62.0599 120.741 62.2687C120.562 62.4742 120.329 62.6449 120.04 62.7808C119.755 62.9167 119.407 62.9846 118.996 62.9846ZM119.667 61.2992C120.009 61.2992 120.297 61.2064 120.532 61.0208C120.771 60.8319 120.953 60.5684 121.079 60.2303C121.208 59.8923 121.273 59.4962 121.273 59.0421C121.273 58.5881 121.21 58.1937 121.084 57.8589C120.958 57.5241 120.776 57.2656 120.537 57.0833C120.299 56.901 120.009 56.8099 119.667 56.8099C119.319 56.8099 119.026 56.9044 118.787 57.0933C118.549 57.2822 118.368 57.544 118.245 57.8788C118.123 58.2135 118.061 58.6013 118.061 59.0421C118.061 59.4863 118.123 59.879 118.245 60.2204C118.371 60.5585 118.552 60.8236 118.787 61.0159C119.026 61.2048 119.319 61.2992 119.667 61.2992ZM137.719 57.7694C137.719 58.8797 137.509 59.8243 137.088 60.6032C136.67 61.3821 136.1 61.977 135.378 62.388C134.658 62.7957 133.85 62.9995 132.951 62.9995C132.047 62.9995 131.235 62.794 130.515 62.383C129.796 61.9721 129.228 61.3771 128.81 60.5982C128.392 59.8194 128.184 58.8764 128.184 57.7694C128.184 56.6591 128.392 55.7145 128.81 54.9356C129.228 54.1567 129.796 53.5634 130.515 53.1558C131.235 52.7448 132.047 52.5393 132.951 52.5393C133.85 52.5393 134.658 52.7448 135.378 53.1558C136.1 53.5634 136.67 54.1567 137.088 54.9356C137.509 55.7145 137.719 56.6591 137.719 57.7694ZM135.537 57.7694C135.537 57.0502 135.429 56.4437 135.213 55.9498C135.001 55.456 134.701 55.0814 134.314 54.8262C133.926 54.571 133.472 54.4434 132.951 54.4434C132.431 54.4434 131.977 54.571 131.589 54.8262C131.201 55.0814 130.9 55.456 130.684 55.9498C130.472 56.4437 130.366 57.0502 130.366 57.7694C130.366 58.4886 130.472 59.0952 130.684 59.589C130.9 60.0829 131.201 60.4574 131.589 60.7126C131.977 60.9678 132.431 61.0954 132.951 61.0954C133.472 61.0954 133.926 60.9678 134.314 60.7126C134.701 60.4574 135.001 60.0829 135.213 59.589C135.429 59.0952 135.537 58.4886 135.537 57.7694ZM139.314 62.8603V52.6785H143.331C144.103 52.6785 144.761 52.826 145.305 53.121C145.848 53.4126 146.262 53.8187 146.547 54.339C146.836 54.8561 146.98 55.4527 146.98 56.1288C146.98 56.8049 146.834 57.4015 146.542 57.9186C146.251 58.4356 145.828 58.8383 145.275 59.1267C144.725 59.415 144.058 59.5592 143.276 59.5592H140.716V57.834H142.928C143.342 57.834 143.684 57.7628 143.952 57.6203C144.224 57.4744 144.426 57.2739 144.559 57.0187C144.695 56.7602 144.763 56.4635 144.763 56.1288C144.763 55.7907 144.695 55.4957 144.559 55.2438C144.426 54.9886 144.224 54.7914 143.952 54.6522C143.68 54.5097 143.336 54.4384 142.918 54.4384H141.466V62.8603H139.314Z" fill="black"/>
</g>
<defs>
<clipPath id="clip0_1_98">
<rect width="184" height="106.418" fill="white" transform="translate(0.413208 0.360306)"/>
</clipPath>
</defs>
</svg>
