<svg width="186" height="38" viewBox="0 0 186 38" fill="none" xmlns="http://www.w3.org/2000/svg">
<path d="M29.7521 20.7036C28.9305 25.7976 24.5142 29.7004 19.2148 29.7004C13.3197 29.7004 8.53371 24.9144 8.53371 19.0193C8.53371 17.5198 8.84182 16.082 9.41696 14.7879C10.1975 17.0474 11.5121 19.5944 13.5867 22.5112C15.2299 24.9966 17.2429 27.0712 17.2429 27.0712L43.2883 7.55765L38.3791 1.02576L19.0299 15.5274C16.9553 12.5079 16.298 10.4128 17.777 9.18035C19.2148 7.989 22.2753 8.8517 23.1175 9.05711C23.2613 9.11873 23.4051 9.18035 23.5488 9.24197L30.5737 3.98359C27.4105 1.60089 23.4872 0.183594 19.2353 0.183594C8.84182 0.183594 0.399658 8.62576 0.399658 19.0193C0.399658 29.4128 8.84182 37.8549 19.2353 37.8549C29.6288 37.8549 38.071 29.4128 38.071 19.0193C38.071 17.5814 37.9067 16.1847 37.5986 14.8495L29.7521 20.7036Z" fill="#00AFB4"/>
<path d="M56.8867 24.2995C56.0856 25.4087 54.7505 26.2098 53.3538 26.2098C51.957 26.2098 50.6424 25.4087 49.8208 24.2995C48.7938 22.8822 48.6089 20.9308 48.6089 19.226C48.6089 17.48 48.7938 15.5903 49.8208 14.1319C50.6219 13.0022 51.9775 12.2422 53.3538 12.2422C54.7505 12.2422 56.0651 13.0227 56.8867 14.1319C57.9137 15.5492 58.0986 17.5211 58.0986 19.226C58.1192 20.9719 57.9343 22.8206 56.8867 24.2995ZM53.3743 14.6865C51.6078 14.6865 51.464 17.9114 51.464 19.1438C51.464 20.3762 51.6078 23.6011 53.3743 23.6011C55.1408 23.6011 55.2846 20.3762 55.2846 19.1438C55.264 17.9114 55.1202 14.6865 53.3743 14.6865Z" fill="black"/>
<path d="M64.5691 25.962L62.1864 19.7382V25.962H59.5161V12.4258H62.4123C63.3983 12.4258 64.5075 12.5079 65.3496 13.0831C66.4177 13.802 66.9518 15.1166 66.9518 16.3696C66.9518 17.9101 66.3356 18.9988 65.021 19.8204L67.3832 25.962H64.5691ZM62.1864 18.2593C62.3302 18.2798 62.4945 18.2798 62.6383 18.2798C63.7885 18.2798 64.3637 17.4788 64.3637 16.3901C64.3637 15.3015 63.8707 14.5415 62.6999 14.5415H62.1864V18.2593Z" fill="black"/>
<path d="M68.6975 25.962V12.4258H71.3678V25.962H68.6975Z" fill="black"/>
<path d="M81.9049 18.4445C81.9254 18.7937 81.9255 19.1429 81.9255 19.4715C81.9255 20.4164 81.8844 21.4023 81.679 22.3267C81.2271 24.4218 79.8714 26.1883 77.5914 26.1883C73.9352 26.1883 72.7849 22.2445 72.7849 19.2456C72.7849 16.1439 73.7914 12.2207 77.5914 12.2207C79.666 12.2207 81.0011 13.5148 81.5763 15.425L78.9882 16.4315C78.8649 15.6304 78.639 14.5623 77.6325 14.5623C75.8044 14.5623 75.6606 17.9104 75.6606 19.1839C75.6606 20.5191 75.7222 23.7234 77.653 23.7234C79.1114 23.7234 79.2757 21.8953 79.2963 20.8066H77.5914V18.4034H81.9049V18.4445Z" fill="black"/>
<path d="M83.3015 25.962V12.4258H85.9718V25.962H83.3015Z" fill="black"/>
<path d="M93.5513 25.962L90.2238 17.8074C90.3265 18.3209 90.3675 18.8344 90.3675 19.3479V25.962H87.6973V12.4258H90.2238L93.5513 20.6009C93.4281 19.9847 93.3459 19.389 93.3459 18.7728V12.4258H96.0573V25.962H93.5513Z" fill="black"/>
<path d="M103.144 25.962L102.63 23.682H99.9396L99.4466 25.962H96.7764L99.9396 12.4258H102.733L105.979 25.962H103.144ZM102.22 21.6074C101.932 20.3133 101.644 19.0398 101.439 17.7047C101.357 17.109 101.275 16.5133 101.213 15.9177C101.09 17.8279 100.7 19.7177 100.33 21.5869H102.22V21.6074Z" fill="black"/>
<path d="M109.984 14.9121V25.9629H107.314V14.9121H105.219V12.4473H112.079V14.9121H109.984Z" fill="black"/>
<path d="M120.5 24.2995C119.699 25.4087 118.364 26.2098 116.968 26.2098C115.571 26.2098 114.256 25.4087 113.435 24.2995C112.408 22.8822 112.223 20.9308 112.223 19.226C112.223 17.48 112.408 15.5903 113.435 14.1319C114.236 13.0022 115.591 12.2422 116.968 12.2422C118.364 12.2422 119.679 13.0227 120.5 14.1319C121.528 15.5492 121.712 17.5211 121.712 19.226C121.712 20.9719 121.528 22.8206 120.5 24.2995ZM116.968 14.6865C115.201 14.6865 115.057 17.9114 115.057 19.1438C115.057 20.3762 115.201 23.6011 116.968 23.6011C118.734 23.6011 118.878 20.3762 118.878 19.1438C118.878 17.9114 118.734 14.6865 116.968 14.6865Z" fill="black"/>
<path d="M127.751 25.962L125.369 19.7382V25.962H122.698V12.4258H125.595C126.581 12.4258 127.69 12.5079 128.532 13.0831C129.6 13.802 130.134 15.1166 130.134 16.3696C130.134 17.9101 129.518 18.9988 128.203 19.8204L130.566 25.962H127.751ZM125.389 18.2593C125.533 18.2798 125.697 18.2798 125.841 18.2798C126.991 18.2798 127.567 17.4788 127.567 16.3901C127.567 15.3015 127.074 14.5415 125.903 14.5415H125.389V18.2593Z" fill="black"/>
<path d="M138.659 12.4473C139.501 12.4473 140.179 12.4678 140.939 12.8992C142.192 13.6181 142.787 15.0765 142.787 16.4732C142.787 19.3078 140.774 20.6224 138.104 20.4375V26.004H135.434V12.4678H138.659V12.4473ZM138.248 18.1575C139.46 18.1575 140.117 17.7262 140.117 16.4321C140.117 15.364 139.747 14.604 138.556 14.604H138.084V18.1575H138.248Z" fill="black"/>
<path d="M148.867 25.962L146.484 19.7382V25.962H143.814V12.4258H146.71C147.696 12.4258 148.805 12.5079 149.647 13.0831C150.716 13.802 151.25 15.1166 151.25 16.3696C151.25 17.9101 150.633 18.9988 149.319 19.8204L151.681 25.962H148.867ZM146.505 18.2593C146.649 18.2798 146.813 18.2798 146.957 18.2798C148.107 18.2798 148.682 17.4788 148.682 16.3901C148.682 15.3015 148.189 14.5415 147.018 14.5415H146.505V18.2593Z" fill="black"/>
<path d="M160.37 24.2995C159.569 25.4087 158.234 26.2098 156.837 26.2098C155.44 26.2098 154.126 25.4087 153.304 24.2995C152.277 22.8822 152.092 20.9308 152.092 19.226C152.092 17.48 152.277 15.5903 153.304 14.1319C154.105 13.0022 155.461 12.2422 156.837 12.2422C158.234 12.2422 159.548 13.0227 160.37 14.1319C161.397 15.5492 161.582 17.5211 161.582 19.226C161.582 20.9719 161.397 22.8206 160.37 24.2995ZM156.837 14.6865C155.07 14.6865 154.927 17.9114 154.927 19.1438C154.927 20.3762 155.07 23.6011 156.837 23.6011C158.603 23.6011 158.747 20.3762 158.747 19.1438C158.747 17.9114 158.603 14.6865 156.837 14.6865Z" fill="black"/>
<path d="M165.258 14.9317V17.8074H167.703V20.375H165.258V25.962H162.588V12.4258H167.99V14.9112H165.258V14.9317Z" fill="black"/>
<path d="M169.243 25.962V12.4258H171.913V25.962H169.243Z" fill="black"/>
<path d="M173.618 25.962V12.4258H176.289V23.415H179.082V25.9415H173.618V25.962Z" fill="black"/>
<path d="M179.883 25.962V12.4258H185.265V14.9317H182.574V17.869H184.957V20.416H182.574V23.4561H185.306V25.9415H179.883V25.962Z" fill="black"/>
</svg>
