<svg width="280" height="60" viewBox="0 0 280 60" fill="none" xmlns="http://www.w3.org/2000/svg">
<g clip-path="url(#clip0_4720_12436)">
<path d="M46.3406 32.3768C45.0568 40.402 38.0876 46.5543 29.7062 46.5543C20.4161 46.5543 12.8581 38.9962 12.8581 29.7062C12.8581 27.3398 13.3508 25.0869 14.2352 23.0417C15.4536 26.5924 17.5501 30.6343 20.8248 35.2188C23.4087 39.1382 26.5798 42.4162 26.5798 42.4162L67.6488 11.6313L59.9365 1.34283L29.4117 24.2239C26.1232 19.468 25.0964 16.1467 27.4298 14.226C29.6928 12.363 34.5157 13.7191 35.8558 14.0274C36.0797 14.1157 36.3026 14.206 36.5218 14.3033L47.5928 6.00445C42.6137 2.23763 36.4166 0 29.7062 0C13.3261 0 0 13.3261 0 29.7062C0 46.0862 13.3261 59.4123 29.7062 59.4123C46.0862 59.4123 59.4126 46.0862 59.4126 29.7062C59.4126 27.4465 59.1578 25.2456 58.6776 23.1292L46.3406 32.3768Z" fill="#00AFB4"/>
<path d="M84.1799 38.6689C82.9703 40.3748 80.9232 41.5843 78.7831 41.5843C76.6431 41.5843 74.627 40.3748 73.3864 38.6689C71.8049 36.4978 71.5254 33.5205 71.5254 30.9152C71.5254 28.2477 71.8049 25.3634 73.3864 23.1304C74.5959 21.3935 76.6742 20.2461 78.7831 20.2461C80.9232 20.2461 82.9392 21.4246 84.1799 23.1304C85.7614 25.3012 86.0405 28.3099 86.0405 30.9152C86.0405 33.5823 85.7614 36.4356 84.1799 38.6689ZM78.7831 23.9987C76.0849 23.9987 75.8677 28.9303 75.8677 30.8219C75.8677 32.714 76.0849 37.6455 78.7831 37.6455C81.4813 37.6455 81.6986 32.714 81.6986 30.8219C81.6986 28.9303 81.4813 23.9987 78.7831 23.9987Z" fill="black"/>
<path d="M95.7005 41.2431L92.0718 31.7214V41.2431H87.9775V20.5559H92.4127C93.9324 20.5559 95.6072 20.6803 96.9101 21.5486C98.5538 22.6342 99.3603 24.6502 99.3603 26.573C99.3603 28.9303 98.4298 30.6051 96.4137 31.8458L100.012 41.2431L95.7005 41.2431ZM92.0718 29.4573C92.2887 29.4884 92.5371 29.4884 92.754 29.4884C94.5221 29.4884 95.3904 28.2789 95.3904 26.6041C95.3904 24.9293 94.646 23.7815 92.8473 23.7815H92.0718V29.4573Z" fill="black"/>
<path d="M101.511 41.2431V20.5559H105.605V41.2431H101.511Z" fill="black"/>
<path d="M121.502 29.7364C121.533 30.2638 121.533 30.7908 121.533 31.3183C121.533 32.7758 121.471 34.2648 121.161 35.6913C120.479 38.8858 118.401 41.5843 114.896 41.5843C109.313 41.5843 107.545 35.5673 107.545 30.977C107.545 26.2317 109.096 20.2461 114.896 20.2461C118.06 20.2461 120.107 22.2311 120.975 25.1461L117.005 26.6969C116.819 25.4874 116.478 23.8437 114.927 23.8437C112.136 23.8437 111.919 28.961 111.919 30.9152C111.919 32.962 112.012 37.8624 114.958 37.8624C117.191 37.8624 117.44 35.0709 117.47 33.3961H114.865V29.7364H121.502Z" fill="black"/>
<path d="M123.474 41.2431V20.5559H127.568V41.2431H123.474Z" fill="black"/>
<path d="M139.135 41.2431L134.049 28.7752C134.204 29.5506 134.266 30.3567 134.266 31.1321V41.2431H130.172V20.5559H134.049L139.135 33.0553C138.949 32.1248 138.825 31.1943 138.825 30.2638V20.5559H142.981V41.2431H139.135Z" fill="black"/>
<path d="M153.804 41.2431L153.029 37.7695H148.904L148.16 41.2431H144.065L148.904 20.5559H153.184L158.146 41.2431H153.804ZM152.409 34.575C151.975 32.5901 151.54 30.6358 151.23 28.6201C151.106 27.7207 150.982 26.7903 150.889 25.8909C150.703 28.8059 150.114 31.6907 149.524 34.575H152.409Z" fill="black"/>
<path d="M164.211 24.34V41.2431H160.117V24.34H156.923V20.5559H167.406V24.34H164.211Z" fill="black"/>
<path d="M180.439 38.6689C179.23 40.3748 177.182 41.5843 175.042 41.5843C172.902 41.5843 170.886 40.3748 169.646 38.6689C168.064 36.4978 167.785 33.5205 167.785 30.9152C167.785 28.2477 168.064 25.3634 169.646 23.1304C170.855 21.3935 172.933 20.2461 175.042 20.2461C177.182 20.2461 179.199 21.4246 180.439 23.1304C182.021 25.3012 182.3 28.3099 182.3 30.9152C182.3 33.5823 182.021 36.4356 180.439 38.6689ZM175.042 23.9987C172.344 23.9987 172.127 28.9303 172.127 30.8219C172.127 32.714 172.344 37.6455 175.042 37.6455C177.741 37.6455 177.958 32.714 177.958 30.8219C177.958 28.9303 177.741 23.9987 175.042 23.9987Z" fill="black"/>
<path d="M191.701 41.2431L188.072 31.7214V41.2431H183.978V20.5559H188.413C189.933 20.5559 191.608 20.6803 192.911 21.5486C194.554 22.6342 195.361 24.6502 195.361 26.573C195.361 28.9303 194.43 30.6051 192.414 31.8458L196.012 41.2431L191.701 41.2431ZM188.072 29.4573C188.289 29.4884 188.538 29.4884 188.754 29.4884C190.523 29.4884 191.391 28.2789 191.391 26.6041C191.391 24.9293 190.647 23.7815 188.848 23.7815H188.072V29.4573Z" fill="black"/>
<path d="M208.342 20.5559C209.644 20.5559 210.668 20.587 211.816 21.2384C213.739 22.324 214.638 24.5569 214.638 26.697C214.638 31.0392 211.568 33.0553 207.474 32.7451V41.2431H203.379V20.5559H208.342ZM207.722 29.3023C209.583 29.3023 210.575 28.6508 210.575 26.6659C210.575 25.0222 210.017 23.8748 208.187 23.8748H207.474V29.3023H207.722Z" fill="black"/>
<path d="M223.61 41.2431L219.981 31.7214V41.2431H215.887V20.5559H220.322C221.842 20.5559 223.516 20.6803 224.819 21.5486C226.463 22.6342 227.269 24.6502 227.269 26.573C227.269 28.9303 226.339 30.6051 224.323 31.8458L227.921 41.2431L223.61 41.2431ZM219.981 29.4573C220.198 29.4884 220.446 29.4884 220.663 29.4884C222.431 29.4884 223.3 28.2789 223.3 26.6041C223.3 24.9293 222.555 23.7815 220.756 23.7815H219.981V29.4573Z" fill="black"/>
<path d="M241.061 38.6689C239.851 40.3748 237.804 41.5843 235.664 41.5843C233.524 41.5843 231.508 40.3748 230.267 38.6689C228.686 36.4978 228.406 33.5205 228.406 30.9152C228.406 28.2477 228.686 25.3634 230.267 23.1304C231.477 21.3935 233.555 20.2461 235.664 20.2461C237.804 20.2461 239.82 21.4246 241.061 23.1304C242.642 25.3012 242.921 28.3099 242.921 30.9152C242.921 33.5823 242.642 36.4356 241.061 38.6689ZM235.664 23.9987C232.966 23.9987 232.749 28.9303 232.749 30.8219C232.749 32.714 232.966 37.6455 235.664 37.6455C238.362 37.6455 238.579 32.714 238.579 30.8219C238.579 28.9303 238.362 23.9987 235.664 23.9987Z" fill="black"/>
<path d="M248.754 24.3708V28.7752H252.507V32.7141H248.754V41.2431H244.66V20.5559H252.91V24.3708H248.754Z" fill="black"/>
<path d="M254.833 41.2431V20.5559H258.927V41.2431H254.833Z" fill="black"/>
<path d="M261.531 41.2431V20.5559H265.626V37.3661H269.906V41.2431H261.531Z" fill="black"/>
<path d="M271.114 41.2431V20.5559H279.333V24.4018H275.208V28.8681H278.837V32.7758H275.208V37.4283H279.395V41.2431H271.114Z" fill="black"/>
</g>
<defs>
<clipPath id="clip0_4720_12436">
<rect width="279.395" height="59.4123" fill="white"/>
</clipPath>
</defs>
</svg>
